STARTFONT 2.1
COMMENT
COMMENT Converted from OpenType font "FreeSansOblique.ttf" by "otf2bdf 3.0".
COMMENT
FONT -FreeType-FreeSans-Bold-I-Normal--50-120-300-300-P-281-ISO10646-1
SIZE 12 300 300
FONTBOUNDINGBOX 137 74 -58 -21
STARTPROPERTIES 19
FOUNDRY "FreeType"
FAMILY_NAME "FreeSans"
WEIGHT_NAME "Bold"
SLANT "I"
SETWIDTH_NAME "Normal"
ADD_STYLE_NAME ""
PIXEL_SIZE 50
POINT_SIZE 120
RESOLUTION_X 300
RESOLUTION_Y 300
SPACING "P"
AVERAGE_WIDTH 281
CHARSET_REGISTRY "ISO10646"
CHARSET_ENCODING "1"
FONT_ASCENT 45
FONT_DESCENT 10
COPYRIGHT "Copyright 2002, 2003, 2005, 2008, 2009, 2010, 2012 GNU Freefont contributors."
_OTF_FONTFILE "FreeSansOblique.ttf"
_OTF_PSNAME "FreeSansOblique"
ENDPROPERTIES
CHARS 2547
STARTCHAR 0020
ENCODING 32
SWIDTH 280 0
DWIDTH 14 0
BBX 0 0 0 0
BITMAP
ENDCHAR
STARTCHAR 0021
ENCODING 33
SWIDTH 280 0
DWIDTH 14 0
BBX 12 36 6 0
BITMAP
00F0
00F0
01F0
01E0
01E0
01E0
01E0
03E0
03C0
03C0
03C0
07C0
0780
0780
0780
0780
0F80
0F00
0F00
0F00
0E00
0E00
0E00
1C00
1C00
1C00
1800
1800
0000
0000
0000
7800
7800
7800
7800
F800
ENDCHAR
STARTCHAR 0022
ENCODING 34
SWIDTH 360 0
DWIDTH 18 0
BBX 14 13 9 23
BITMAP
7C7C
7C7C
7C7C
7878
F8F8
F8F8
F8F8
F0F0
F0F0
E0E0
E0E0
E0E0
C0C0
ENDCHAR
STARTCHAR 0023
ENCODING 35
SWIDTH 560 0
DWIDTH 28 0
BBX 29 36 3 -1
BITMAP
0003C070
0003C0F0
0003C0F0
000781E0
000781E0
000701C0
000F03C0
000F03C0
001E0780
001E0780
07FFFFF8
0FFFFFF8
0FFFFFF8
00781E00
00781E00
00701C00
00F03C00
00F03C00
01E07800
01E07800
03C07000
03C0F000
FFFFFF80
FFFFFF80
FFFFFF80
0701C000
0F03C000
0F03C000
1E078000
1E078000
1C078000
3C0F0000
3C0F0000
380E0000
781E0000
781E0000
ENDCHAR
STARTCHAR 0024
ENCODING 36
SWIDTH 560 0
DWIDTH 28 0
BBX 27 45 3 -6
BITMAP
00007000
00007000
00007000
0000F800
000FFF00
003FFF80
007FFFC0
00FCE7C0
01F0E3E0
01E1C1E0
03C1C1E0
03C1C1E0
0781C1E0
07818000
07838000
07838000
07C38000
07E38000
07FF0000
03FF8000
01FFF000
007FFC00
001FFE00
000FFF00
000E3F00
000E1F80
000E0F80
000E0F80
001C0F80
F01C0F00
F01C0F00
F01C0F00
F0181F00
F8381E00
F8383C00
7E38FC00
7FBFF800
3FFFF000
0FFFC000
03FE0000
00700000
00700000
00E00000
00E00000
00E00000
ENDCHAR
STARTCHAR 0025
ENCODING 37
SWIDTH 880 0
DWIDTH 44 0
BBX 37 37 7 -1
BITMAP
00000001C0
0000000380
00F8000780
07FE000F00
0FFF000E00
1FBF801C00
3C07803C00
7803803800
7003807000
F00380E000
F00381E000
F00381C000
F007838000
F00F070000
F81E0F0000
7EFE0E0000
7FFC1C0000
3FF03C0000
0FC0780000
0000700000
0000E00F80
0001E07FE0
0001C0FFF0
000381FBF8
000703C078
000F078038
000E070038
001C0F0038
00380F0038
00780F0038
00700F0078
00E00F00F0
01E00F81E0
03C007EFE0
038007FFC0
070003FF00
0F0000FC00
ENDCHAR
STARTCHAR 0026
ENCODING 38
SWIDTH 660 0
DWIDTH 33 0
BBX 28 36 4 0
BITMAP
0003FC00
000FFF00
001FFF00
003E0F80
007C0780
00780780
00F00780
00F00780
00F00F80
00F00F00
00F81F00
00F87E00
007CFC00
007FF000
003FE000
003F8000
00FF0000
03FF8000
07EFC0F0
0FC7C0F0
1F03E1E0
3E03E1E0
3C01F3C0
7C01FFC0
7800FF80
F8007F00
F8007F00
F8003E00
F8007F00
F800FF00
FC01FF80
7E07EF80
7FFFC7C0
3FFF07E0
1FFE03E0
07F00000
ENDCHAR
STARTCHAR 0027
ENCODING 39
SWIDTH 200 0
DWIDTH 10 0
BBX 6 13 9 23
BITMAP
7C
7C
7C
78
F8
F8
F8
F0
F0
E0
E0
E0
C0
ENDCHAR
STARTCHAR 0028
ENCODING 40
SWIDTH 340 0
DWIDTH 17 0
BBX 16 47 6 -11
BITMAP
0007
000E
000E
001C
0038
0078
0070
00E0
01E0
01C0
03C0
0780
0780
0F00
0F00
1E00
1E00
1E00
3C00
3C00
3C00
7800
7800
7800
7800
F000
F000
F000
F000
F000
F000
F000
F000
F000
F000
F000
F000
7000
7000
7800
7800
7800
3800
3800
1C00
1C00
0C00
ENDCHAR
STARTCHAR 0029
ENCODING 41
SWIDTH 340 0
DWIDTH 17 0
BBX 16 47 0 -10
BITMAP
0030
0038
0038
001C
001C
001C
001E
001E
000E
000E
000F
000F
000F
000F
000F
000F
000F
000F
000F
000F
000F
001F
001E
001E
001E
001E
003C
003C
003C
0078
0078
0078
00F0
00F0
01E0
01E0
03C0
0380
0780
0700
0E00
1E00
1C00
3800
7000
6000
E000
ENDCHAR
STARTCHAR 002A
ENCODING 42
SWIDTH 380 0
DWIDTH 19 0
BBX 15 14 9 22
BITMAP
01C0
01C0
0380
638C
FFFC
FFFE
3FF8
0F80
1FC0
3DC0
79E0
F0E0
60E0
2000
ENDCHAR
STARTCHAR 002B
ENCODING 43
SWIDTH 580 0
DWIDTH 29 0
BBX 25 24 5 0
BITMAP
00070000
00070000
000F0000
000F0000
000F0000
000E0000
000E0000
001E0000
001E0000
001C0000
FFFFFF80
FFFFFF00
FFFFFF00
FFFFFF00
00380000
00380000
00780000
00780000
00780000
00700000
00700000
00F00000
00F00000
00E00000
ENDCHAR
STARTCHAR 002C
ENCODING 44
SWIDTH 280 0
DWIDTH 14 0
BBX 8 13 3 -7
BITMAP
1F
3F
3F
3E
3E
3E
0E
0C
0C
1C
38
F0
E0
ENDCHAR
STARTCHAR 002D
ENCODING 45
SWIDTH 340 0
DWIDTH 17 0
BBX 13 4 5 12
BITMAP
7FF8
7FF0
FFF0
FFF0
ENDCHAR
STARTCHAR 002E
ENCODING 46
SWIDTH 280 0
DWIDTH 14 0
BBX 6 5 4 0
BITMAP
7C
7C
7C
FC
F8
ENDCHAR
STARTCHAR 002F
ENCODING 47
SWIDTH 280 0
DWIDTH 14 0
BBX 21 37 0 -1
BITMAP
000018
000038
000030
000070
000060
0000E0
0000C0
0001C0
000380
000380
000700
000700
000E00
000E00
001C00
001C00
003800
003000
007000
006000
00E000
00C000
01C000
018000
038000
070000
070000
0E0000
0E0000
1C0000
1C0000
380000
380000
700000
600000
E00000
C00000
ENDCHAR
STARTCHAR 0030
ENCODING 48
SWIDTH 560 0
DWIDTH 28 0
BBX 25 36 5 0
BITMAP
001FF000
007FFC00
00FFFE00
01FCFE00
03F03F00
07E01F00
07C01F00
0F800F80
0F000F80
1F000F80
1F000F80
1E000F80
3E000F00
3E000F00
3C001F00
7C001F00
7C001F00
7C001F00
78001E00
78003E00
F8003E00
F8003E00
F8003E00
F8007C00
F8007C00
F8007800
F800F800
F800F800
F801F000
F803E000
7C07E000
7E0FC000
3FFF8000
3FFF0000
0FFE0000
03F00000
ENDCHAR
STARTCHAR 0031
ENCODING 49
SWIDTH 560 0
DWIDTH 28 0
BBX 15 36 10 0
BITMAP
000E
001E
001C
003C
003C
00FC
03FC
3FF8
7FF8
7FF8
FFF8
00F8
00F0
00F0
00F0
01F0
01E0
01E0
01E0
03E0
03E0
03C0
03C0
03C0
07C0
07C0
0780
0780
0780
0F80
0F00
0F00
0F00
1F00
1F00
1E00
ENDCHAR
STARTCHAR 0032
ENCODING 50
SWIDTH 560 0
DWIDTH 28 0
BBX 30 35 2 1
BITMAP
0003FF80
000FFFE0
003FFFF0
007FCFF0
007E01F8
00F800F8
01F00078
01F0007C
01E0007C
03E0007C
03C00078
000000F8
000000F8
000001F0
000003F0
000007E0
00000FC0
00003F80
0000FE00
0003FC00
000FF000
003FC000
00FF0000
01FC0000
03F00000
07E00000
0F800000
1F000000
1E000000
3C000000
3C000000
7FFFFF00
7FFFFF00
7FFFFF00
FFFFFF00
ENDCHAR
STARTCHAR 0033
ENCODING 51
SWIDTH 560 0
DWIDTH 28 0
BBX 26 36 4 0
BITMAP
001FF800
007FFE00
00FFFF00
01FE7F80
03F00F80
07C00FC0
078007C0
0F8007C0
0F0007C0
0F000780
00000780
00000F80
00000F00
00001F00
00007E00
001FFC00
001FF000
001FF000
001FFC00
0000FE00
00003E00
00001F00
00001F00
00001F00
00001F00
F8001E00
F8001E00
F8003E00
F8007C00
F8007C00
FC00F800
7E03F000
7FFFE000
3FFFC000
1FFF8000
03FC0000
ENDCHAR
STARTCHAR 0034
ENCODING 52
SWIDTH 560 0
DWIDTH 28 0
BBX 25 36 3 0
BITMAP
00000380
00000780
00000F80
00001F80
00003F00
00007F00
0000FF00
0000FF00
0001FF00
0003DE00
00079E00
000F1E00
001E3E00
003C3C00
007C3C00
00F83C00
01F07C00
03E07C00
07C07800
07807800
0F007800
1E00F800
3C00F800
7800F000
7FFFFF80
7FFFFF80
FFFFFF80
FFFFFF80
0001E000
0001E000
0003E000
0003E000
0003C000
0003C000
0003C000
0007C000
ENDCHAR
STARTCHAR 0035
ENCODING 53
SWIDTH 560 0
DWIDTH 28 0
BBX 28 37 4 -1
BITMAP
007FFFF0
007FFFF0
007FFFE0
00FFFFE0
00FFFFE0
00F00000
01E00000
01E00000
01E00000
03C00000
03C00000
03C00000
0787C000
07BFF800
07FFFC00
0FFFFE00
0FE07F00
0F803F00
1F001F00
00000F80
00000F80
00000F80
00000F80
00000F00
00000F00
00000F00
00001F00
F8001E00
F8003E00
F8003C00
F8007C00
FC00F800
7F03F000
7FFFE000
3FFFC000
0FFF0000
03FC0000
ENDCHAR
STARTCHAR 0036
ENCODING 54
SWIDTH 560 0
DWIDTH 28 0
BBX 26 36 5 0
BITMAP
000FF800
003FFE00
007FFF00
00FF7F80
01F81F80
03E00F80
07C007C0
07C007C0
0F8007C0
0F000000
1F000000
1F000000
1E000000
3E0FC000
3E3FF000
3CFFF800
7DFFFC00
7FE0FE00
7F803E00
7E003E00
7E001F00
FC001F00
F8001F00
F8001E00
F8001E00
F8001E00
F8003E00
F8003C00
F8007C00
F800F800
7C01F000
7F07F000
3FFFE000
1FFFC000
0FFF0000
03F80000
ENDCHAR
STARTCHAR 0037
ENCODING 55
SWIDTH 560 0
DWIDTH 28 0
BBX 27 36 7 0
BITMAP
1FFFFFE0
1FFFFFC0
3FFFFFC0
3FFFFFC0
3FFFFFC0
00000F80
00001F00
00003E00
00003C00
00007800
0000F000
0001E000
0003C000
0007C000
00078000
000F0000
001E0000
003E0000
003C0000
00780000
00F80000
00F00000
01F00000
03E00000
03C00000
07C00000
0F800000
0F800000
1F000000
1F000000
3E000000
3E000000
7C000000
7C000000
F8000000
F8000000
ENDCHAR
STARTCHAR 0038
ENCODING 56
SWIDTH 560 0
DWIDTH 28 0
BBX 27 36 4 0
BITMAP
000FFE00
003FFF00
007FFF80
00FF3FC0
01F807C0
01F007C0
03E003E0
03C003E0
07C003E0
07C003C0
07C007C0
07C007C0
07C00F80
03E03F00
03FFFE00
00FFF800
01FFF800
03FFFC00
0FE07E00
1F803F00
3E001F00
3C000F80
7C000F80
78000F80
F8000F00
F8000F00
F8001F00
F8001F00
F8003E00
F8003E00
7C00FC00
7F03F800
3FFFF000
1FFFE000
0FFF8000
01FE0000
ENDCHAR
STARTCHAR 0039
ENCODING 57
SWIDTH 560 0
DWIDTH 28 0
BBX 27 36 4 0
BITMAP
001FFC00
007FFE00
00FFFF00
03FEFF80
03F01FC0
07C007C0
0F8007C0
0F0003E0
1F0003E0
1E0003E0
1E0003E0
3E0003E0
3E0007C0
3E0007C0
3E000FC0
3E000FC0
3E001FC0
1F003FC0
1FC0FF80
0FFFFF80
0FFFCF80
03FF8F80
00FC1F00
00001F00
00001F00
00003E00
00003E00
F8007C00
F800F800
F800F800
FC03F000
7E07E000
7FFFC000
3FFF8000
1FFE0000
07F80000
ENDCHAR
STARTCHAR 003A
ENCODING 58
SWIDTH 280 0
DWIDTH 14 0
BBX 11 26 5 0
BITMAP
03E0
03E0
03E0
07E0
07C0
0000
0000
0000
0000
0000
0000
0000
0000
0000
0000
0000
0000
0000
0000
0000
0000
7C00
7C00
7C00
FC00
F800
ENDCHAR
STARTCHAR 003B
ENCODING 59
SWIDTH 280 0
DWIDTH 14 0
BBX 12 33 4 -7
BITMAP
01F0
01F0
01F0
03F0
03E0
0000
0000
0000
0000
0000
0000
0000
0000
0000
0000
0000
0000
0000
0000
0000
1F00
3F00
3F00
3E00
3E00
3E00
0E00
0C00
0C00
1C00
3800
F000
E000
ENDCHAR
STARTCHAR 003C
ENCODING 60
SWIDTH 580 0
DWIDTH 29 0
BBX 28 24 4 0
BITMAP
00000010
00000070
000003E0
00000FE0
00007FC0
0003FF00
000FF800
007FE000
01FF0000
0FFC0000
3FE00000
7F000000
7C000000
FF000000
7FC00000
1FF00000
07FC0000
00FF8000
003FE000
000FF800
0003FE00
0000FE00
00003E00
00000E00
ENDCHAR
STARTCHAR 003D
ENCODING 61
SWIDTH 580 0
DWIDTH 29 0
BBX 26 12 4 6
BITMAP
3FFFFFC0
3FFFFFC0
3FFFFFC0
3FFFFFC0
00000000
00000000
00000000
00000000
FFFFFF80
FFFFFF00
FFFFFF00
FFFFFF00
ENDCHAR
STARTCHAR 003E
ENCODING 62
SWIDTH 580 0
DWIDTH 29 0
BBX 28 24 2 0
BITMAP
07000000
07C00000
07F00000
07FC0000
01FF0000
007FC000
001FF000
0003FE00
0000FF80
00003FE0
00000FF0
000003E0
00000FE0
00007FC0
0003FF00
000FF800
007FE000
01FF0000
0FFC0000
3FE00000
7F000000
7C000000
E0000000
80000000
ENDCHAR
STARTCHAR 003F
ENCODING 63
SWIDTH 560 0
DWIDTH 28 0
BBX 23 36 9 1
BITMAP
00FFE0
03FFF0
0FFFF8
1FF7FC
3F00FC
3E007C
7C003E
7C003E
78003E
F8003C
00007C
00007C
0000F8
0001F0
0003E0
000FC0
001F80
003F00
007C00
00F800
01F000
03E000
03E000
03C000
07C000
07C000
000000
000000
000000
000000
000000
0F0000
0F0000
1F0000
1F0000
1F0000
ENDCHAR
STARTCHAR 0040
ENCODING 64
SWIDTH 1020 0
DWIDTH 51 0
BBX 48 43 4 -6
BITMAP
000003FFF800
00001FFFFE00
00007FFFFF80
0001FFF3FFE0
0007FC000FF0
000FF00003F8
001FC00001FC
007F000000FC
00FE0000007E
01F80000003E
01F000FC001F
03E007FE3E1F
07C01FFF3C0F
0F803FDFFC0F
0F807E07F80F
1F00F803F00F
1E01F003F00F
3E03E003E00F
3C07C003E00F
7C07C007C01F
7C0F8007C01E
780F8007803E
F81F000F803E
F81F000F007C
F81F001E00FC
F81F003E00F8
F81F007C01F0
F81F00FC07E0
F81F81FC0FC0
F80FEFBFFF80
F80FFF3FFE00
7C07FE3FFC00
7C01F81FE000
7E0000000000
3F0000000000
1F8000000000
1FC000000000
0FF000000000
07FC007C0000
01FFFFFC0000
00FFFFFE0000
003FFFF80000
0007FF000000
ENDCHAR
STARTCHAR 0041
ENCODING 65
SWIDTH 660 0
DWIDTH 33 0
BBX 32 36 1 0
BITMAP
00000FE0
00001FE0
00001FE0
00003FE0
00003FE0
00007BE0
00007BE0
0000F3F0
0001F1F0
0001E1F0
0003E1F0
0003C1F0
000781F0
000781F0
000F01F8
001F00F8
001E00F8
003E00F8
003C00F8
007800F8
00F800F8
00FFFFFC
01FFFFFC
01FFFFFC
03FFFFFC
03C0007C
07C0007C
0F80007C
0F80007E
1F00003E
1F00003E
3E00003E
3C00003E
7C00003E
F800003E
F800003F
ENDCHAR
STARTCHAR 0042
ENCODING 66
SWIDTH 660 0
DWIDTH 33 0
BBX 32 36 4 0
BITMAP
00FFFFC0
01FFFFF8
01FFFFFC
01FFFFFE
01F000FE
01E0003E
03E0001F
03E0001F
03E0001F
03C0001E
07C0001E
07C0003E
07C0003C
07C0007C
078000F8
0F8003F0
0FFFFFE0
0FFFFF80
0FFFFFE0
0FFFFFF0
1F0001F8
1F0000F8
1F00007C
1E00007C
3E00007C
3E00007C
3E000078
3E0000F8
3C0000F8
7C0001F0
7C0003F0
7C000FE0
7FFFFFC0
7FFFFF80
FFFFFE00
FFFFF000
ENDCHAR
STARTCHAR 0043
ENCODING 67
SWIDTH 720 0
DWIDTH 36 0
BBX 33 37 5 0
BITMAP
0001FFC000
0007FFF000
001FFFFC00
007FFFFC00
00FE007E00
01F8003E00
03F0001F00
03E0001F00
07C0000F00
0F80000F80
0F00000F80
1F00000000
1E00000000
3E00000000
3C00000000
7C00000000
7C00000000
7800000000
7800000000
F800000000
F800000000
F800000000
F800000000
F800003E00
F800007C00
F800007C00
F80000F800
F80000F800
7C0001F000
7C0003E000
7E0007E000
3F001FC000
1FC07F8000
1FFFFF0000
0FFFFC0000
03FFF00000
007F800000
ENDCHAR
STARTCHAR 0044
ENCODING 68
SWIDTH 700 0
DWIDTH 35 0
BBX 34 36 4 0
BITMAP
00FFFFC000
01FFFFF000
01FFFFFC00
01FFFFFE00
01F001FE00
01E0003F00
03E0001F00
03E0000F80
03E0000F80
03C0000780
03C00007C0
07C00007C0
07C00007C0
07C00007C0
07800007C0
0F80000780
0F80000780
0F80000F80
0F00000F80
0F00000F80
1F00000F00
1F00001F00
1F00001F00
1E00003E00
3E00003E00
3E00007C00
3E00007C00
3E0000F800
3C0001F000
7C0003F000
7C000FE000
7C003FC000
7FFFFF8000
7FFFFE0000
FFFFF80000
FFFFC00000
ENDCHAR
STARTCHAR 0045
ENCODING 69
SWIDTH 660 0
DWIDTH 33 0
BBX 33 36 4 0
BITMAP
00FFFFFF80
01FFFFFF80
01FFFFFF80
01FFFFFF00
01F0000000
01E0000000
03E0000000
03E0000000
03E0000000
03C0000000
03C0000000
07C0000000
07C0000000
07C0000000
0780000000
0F80000000
0FFFFFF800
0FFFFFF000
0FFFFFF000
0FFFFFF000
1F00000000
1F00000000
1F00000000
1E00000000
3E00000000
3E00000000
3E00000000
3E00000000
3C00000000
7C00000000
7C00000000
7C00000000
7FFFFFE000
7FFFFFE000
FFFFFFC000
FFFFFFC000
ENDCHAR
STARTCHAR 0046
ENCODING 70
SWIDTH 600 0
DWIDTH 30 0
BBX 32 36 4 0
BITMAP
00FFFFFF
01FFFFFF
01FFFFFF
01FFFFFE
01F00000
01E00000
03E00000
03E00000
03E00000
03C00000
03C00000
07C00000
07C00000
07C00000
07800000
0F800000
0FFFFFC0
0FFFFFC0
0FFFFFC0
0FFFFFC0
1F000000
1F000000
1F000000
1E000000
3E000000
3E000000
3E000000
3E000000
3C000000
7C000000
7C000000
7C000000
78000000
78000000
F8000000
F8000000
ENDCHAR
STARTCHAR 0047
ENCODING 71
SWIDTH 780 0
DWIDTH 39 0
BBX 36 37 5 0
BITMAP
0000FFF800
0003FFFE00
000FFFFF80
003FFFFF80
007F001FC0
00FC0007E0
01F00003E0
03E00003E0
07C00001F0
0F800001F0
0F800001F0
1F00000000
1E00000000
3E00000000
3C00000000
7C00000000
7C00000000
78001FFFE0
F8001FFFE0
F8001FFFC0
F8001FFFC0
F8000003C0
F8000003C0
F8000007C0
F800000780
F800000780
F800000F80
7C00001F80
7C00003F00
7E00007F00
3F0000FF00
3F8003FF00
1FF01FEF00
0FFFFF8E00
07FFFF0E00
01FFFC0E00
003FC00000
ENDCHAR
STARTCHAR 0048
ENCODING 72
SWIDTH 720 0
DWIDTH 36 0
BBX 36 36 4 0
BITMAP
00F00001F0
01F00001E0
01F00001E0
01F00003E0
01E00003E0
01E00003E0
03E00003C0
03E00003C0
03E00007C0
03C00007C0
03C00007C0
07C0000780
07C0000F80
07C0000F80
0780000F80
0F80000F00
0FFFFFFF00
0FFFFFFF00
0FFFFFFF00
0FFFFFFF00
1F00001E00
1F00003E00
1F00003E00
1E00003E00
3E00003E00
3E00003C00
3E00007C00
3E00007C00
3C00007C00
7C00007800
7C00007800
7C0000F800
780000F800
780000F800
F80000F000
F80001F000
ENDCHAR
STARTCHAR 0049
ENCODING 73
SWIDTH 280 0
DWIDTH 14 0
BBX 12 36 5 0
BITMAP
00F0
01F0
01F0
01F0
01E0
01E0
03E0
03E0
03E0
03C0
03C0
07C0
07C0
07C0
0780
0F80
0F80
0F80
0F00
0F00
1F00
1F00
1F00
1E00
3E00
3E00
3E00
3E00
3C00
7C00
7C00
7C00
7800
7800
F800
F800
ENDCHAR
STARTCHAR 004A
ENCODING 74
SWIDTH 500 0
DWIDTH 25 0
BBX 27 37 2 -1
BITMAP
000003E0
000003E0
000003E0
000003C0
000007C0
000007C0
000007C0
000007C0
00000780
00000F80
00000F80
00000F80
00000F00
00001F00
00001F00
00001F00
00001F00
00001E00
00003E00
00003E00
00003E00
00003E00
00003C00
00007C00
7C007C00
78007C00
F8007800
F800F800
F800F800
F801F800
F801F000
FC03F000
7E0FE000
7FFFC000
3FFF8000
1FFE0000
07F00000
ENDCHAR
STARTCHAR 004B
ENCODING 75
SWIDTH 660 0
DWIDTH 33 0
BBX 36 36 4 0
BITMAP
00F00003F0
01F00007E0
01F0000FC0
01F0003F00
01E0007E00
01E000FC00
03E001F800
03E003E000
03E00FC000
03C01F8000
03C03F0000
07C07E0000
07C0F80000
07C3F00000
0787E00000
0F8FE00000
0F9FE00000
0FBFF00000
0FFCF00000
0FF0F80000
1FE0F80000
1FC07C0000
1F807C0000
1F003E0000
3E003E0000
3E001F0000
3E001F0000
3E000F8000
3C000F8000
7C000FC000
7C0007C000
7C0007E000
780003E000
780003F000
F80001F000
F80001F800
ENDCHAR
STARTCHAR 004C
ENCODING 76
SWIDTH 560 0
DWIDTH 28 0
BBX 23 36 4 0
BITMAP
00F000
01F000
01F000
01F000
01E000
01E000
03E000
03E000
03E000
03C000
03C000
07C000
07C000
07C000
078000
0F8000
0F8000
0F8000
0F0000
0F0000
1F0000
1F0000
1F0000
1E0000
3E0000
3E0000
3E0000
3C0000
3C0000
7C0000
7C0000
7C0000
7FFFFE
7FFFFE
FFFFFE
FFFFFE
ENDCHAR
STARTCHAR 004D
ENCODING 77
SWIDTH 840 0
DWIDTH 42 0
BBX 42 36 4 0
BITMAP
00FC00001FC0
01FC00001FC0
01FE00003FC0
01FE00003F80
01FE00007F80
01FE0000FF80
03FE0000FF80
03FE0001EF00
03DE0001EF00
03DF0003CF00
07CF0003DF00
07CF00079F00
078F00079E00
078F000F1E00
078F001F3E00
0F8F001E3E00
0F8F003C3E00
0F0F803C3C00
0F0780783C00
0F0780787C00
1F0780F07C00
1F0781F07800
1E0781E07800
1E0783E07800
3E0783C0F800
3E07C780F800
3C03C780F000
3C03CF00F000
3C03CF01F000
7C03DE01F000
7C03FE01E000
7803FC01E000
7803FC01E000
7803F803E000
F801F003E000
F801F003C000
ENDCHAR
STARTCHAR 004E
ENCODING 78
SWIDTH 720 0
DWIDTH 36 0
BBX 36 36 4 0
BITMAP
00F80000F0
01FC0001F0
01FC0001F0
01FC0001E0
01FE0001E0
01FE0001E0
03FF0003E0
03FF0003E0
03CF8003C0
03CF8003C0
07CF8003C0
07C7C007C0
0787C007C0
0783E00780
0783E00780
0F81F00F80
0F81F00F80
0F01F00F00
0F00F80F00
0F00F80F00
1F007C1F00
1F007C1F00
1E003C1E00
1E003E1E00
3E003E1E00
3E001F3E00
3C001F3E00
3C000FBC00
3C000FBC00
7C000FFC00
7C0007FC00
780007F800
780003F800
780003F800
F80001F800
F80001F800
ENDCHAR
STARTCHAR 004F
ENCODING 79
SWIDTH 780 0
DWIDTH 39 0
BBX 36 37 5 0
BITMAP
0001FFF000
0007FFFC00
001FFFFE00
003FFFFF00
00FF007F80
01FC001FC0
03F0000FC0
07E00007E0
07C00003E0
0F800003E0
1F000001E0
1F000001F0
3E000001F0
3E000001F0
7C000001F0
7C000001F0
78000001E0
78000003E0
F8000003E0
F8000003E0
F8000003E0
F8000007C0
F8000007C0
F8000007C0
F800000F80
F800000F80
F800001F00
7C00003F00
7C00007E00
7E0000FC00
3F0001F800
3F8007F000
1FF03FE000
0FFFFFC000
07FFFF0000
01FFFC0000
003FE00000
ENDCHAR
STARTCHAR 0050
ENCODING 80
SWIDTH 640 0
DWIDTH 32 0
BBX 32 36 4 0
BITMAP
00FFFFC0
01FFFFF8
01FFFFFC
01FFFFFE
01F000FE
01E0003E
03E0003F
03E0001F
03E0001F
03C0001F
03C0001E
07C0001E
07C0003E
07C0003E
0780007C
0F8000FC
0F8003F8
0FFFFFF0
0FFFFFE0
0FFFFF80
1FFFFE00
1F000000
1F000000
1E000000
3E000000
3E000000
3E000000
3E000000
3C000000
7C000000
7C000000
7C000000
78000000
78000000
F8000000
F8000000
ENDCHAR
STARTCHAR 0051
ENCODING 81
SWIDTH 780 0
DWIDTH 39 0
BBX 37 38 5 -2
BITMAP
0000FFF000
0007FFFC00
001FFFFF00
003FFFFF80
00FF003FC0
01FC000FE0
03F00007E0
03E00003F0
07C00001F0
0F800001F0
1F000000F0
1F000000F8
3E000000F8
3E000000F8
3C000000F8
7C000000F8
7C000000F0
78000000F0
F8000000F0
F8000001F0
F8000001F0
F8000001E0
F8000003E0
F8000003C0
F8000007C0
F800000F80
F8000C0F80
7C001E1F00
7C003F3E00
7E001FFE00
3F000FFC00
3F8003F800
1FF01FF800
0FFFFFFC00
07FFFF7E00
01FFFC3F00
003FE01F00
0000000C00
ENDCHAR
STARTCHAR 0052
ENCODING 82
SWIDTH 700 0
DWIDTH 35 0
BBX 34 36 4 0
BITMAP
00FFFFF800
01FFFFFE00
01FFFFFF00
01FFFFFF80
01F0003F80
01E0000F80
03E00007C0
03E00007C0
03E00007C0
03C00007C0
03C0000780
07C0000F80
07C0000F80
07C0001F00
0780003E00
0F8000FC00
0FFFFFF800
0FFFFFE000
0FFFFFF000
0FFFFFF800
1F0001F800
1F0000FC00
1F00007C00
1E00007C00
3E00007C00
3E00007800
3E00007800
3E00007800
3C0000F800
7C0000F800
7C0000F800
7C0000F800
780000F800
780000F800
F80000F800
F80000F800
ENDCHAR
STARTCHAR 0053
ENCODING 83
SWIDTH 660 0
DWIDTH 33 0
BBX 31 37 4 0
BITMAP
0003FFC0
001FFFE0
003FFFF8
007FFFF8
00FC00FC
01F0007C
03E0003E
03C0003E
03C0003E
07C0003E
07C0003C
07C00000
07C00000
07F00000
03FE0000
03FFC000
01FFFC00
00FFFF00
001FFFC0
0001FFE0
00003FF0
000007F0
000001F0
000001F8
F80000F8
F80000F8
F80000F0
F80000F0
F80001F0
F80003E0
FC0007C0
7E000FC0
7F807F80
3FFFFF00
1FFFFC00
07FFF000
00FF8000
ENDCHAR
STARTCHAR 0054
ENCODING 84
SWIDTH 620 0
DWIDTH 31 0
BBX 29 36 8 0
BITMAP
7FFFFFF8
FFFFFFF8
FFFFFFF8
FFFFFFF8
000F8000
000F0000
001F0000
001F0000
001F0000
001E0000
001E0000
003E0000
003E0000
003E0000
003C0000
007C0000
007C0000
007C0000
007C0000
00780000
00F80000
00F80000
00F80000
00F00000
00F00000
01F00000
01F00000
01F00000
01E00000
03E00000
03E00000
03E00000
03C00000
03C00000
07C00000
07C00000
ENDCHAR
STARTCHAR 0055
ENCODING 85
SWIDTH 720 0
DWIDTH 36 0
BBX 34 37 6 -1
BITMAP
03C00007C0
07C0000780
07C0000780
07C0000F80
0780000F80
0780000F80
0F80000F00
0F80001F00
0F80001F00
0F00001F00
0F00001F00
1F00001E00
1F00003E00
1F00003E00
1E00003E00
3E00003C00
3E00003C00
3E00007C00
3E00007C00
3C00007C00
7C00007800
7C00007800
7C0000F800
780000F800
780000F800
F80000F000
F80001F000
F80001F000
F80003E000
F80003E000
FC000FC000
7E001F8000
7F80FF0000
3FFFFE0000
1FFFFC0000
07FFF00000
00FF800000
ENDCHAR
STARTCHAR 0056
ENCODING 86
SWIDTH 640 0
DWIDTH 32 0
BBX 30 36 9 0
BITMAP
F000007C
F00000F8
F80000F8
F80001F0
F80001F0
F80003E0
F80003E0
780007C0
78000780
7C000F80
7C001F00
7C001F00
7C003E00
7C003E00
3C007C00
3C007800
3E00F800
3E00F000
3E01F000
3E01E000
3E03E000
3E07C000
1E07C000
1F0F8000
1F0F0000
1F1F0000
1F1E0000
1F3E0000
1F3C0000
0F7C0000
0FF80000
0FF00000
0FF00000
0FE00000
0FE00000
0FC00000
ENDCHAR
STARTCHAR 0057
ENCODING 87
SWIDTH 940 0
DWIDTH 47 0
BBX 45 36 9 0
BITMAP
F8001F8001F8
F8001F8001F0
F8003F8001F0
F8003F8003E0
F8003F8003E0
F8007F8007C0
F8007F8007C0
F800F7800F80
F800F7800F80
F801E7801F00
F801E7801F00
F803C7803E00
7803C7803E00
780787803E00
780787C07C00
780F07C07C00
780F07C0F800
781E07C0F800
781E03C1F000
783C03C1F000
783C03C3E000
787803C3E000
787803C3C000
78F803C7C000
78F003C78000
79F003CF8000
79E003CF0000
7BE003DF0000
7BC003DE0000
7FC003FE0000
7F8003FC0000
7F8003FC0000
7F0001FC0000
7F0001F80000
7E0001F80000
7E0001F00000
ENDCHAR
STARTCHAR 0058
ENCODING 88
SWIDTH 660 0
DWIDTH 33 0
BBX 38 36 1 0
BITMAP
007C0000FC
007E0000F8
003E0001F0
003F0003E0
001F0007C0
001F800FC0
000F801F80
000FC03F00
0007C07E00
0007C07C00
0003E0F800
0003E1F000
0001F3E000
0001F7C000
0000FF8000
0000FF0000
0000FE0000
00007E0000
0000FE0000
0001FE0000
0003FF0000
0007FF0000
000FCF8000
001F8F8000
001F07C000
003E07C000
007C07E000
00F803E000
01F003F000
03E001F000
07E001F800
0FC000F800
1F8000FC00
3F00007C00
7E00007E00
FC00007E00
ENDCHAR
STARTCHAR 0059
ENCODING 89
SWIDTH 680 0
DWIDTH 34 0
BBX 31 36 9 0
BITMAP
F800003E
FC00007E
7C0000FC
7C0001F8
7E0001F0
3E0003E0
3F0007C0
1F000FC0
1F001F80
0F801F00
0F803E00
0FC07C00
07C0F800
07C1F000
03E3F000
03E3E000
01E7C000
01FF8000
01FF0000
00FE0000
00FC0000
007C0000
00780000
00F80000
00F80000
00F80000
00F00000
00F00000
01F00000
01F00000
01F00000
01E00000
03E00000
03E00000
03E00000
03E00000
ENDCHAR
STARTCHAR 005A
ENCODING 90
SWIDTH 620 0
DWIDTH 31 0
BBX 35 36 2 0
BITMAP
007FFFFFE0
00FFFFFFE0
00FFFFFFC0
00FFFFFFC0
0000000FC0
0000001F80
0000003F00
0000007E00
000000FC00
000001F800
000003F000
000007E000
00000FC000
00001F8000
00003F0000
00007E0000
0000FC0000
0001F80000
0003F00000
0007E00000
000FC00000
001F800000
003F000000
007E000000
00FC000000
01F8000000
03F0000000
07E0000000
0FC0000000
1F80000000
3F00000000
7E00000000
FFFFFFF000
FFFFFFF000
FFFFFFF000
FFFFFFE000
ENDCHAR
STARTCHAR 005B
ENCODING 91
SWIDTH 280 0
DWIDTH 14 0
BBX 19 47 1 -11
BITMAP
003FE0
003FE0
007FE0
007FE0
007800
007800
007800
00F800
00F000
00F000
00F000
00F000
01F000
01E000
01E000
01E000
03E000
03C000
03C000
03C000
03C000
07C000
078000
078000
078000
078000
0F8000
0F0000
0F0000
0F0000
1F0000
1E0000
1E0000
1E0000
1E0000
3E0000
3C0000
3C0000
3C0000
3C0000
7C0000
780000
780000
7FC000
FFC000
FFC000
FF8000
ENDCHAR
STARTCHAR 005C
ENCODING 92
SWIDTH 280 0
DWIDTH 14 0
BBX 7 37 7 -1
BITMAP
E0
E0
E0
E0
E0
60
60
70
70
70
70
70
70
70
30
30
30
38
38
38
38
38
38
18
18
18
1C
1C
1C
1C
1C
1C
1C
0C
0C
0C
0E
ENDCHAR
STARTCHAR 005D
ENCODING 93
SWIDTH 280 0
DWIDTH 14 0
BBX 19 47 -1 -10
BITMAP
003FE0
007FE0
007FE0
007FC0
0003C0
0003C0
0007C0
000780
000780
000780
000780
000F80
000F00
000F00
000F00
000F00
001F00
001E00
001E00
001E00
003E00
003C00
003C00
003C00
003C00
007C00
007800
007800
007800
007800
00F800
00F000
00F000
00F000
01F000
01E000
01E000
01E000
01E000
03E000
03C000
03C000
03C000
FFC000
FFC000
FF8000
FF8000
ENDCHAR
STARTCHAR 005E
ENCODING 94
SWIDTH 460 0
DWIDTH 23 0
BBX 19 20 6 16
BITMAP
001E00
001E00
003E00
003F00
007F00
00F700
00E700
01E700
03C780
038780
078380
070380
0F0380
1E03C0
1C03C0
3C01C0
3801C0
7801C0
F001E0
E001E0
ENDCHAR
STARTCHAR 005F
ENCODING 95
SWIDTH 560 0
DWIDTH 28 0
BBX 31 3 -3 -9
BITMAP
7FFFFFFE
FFFFFFFC
FFFFFFFC
ENDCHAR
STARTCHAR 0060
ENCODING 96
SWIDTH 340 0
DWIDTH 17 0
BBX 9 8 9 29
BITMAP
F800
7C00
3C00
1E00
1E00
0F00
0700
0380
ENDCHAR
STARTCHAR 0061
ENCODING 97
SWIDTH 560 0
DWIDTH 28 0
BBX 26 28 3 -1
BITMAP
000FF800
003FFE00
00FFFF00
01FFFF80
03F81FC0
03E00FC0
07C007C0
07C00780
00000780
00000780
00000F80
00003F80
003FFF00
03FFFF00
0FFFCF00
1FF01F00
3F001E00
7C001E00
78001E00
F8001E00
F8003E00
F8007C00
F800FC00
FC03FC00
7FFFBF80
7FFF3F80
3FFE3F00
0FF01F00
ENDCHAR
STARTCHAR 0062
ENCODING 98
SWIDTH 560 0
DWIDTH 28 0
BBX 27 37 3 -1
BITMAP
00F00000
00F00000
00E00000
01E00000
01E00000
01E00000
01C00000
03C00000
03C00000
03C3F800
03CFFE00
039FFF00
07BFFF80
07F81F80
07E00FC0
07C007C0
0FC007C0
0F8003E0
0F0003E0
0F0003E0
0E0003E0
1E0003C0
1E0003C0
1E0007C0
1C0007C0
3C0007C0
3C000F80
3C000F80
3C001F00
7E001F00
7E003E00
7F007C00
7F81FC00
77FFF800
F3FFE000
F1FFC000
007F0000
ENDCHAR
STARTCHAR 0063
ENCODING 99
SWIDTH 520 0
DWIDTH 26 0
BBX 24 28 4 -1
BITMAP
001FC0
007FF0
01FFFC
03FFFC
07E07E
0FC03E
1F001F
1F001F
3E001F
3E001F
7C0000
7C0000
780000
F80000
F80000
F80000
F80000
F80000
F8007C
F80078
F800F8
F801F0
7C01F0
7E07E0
3FFFC0
1FFF80
0FFF00
03F800
ENDCHAR
STARTCHAR 0064
ENCODING 100
SWIDTH 560 0
DWIDTH 28 0
BBX 29 37 4 -1
BITMAP
00000078
000000F0
000000F0
000000F0
000000F0
000001E0
000001E0
000001E0
000001E0
001F81E0
00FFE3C0
01FFF3C0
03FFFBC0
07E07BC0
0FC03FC0
1F001F80
1F000F80
3E000F80
3E000F80
7C000F00
7C000F00
78000F00
F8000F00
F8000F00
F8001E00
F8001E00
F8001E00
F8003E00
F8003C00
F8007C00
FC00FC00
7C01FC00
7F07FC00
3FFFF800
3FFF7800
0FFC7800
03F00000
ENDCHAR
STARTCHAR 0065
ENCODING 101
SWIDTH 540 0
DWIDTH 27 0
BBX 25 28 4 -1
BITMAP
001FC000
007FF800
01FFFC00
03FFFE00
07F07F00
0FC03F00
1F801F00
1F000F80
3E000F80
3C000F80
3C000F00
7FFFFF00
7FFFFF00
7FFFFF00
FFFFFF00
F8000000
F8000000
F8000000
F8000000
F8003C00
F8007C00
7C00F800
7C01F800
7F03F000
3FFFE000
1FFFC000
0FFF0000
01FC0000
ENDCHAR
STARTCHAR 0066
ENCODING 102
SWIDTH 260 0
DWIDTH 13 0
BBX 16 36 4 0
BITMAP
001F
007F
00FF
01FF
01E0
03E0
03C0
03C0
03C0
03C0
3FFC
3FFC
3FFC
0780
0780
0F80
0F00
0F00
0F00
1F00
1E00
1E00
1E00
1E00
3E00
3C00
3C00
3C00
3C00
7C00
7800
7800
7800
7800
F800
F000
ENDCHAR
STARTCHAR 0067
ENCODING 103
SWIDTH 560 0
DWIDTH 28 0
BBX 28 38 2 -11
BITMAP
0007F000
001FF8F0
007FFCF0
00FFFEF0
01FC1FF0
03F00FE0
03E007E0
07C003E0
078003E0
0F8003E0
0F0003C0
1F0003C0
1F0003C0
1E0003C0
3E0003C0
3E000780
3E000780
3E000780
3E000F80
3E000F00
3E001F00
3E003F00
1F007F00
1F80FF00
0FFFEE00
07FFDE00
03FF9E00
00FC1C00
00003C00
00003C00
F8007800
F8007800
F800F000
FC03E000
7FFFE000
7FFFC000
1FFF0000
07F80000
ENDCHAR
STARTCHAR 0068
ENCODING 104
SWIDTH 540 0
DWIDTH 27 0
BBX 26 36 3 0
BITMAP
00F00000
01F00000
01E00000
01E00000
01E00000
01E00000
03E00000
03C00000
03C00000
03C1FC00
07C7FF00
079FFF00
07BFFF80
07F81F80
07E00FC0
0FC007C0
0F800780
0F800780
0F000780
0F000780
1F000F80
1E000F00
1E000F00
1E000F00
3E001F00
3C001E00
3C001E00
3C001E00
3C001E00
7C003E00
78003C00
78003C00
78003C00
78003C00
F8007C00
F0007800
ENDCHAR
STARTCHAR 0069
ENCODING 105
SWIDTH 220 0
DWIDTH 11 0
BBX 12 36 3 0
BITMAP
00F0
01F0
01E0
01E0
01E0
0000
0000
0000
0000
0000
03C0
0780
0780
0780
0780
0F80
0F00
0F00
0F00
0F00
1F00
1E00
1E00
1E00
3E00
3C00
3C00
3C00
3C00
7C00
7800
7800
7800
7800
F800
F000
ENDCHAR
STARTCHAR 006A
ENCODING 106
SWIDTH 240 0
DWIDTH 12 0
BBX 18 47 -2 -11
BITMAP
0003C0
0003C0
0003C0
0007C0
000780
000000
000000
000000
000000
000000
000F00
000F00
000F00
001F00
001E00
001E00
001E00
003E00
003C00
003C00
003C00
003C00
007C00
007800
007800
007800
007800
00F800
00F000
00F000
00F000
01F000
01E000
01E000
01E000
01E000
03E000
03C000
03C000
03C000
03C000
07C000
078000
7F8000
FF0000
FE0000
F80000
ENDCHAR
STARTCHAR 006B
ENCODING 107
SWIDTH 500 0
DWIDTH 25 0
BBX 26 36 3 0
BITMAP
00F00000
01F00000
01E00000
01E00000
01E00000
01E00000
03E00000
03C00000
03C00000
03C00000
07C00FC0
07801F00
07803E00
07807C00
0781F800
0F83F000
0F07C000
0F0F8000
0F3F0000
0F7E0000
1FFF0000
1FFF0000
1FEF8000
1F8F8000
3F078000
3E07C000
3C03C000
3C03E000
3C03E000
7C01F000
7801F000
7800F000
7800F800
7800F800
F8007C00
F0007C00
ENDCHAR
STARTCHAR 006C
ENCODING 108
SWIDTH 220 0
DWIDTH 11 0
BBX 12 36 3 0
BITMAP
00F0
01F0
01E0
01E0
01E0
01E0
03E0
03C0
03C0
03C0
07C0
0780
0780
0780
0780
0F80
0F00
0F00
0F00
0F00
1F00
1E00
1E00
1E00
3E00
3C00
3C00
3C00
3C00
7C00
7800
7800
7800
7800
F800
F000
ENDCHAR
STARTCHAR 006D
ENCODING 109
SWIDTH 820 0
DWIDTH 41 0
BBX 40 27 3 0
BITMAP
0003F803F0
078FFC0FFC
079FFE3FFE
07FFFF7FFE
0FF03FF03F
0FE01FC01F
0FC01F801F
0F801F001E
0F001F001E
1F001E003E
1E001E003C
1E001E003C
1E003E003C
1E003C007C
3E003C0078
3C003C0078
3C003C0078
3C007C0078
3C007800F8
7C007800F0
78007800F0
7800F800F0
7800F000F0
7800F001F0
F800F001E0
F000F001E0
F001F001E0
ENDCHAR
STARTCHAR 006E
ENCODING 110
SWIDTH 540 0
DWIDTH 27 0
BBX 26 27 3 0
BITMAP
0001FC00
078FFE00
079FFF00
07FFFF80
07F81F80
07E00FC0
0FC007C0
0F800780
0F000780
0F000780
0E000F80
1E000F00
1E000F00
1E000F00
1C000F00
3C001F00
3C001E00
3C001E00
3C001E00
38001E00
78003E00
78003C00
78003C00
70003C00
70003C00
F0007C00
F0007800
ENDCHAR
STARTCHAR 006F
ENCODING 111
SWIDTH 560 0
DWIDTH 28 0
BBX 25 28 4 -1
BITMAP
001FC000
007FF800
01FFFC00
03FFFE00
07E07E00
0FC03F00
1F801F00
1F000F80
3E000F80
3E000F80
3C000F80
7C000F80
78000F00
78000F00
F8001F00
F8001F00
F8001E00
F8001E00
F8003E00
F8003C00
F8007C00
FC00F800
7C01F800
7F07F000
3FFFE000
1FFFC000
0FFF0000
03F80000
ENDCHAR
STARTCHAR 0070
ENCODING 112
SWIDTH 560 0
DWIDTH 28 0
BBX 29 38 1 -11
BITMAP
00007E00
01F3FF80
01E7FFC0
01EFFFE0
01FE07F0
01FC03F0
03F801F0
03F001F0
03E000F8
03E000F8
03C000F8
07C000F8
078000F8
078000F0
078001F0
0F8001F0
0F8001F0
0F0001E0
0F0003E0
0F8003E0
1F8007C0
1F800F80
1FC01F80
1FE07F00
1FFFFE00
3EFFFC00
3C7FF000
3C1FC000
3C000000
7C000000
7C000000
78000000
78000000
78000000
F8000000
F8000000
F0000000
F0000000
ENDCHAR
STARTCHAR 0071
ENCODING 113
SWIDTH 560 0
DWIDTH 28 0
BBX 27 38 4 -11
BITMAP
001F8000
007FE3E0
01FFF3C0
03FFFBC0
07F07BC0
0FC01FC0
1F800FC0
1F000F80
3E000F80
3E000F80
7C000F80
7C000F80
7C000F00
78000F00
F8000F00
F8000F00
F8001E00
F8001E00
F8003E00
F8003E00
F8007E00
FC00FC00
7C01FC00
7F07FC00
3FFFFC00
1FFF7C00
0FFC7800
03F07800
0000F800
0000F800
0000F000
0000F000
0001F000
0001F000
0001F000
0001E000
0001E000
0003E000
ENDCHAR
STARTCHAR 0072
ENCODING 114
SWIDTH 320 0
DWIDTH 16 0
BBX 18 27 3 0
BITMAP
0003C0
078FC0
079FC0
07BFC0
07FC00
07F000
0FC000
0F8000
0F8000
0F0000
0F0000
1E0000
1E0000
1E0000
1C0000
3C0000
3C0000
3C0000
3C0000
380000
780000
780000
780000
780000
700000
F00000
F00000
ENDCHAR
STARTCHAR 0073
ENCODING 115
SWIDTH 500 0
DWIDTH 25 0
BBX 23 28 3 -1
BITMAP
001FC0
00FFF0
01FFF8
03FFFC
07E07C
0F803E
0F003E
1F003C
1F0000
1F0000
1F8000
1FE000
0FFE00
07FFC0
01FFF0
003FF8
0003F8
0000FC
00007C
F8007C
F80078
F800F8
F801F8
FE03F0
7FFFE0
3FFFC0
1FFF80
07FC00
ENDCHAR
STARTCHAR 0074
ENCODING 116
SWIDTH 260 0
DWIDTH 13 0
BBX 13 34 4 -1
BITMAP
03C0
03C0
03C0
03C0
0780
0780
0780
7FF8
7FF8
7FF8
0F00
0F00
0F00
1F00
1E00
1E00
1E00
1E00
3E00
3C00
3C00
3C00
7C00
7800
7800
7800
7800
F800
F800
F800
FF80
FF80
7F00
3F00
ENDCHAR
STARTCHAR 0075
ENCODING 117
SWIDTH 540 0
DWIDTH 27 0
BBX 25 27 4 -1
BITMAP
0F000380
0F000780
0F000780
0F000780
1F000700
1E000700
1E000F00
1E000F00
1E000F00
3E000E00
3C001E00
3C001E00
3C001E00
3C001E00
7C001C00
78003C00
78003C00
78003C00
F8007800
F800F800
F800F800
F801F800
FC07F800
FFFF7000
7FFEF000
3FF8F000
0FE00000
ENDCHAR
STARTCHAR 0076
ENCODING 118
SWIDTH 500 0
DWIDTH 25 0
BBX 24 26 6 0
BITMAP
F8001F
F8003E
F8003C
F8007C
780078
7800F8
7801F0
7C01E0
7C03E0
7C03C0
3C07C0
3C0780
3C0F00
3C1F00
3C1E00
3C3E00
3E3C00
1E7800
1E7800
1EF000
1FF000
1FE000
1FC000
1FC000
0F8000
0F8000
ENDCHAR
STARTCHAR 0077
ENCODING 119
SWIDTH 720 0
DWIDTH 36 0
BBX 36 26 6 0
BITMAP
F801F801F0
F801F801E0
F803F803E0
F803F803C0
F807F807C0
F807F80780
780F780F80
780F780F00
781E781F00
781E781E00
783C783E00
783C783C00
787C787C00
7878787800
78F878F800
78F078F000
79F039F000
7DE039E000
7FE03FE000
3FC03FC000
3FC03FC000
3F803F8000
3F803F8000
3F003F0000
3F003F0000
3E003E0000
ENDCHAR
STARTCHAR 0078
ENCODING 120
SWIDTH 480 0
DWIDTH 24 0
BBX 28 26 1 0
BITMAP
03E001F0
01E003E0
01F007C0
00F00F80
00F81F00
00F83E00
007C3C00
007C7800
003CF000
003FE000
001FE000
001FC000
000F8000
001F8000
003F8000
007FC000
00FBC000
01F3E000
01E1E000
03C1F000
07C1F000
0F80F800
1F00F800
3E007800
7C007C00
F8003C00
ENDCHAR
STARTCHAR 0079
ENCODING 121
SWIDTH 480 0
DWIDTH 24 0
BBX 29 37 0 -11
BITMAP
03E000F8
03E000F0
03E001F0
01E003E0
01E003C0
01E007C0
01E00780
01E00F80
01F00F00
01F01E00
01F03E00
00F03C00
00F07C00
00F07800
00F0F800
00F0F000
00F1E000
00FBE000
00FBC000
007FC000
007F8000
007F0000
007F0000
007E0000
007E0000
007C0000
007C0000
00780000
00F00000
01F00000
01E00000
03E00000
07C00000
FF800000
FF000000
FE000000
F8000000
ENDCHAR
STARTCHAR 007A
ENCODING 122
SWIDTH 500 0
DWIDTH 25 0
BBX 26 26 2 0
BITMAP
03FFFFC0
03FFFF80
03FFFF80
03FFFF80
00001F00
00003E00
00007C00
0000F800
0001F000
0003E000
0007C000
000F8000
001F0000
003E0000
007C0000
00F80000
01F00000
07C00000
0F800000
1F000000
3E000000
7C000000
FFFFFC00
FFFFF800
FFFFF800
FFFFF800
ENDCHAR
STARTCHAR 007B
ENCODING 123
SWIDTH 340 0
DWIDTH 17 0
BBX 17 47 4 -11
BITMAP
000F80
001F80
003F80
007E00
007800
007000
00F000
00F000
00F000
00E000
01E000
01E000
01E000
01E000
01C000
03C000
03C000
038000
078000
0F0000
1F0000
7E0000
F80000
F00000
FC0000
7C0000
3E0000
1E0000
1E0000
1E0000
1E0000
1E0000
1E0000
1C0000
3C0000
3C0000
3C0000
380000
380000
780000
700000
F00000
F00000
FC0000
FE0000
7E0000
3E0000
ENDCHAR
STARTCHAR 007C
ENCODING 124
SWIDTH 260 0
DWIDTH 13 0
BBX 13 47 3 -11
BITMAP
0038
0038
0038
0070
0070
0070
0070
0060
00E0
00E0
00E0
00E0
01C0
01C0
01C0
01C0
01C0
0380
0380
0380
0380
0300
0700
0700
0700
0700
0E00
0E00
0E00
0E00
0E00
1C00
1C00
1C00
1C00
1800
3800
3800
3800
3800
7000
7000
7000
7000
7000
E000
E000
ENDCHAR
STARTCHAR 007D
ENCODING 125
SWIDTH 340 0
DWIDTH 17 0
BBX 17 47 0 -10
BITMAP
003E00
003F00
003F80
001F80
000780
000780
000700
000F00
000E00
000E00
001E00
001E00
001E00
001C00
003C00
003C00
003C00
003C00
003C00
003C00
003C00
001F00
001F80
000780
000F80
003F00
007C00
007800
00F000
01E000
01E000
01E000
01C000
03C000
03C000
03C000
03C000
038000
078000
078000
078000
070000
0F0000
3F0000
FE0000
FC0000
F00000
ENDCHAR
STARTCHAR 007E
ENCODING 126
SWIDTH 580 0
DWIDTH 29 0
BBX 22 9 7 13
BITMAP
0F8000
3FE000
3FF000
71F80C
607E1C
E03F7C
001FF8
000FF0
0003C0
ENDCHAR
STARTCHAR 00A0
ENCODING 160
SWIDTH 280 0
DWIDTH 14 0
BBX 0 0 0 0
BITMAP
ENDCHAR
STARTCHAR 00A1
ENCODING 161
SWIDTH 340 0
DWIDTH 17 0
BBX 12 36 4 -10
BITMAP
01F0
01E0
01E0
01E0
01E0
0000
0000
0000
0180
0180
0380
0380
0380
0700
0700
0700
0F00
0F00
0F00
1F00
1E00
1E00
1E00
1E00
3E00
3C00
3C00
3C00
7C00
7800
7800
7800
7800
F800
F000
F000
ENDCHAR
STARTCHAR 00A2
ENCODING 162
SWIDTH 560 0
DWIDTH 28 0
BBX 25 37 5 -6
BITMAP
00018000
00018000
00030000
00030000
00030000
003FF800
00FFFC00
03FFFE00
07FE7F00
0FC61F00
1F860F80
1F060F80
3E0C0F80
3E0C0F80
7C0C0000
7C0C0000
7C1C0000
78180000
F8180000
F8180000
F8180000
F8300000
F8303C00
F8307C00
F8307C00
F830F800
7C61F800
7F67F000
3FFFE000
1FFFC000
0FFF0000
03FC0000
00C00000
00C00000
00C00000
01800000
01800000
ENDCHAR
STARTCHAR 00A3
ENCODING 163
SWIDTH 560 0
DWIDTH 28 0
BBX 30 37 2 -1
BITMAP
0000FF00
0003FFC0
000FFFF0
001FFFF0
007F03F8
00FC00F8
00F8007C
01F0007C
01E0007C
03E00078
03E00078
03E00000
03E00000
03E00000
03E00000
01F00000
01F00000
1FFFF000
1FFFF000
1FFFF000
00780000
00780000
00780000
00780000
00780000
00F00000
00E00000
01E00000
03C00000
07800000
0F000000
1C7C0100
3BFFFF00
FFFFFF80
7FFFFF80
381FFF00
0001F800
ENDCHAR
STARTCHAR 00A4
ENCODING 164
SWIDTH 560 0
DWIDTH 28 0
BBX 24 20 6 8
BITMAP
06000C
0F3F1E
1FFFFF
0FFFFE
0FFFF8
07C1F0
0F00F8
1E0078
1E0078
3C0078
3C0078
3C00F0
3C00F0
3E01E0
3F07C0
3FFFE0
7FFFF0
FFFFF0
71F8E0
6000C0
ENDCHAR
STARTCHAR 00A5
ENCODING 165
SWIDTH 560 0
DWIDTH 28 0
BBX 30 36 5 0
BITMAP
1E00003C
0F000078
0F0000F0
0F0001E0
078003E0
078003C0
07C00780
03C00F00
03C01E00
03E01E00
01E03C00
01E07800
00F0F000
00F1F000
00F1E000
007BC000
007F8000
007F0000
3FFFFF00
3FFFFE00
7FFFFE00
003C0000
003C0000
007C0000
007C0000
FFFFFC00
FFFFFC00
FFFFFC00
00F80000
00F80000
00F00000
00F00000
00F00000
01F00000
01F00000
01E00000
ENDCHAR
STARTCHAR 00A6
ENCODING 166
SWIDTH 260 0
DWIDTH 13 0
BBX 13 47 3 -11
BITMAP
0038
0038
0038
0070
0070
0070
0070
0060
00E0
00E0
00E0
00E0
01C0
01C0
01C0
01C0
01C0
0380
0380
0380
0000
0000
0000
0000
0000
0000
0000
0E00
0E00
0E00
0E00
1C00
1C00
1C00
1C00
1800
3800
3800
3800
3800
7000
7000
7000
7000
7000
E000
E000
ENDCHAR
STARTCHAR 00A7
ENCODING 167
SWIDTH 560 0
DWIDTH 28 0
BBX 28 47 3 -11
BITMAP
0001FC00
0007FF00
000FFFC0
003FFFE0
003E07E0
007C03F0
00F801F0
00F801F0
00F801E0
00F801E0
00F80000
00FE0000
007F0000
00FFC000
01FFE000
07CFF000
0F83FC00
0F01FE00
1E00FF00
3E003F80
3E001F80
3E000FC0
3E000FC0
3F0007C0
3F800780
1FC00780
0FE00F80
07F00F00
03F81E00
01FC7E00
00FFF800
003FE000
001F8000
000FC000
0007C000
0003E000
F803E000
F803E000
F803C000
F803C000
F807C000
F80F8000
FE1F8000
7FFF0000
3FFE0000
1FFC0000
07E00000
ENDCHAR
STARTCHAR 00A8
ENCODING 168
SWIDTH 340 0
DWIDTH 17 0
BBX 14 5 8 31
BITMAP
7C7C
7C7C
7C7C
FCFC
F8F8
ENDCHAR
STARTCHAR 00A9
ENCODING 169
SWIDTH 740 0
DWIDTH 37 0
BBX 38 38 3 -1
BITMAP
00007FF800
0001FFFE00
0007FFFF00
001FE03FC0
003F0007E0
00FC0003E0
01F00001F0
03E01F00F8
03C07FC078
0781FFE03C
0F03FFF03C
1E0780F03C
1E0F00701C
3C0E00701C
381E00781C
783C00001C
783C00001C
703800001C
707800001C
F07800001C
F07800003C
F078000038
F07800E078
F07801E078
F07801C0F0
F07803C0F0
F03C0781E0
703E0F83C0
781FFF07C0
781FFC0F80
3C07F81F00
3E00003E00
1F0000FC00
0FC003F000
07FC7FE000
03FFFF8000
00FFFE0000
001FE00000
ENDCHAR
STARTCHAR 00AA
ENCODING 170
SWIDTH 380 0
DWIDTH 19 0
BBX 17 23 5 15
BITMAP
001000
01FF00
03FF80
078780
060380
000380
000380
000F00
03FF00
0FFF00
1F0700
3C0600
380E00
380E00
381E00
3FFE80
1FEF00
0F8700
000000
000000
7FFE00
7FFE00
FFFE00
ENDCHAR
STARTCHAR 00AB
ENCODING 171
SWIDTH 440 0
DWIDTH 22 0
BBX 19 16 5 6
BITMAP
008020
038060
0781E0
1F83E0
3E0F80
7C1F00
F01E00
E03800
E03C00
F03E00
F83F00
7C0F80
3E0780
1C0380
0C0180
040100
ENDCHAR
STARTCHAR 00AC
ENCODING 172
SWIDTH 580 0
DWIDTH 29 0
BBX 26 14 5 5
BITMAP
7FFFFFC0
FFFFFFC0
FFFFFF80
FFFFFF80
00000380
00000780
00000780
00000700
00000700
00000F00
00000F00
00000E00
00000E00
00000E00
ENDCHAR
STARTCHAR 00AD
ENCODING 173
SWIDTH 340 0
DWIDTH 17 0
BBX 13 4 5 12
BITMAP
7FF8
7FF0
FFF0
FFF0
ENDCHAR
STARTCHAR 00AE
ENCODING 174
SWIDTH 740 0
DWIDTH 37 0
BBX 38 38 3 -1
BITMAP
00007FF800
0003FFFE00
000FFFFF00
001FE01FC0
003F0007E0
00FC0003E0
01F00001F0
03E00000F8
07C7FFE078
0787FFF03C
0F07FFF83C
1E0F00F83C
1E0F00781C
3C0F00781C
380E00781C
780E00F01C
781E00F01C
701E07E01C
F01FFFC01C
F01FFF801C
F01FFFC03C
F03C03E038
F03C01E038
F03801E078
F03801E070
F03801E0F0
F07801E1E0
707801E3C0
787001C3C0
7C7001E780
3C00001F00
3E00003E00
1F8000FC00
0FE003F800
07FE3FE000
03FFFF8000
00FFFE0000
001FF00000
ENDCHAR
STARTCHAR 00AF
ENCODING 175
SWIDTH 340 0
DWIDTH 17 0
BBX 14 3 8 31
BITMAP
7FFC
FFFC
FFFC
ENDCHAR
STARTCHAR 00B0
ENCODING 176
SWIDTH 600 0
DWIDTH 30 0
BBX 14 15 15 19
BITMAP
0FC0
1FF0
3870
7038
601C
E00C
C00C
C00C
C00C
E00C
601C
7038
3C70
1FE0
07C0
ENDCHAR
STARTCHAR 00B1
ENCODING 177
SWIDTH 580 0
DWIDTH 29 0
BBX 28 32 3 0
BITMAP
00007000
0000F000
0000F000
0000E000
0000E000
0001E000
0001E000
0001E000
0001C000
0001C000
0FFFFFF0
0FFFFFF0
0FFFFFF0
1FFFFFF0
00078000
00078000
00078000
00070000
00070000
000F0000
000F0000
000E0000
000E0000
000E0000
00000000
00000000
00000000
00000000
FFFFFF00
FFFFFF00
FFFFFF00
FFFFFF00
ENDCHAR
STARTCHAR 00B2
ENCODING 178
SWIDTH 360 0
DWIDTH 18 0
BBX 17 22 6 19
BITMAP
007800
03FE00
07FF00
0F8780
0E0380
1E0380
1C0380
000380
000780
000F00
001E00
007C00
00F800
03E000
0F8000
1F0000
3C0000
780000
700000
FFFC00
FFFC00
FFFC00
ENDCHAR
STARTCHAR 00B3
ENCODING 179
SWIDTH 360 0
DWIDTH 18 0
BBX 16 23 7 18
BITMAP
00F0
03FE
0FFF
0F0F
1C07
3C07
3807
000F
000E
01FC
01F8
01FC
001E
000E
000E
E00E
E00E
E01E
E01C
F07C
7FF8
7FE0
1F80
ENDCHAR
STARTCHAR 00B4
ENCODING 180
SWIDTH 340 0
DWIDTH 17 0
BBX 12 8 11 29
BITMAP
03F0
03E0
07C0
0F00
1E00
3C00
7800
F000
ENDCHAR
STARTCHAR 00B5
ENCODING 181
SWIDTH 560 0
DWIDTH 28 0
BBX 30 36 0 -10
BITMAP
00F8003C
00F8007C
00F0007C
00F00078
01F00078
01F000F8
01E000F8
01E000F0
03E000F0
03E001F0
03C001F0
03C001E0
07C001E0
07C003E0
078003E0
078003C0
0F8003C0
0F8007C0
0F8007C0
0F800F80
1F801F80
1FC03F80
1FF0F7C0
1FFFF7C0
3EFFC7C0
3E7F83C0
3C000000
3C000000
7C000000
7C000000
78000000
78000000
F8000000
F8000000
F0000000
F0000000
ENDCHAR
STARTCHAR 00B6
ENCODING 182
SWIDTH 540 0
DWIDTH 27 0
BBX 27 45 7 -9
BITMAP
001FFFE0
00FFFFE0
01FFFFC0
03FF0E00
07FF0E00
0FFF0E00
1FFE1E00
3FFE1C00
3FFE1C00
7FFE1C00
7FFE1C00
7FFC3C00
7FFC3800
FFFC3800
FFFC3800
FFF83800
7FF87800
7FF87000
7FF87000
3FF87000
3FF07000
0FF0E000
07F0E000
0070E000
00F0E000
00E1E000
00E1C000
00E1C000
00E1C000
01C1C000
01C3C000
01C38000
01C38000
03C38000
03838000
03878000
03870000
03870000
07870000
070F0000
070E0000
070E0000
070E0000
0F0E0000
0E1E0000
ENDCHAR
STARTCHAR 00B7
ENCODING 183
SWIDTH 280 0
DWIDTH 14 0
BBX 6 5 8 10
BITMAP
7C
7C
7C
FC
F8
ENDCHAR
STARTCHAR 00B8
ENCODING 184
SWIDTH 340 0
DWIDTH 17 0
BBX 13 11 0 -11
BITMAP
00C0
0180
0180
03F0
03F8
0078
0078
0070
F1F0
FFE0
1F80
ENDCHAR
STARTCHAR 00B9
ENCODING 185
SWIDTH 260 0
DWIDTH 13 0
BBX 9 21 9 19
BITMAP
0180
0380
0780
3F00
FF00
FF00
0700
0F00
0E00
0E00
0E00
0E00
1E00
1C00
1C00
1C00
3C00
3800
3800
3800
3800
ENDCHAR
STARTCHAR 00BA
ENCODING 186
SWIDTH 360 0
DWIDTH 18 0
BBX 17 23 6 15
BITMAP
003000
03FE00
07FF00
0F0F00
1E0780
1C0380
380380
380380
700380
700380
700700
700700
700F00
700E00
781C00
3FF800
1FF000
0FC000
000000
000000
7FFC00
FFFC00
FFF800
ENDCHAR
STARTCHAR 00BB
ENCODING 187
SWIDTH 440 0
DWIDTH 22 0
BBX 20 16 3 6
BITMAP
080200
0C0700
1E0780
1F07C0
0F83E0
07C1F0
03C0F0
01C070
03C0F0
07C1E0
1F87C0
3E0F80
7C1F00
701C00
601800
802000
ENDCHAR
STARTCHAR 00BC
ENCODING 188
SWIDTH 900 0
DWIDTH 45 0
BBX 35 37 10 -1
BITMAP
0180000700
0380000600
0780000E00
1F00001C00
FF00003800
FF00007000
070000E000
0F0000E000
0E0001C000
0E00038000
0E00070000
0E000E0000
1C001C0000
1C001C0000
1C00380000
1C007001C0
3C00E003C0
3801C007C0
3803800FC0
3803801FC0
3807001F80
000E003B80
001C007380
003800E780
007001C700
0070038700
00E0070700
01C00E0700
03801FFFE0
07001FFFE0
0E001FFFC0
0E00000E00
1C00000E00
3800001E00
7000001C00
E000001C00
C000000000
ENDCHAR
STARTCHAR 00BD
ENCODING 189
SWIDTH 920 0
DWIDTH 46 0
BBX 38 37 9 -1
BITMAP
00C0000380
01C0000700
03C0000700
0F80000E00
7F80001C00
7F80003800
0380007000
078000E000
070000E000
070001C000
0700038000
0700070000
0E000E0000
0E001C0000
0E001C03C0
0E00381FF0
1E00707FF8
1C00E0783C
1C01C0F01C
1C0181E01C
1C0381C01C
000700001C
000E00003C
001C000078
00380000F0
00300003E0
0070000FC0
00E0003F00
01C000FC00
038001F000
070003C000
0600078000
0E00070000
1C000FFFE0
38000FFFE0
70000FFFE0
E000000000
ENDCHAR
STARTCHAR 00BE
ENCODING 190
SWIDTH 940 0
DWIDTH 47 0
BBX 41 37 6 0
BITMAP
01FE00000E00
07FF00001C00
0F8F80003800
1E0380007000
1C038000E000
38038001C000
00078001C000
000F00038000
01FE00070000
01FC000E0000
01FE001C0000
000F00380000
000700380000
000700700000
E00700E00000
E00F01C00700
E01E03800F00
F03C07801F00
7FF807003F00
3FF00E007F00
0F801C00FE00
00003801EE00
00007003CE00
0000F0079E00
0001E00F1C00
0001C00E1C00
0003801C1C00
000700381C00
000E007FFF80
001E007FFF80
003C007FFF00
003800003800
007000003800
00E000007800
01C000007000
03C000007000
078000000000
ENDCHAR
STARTCHAR 00BF
ENCODING 191
SWIDTH 620 0
DWIDTH 31 0
BBX 23 36 4 -10
BITMAP
0001F0
0001F0
0001F0
0001E0
0001E0
000000
000000
000000
000000
000000
0007C0
0007C0
000780
000F80
000F80
001F00
003E00
007C00
01F800
03F000
07E000
0F8000
1F0000
3E0000
7C0000
7C0000
78003E
F8003C
F8007C
F8007C
FC00F8
7E01F8
7FDFF0
3FFFE0
1FFF80
0FFE00
ENDCHAR
STARTCHAR 00C0
ENCODING 192
SWIDTH 660 0
DWIDTH 33 0
BBX 32 46 1 0
BITMAP
00003E00
00001F00
00000F00
00000780
00000780
000003C0
000001C0
000000E0
00000000
00000000
00000FE0
00001FE0
00001FE0
00003FE0
00003FE0
00007BE0
00007BE0
0000F3F0
0001F1F0
0001E1F0
0003E1F0
0003C1F0
000781F0
000781F0
000F01F8
001F00F8
001E00F8
003E00F8
003C00F8
007800F8
00F800F8
00FFFFFC
01FFFFFC
01FFFFFC
03FFFFFC
03C0007C
07C0007C
0F80007C
0F80007E
1F00003E
1F00003E
3E00003E
3C00003E
7C00003E
F800003E
F800003F
ENDCHAR
STARTCHAR 00C1
ENCODING 193
SWIDTH 660 0
DWIDTH 33 0
BBX 32 46 1 0
BITMAP
0000003F
0000003E
0000007C
000000F0
000001E0
000003C0
00000780
00000F00
00000000
00000000
00000FE0
00001FE0
00001FE0
00003FE0
00003FE0
00007BE0
00007BE0
0000F3F0
0001F1F0
0001E1F0
0003E1F0
0003C1F0
000781F0
000781F0
000F01F8
001F00F8
001E00F8
003E00F8
003C00F8
007800F8
00F800F8
00FFFFFC
01FFFFFC
01FFFFFC
03FFFFFC
03C0007C
07C0007C
0F80007C
0F80007E
1F00003E
1F00003E
3E00003E
3C00003E
7C00003E
F800003E
F800003F
ENDCHAR
STARTCHAR 00C2
ENCODING 194
SWIDTH 660 0
DWIDTH 33 0
BBX 32 47 1 0
BITMAP
000001F0
000001F8
000003F8
000007B8
00000F3C
00001E1C
00003C1E
0000780E
00000000
00000000
00000000
00000FE0
00001FE0
00001FE0
00003FE0
00003FE0
00007BE0
00007BE0
0000F3F0
0001F1F0
0001E1F0
0003E1F0
0003C1F0
000781F0
000781F0
000F01F8
001F00F8
001E00F8
003E00F8
003C00F8
007800F8
00F800F8
00FFFFFC
01FFFFFC
01FFFFFC
03FFFFFC
03C0007C
07C0007C
0F80007C
0F80007E
1F00003E
1F00003E
3E00003E
3C00003E
7C00003E
F800003E
F800003F
ENDCHAR
STARTCHAR 00C3
ENCODING 195
SWIDTH 660 0
DWIDTH 33 0
BBX 32 46 1 0
BITMAP
00003F07
00007FEF
00007FFE
0000E3FC
0000C078
00000000
00000000
00000000
00000000
00000000
00000FE0
00001FE0
00001FE0
00003FE0
00003FE0
00007BE0
00007BE0
0000F3F0
0001F1F0
0001E1F0
0003E1F0
0003C1F0
000781F0
000781F0
000F01F8
001F00F8
001E00F8
003E00F8
003C00F8
007800F8
00F800F8
00FFFFFC
01FFFFFC
01FFFFFC
03FFFFFC
03C0007C
07C0007C
0F80007C
0F80007E
1F00003E
1F00003E
3E00003E
3C00003E
7C00003E
F800003E
F800003F
ENDCHAR
STARTCHAR 00C4
ENCODING 196
SWIDTH 660 0
DWIDTH 33 0
BBX 32 45 1 0
BITMAP
00001F1F
00001F1F
00001F1F
00003F3F
00003E3E
00000000
00000000
00000000
00000000
00000FE0
00001FE0
00001FE0
00003FE0
00003FE0
00007BE0
00007BE0
0000F3F0
0001F1F0
0001E1F0
0003E1F0
0003C1F0
000781F0
000781F0
000F01F8
001F00F8
001E00F8
003E00F8
003C00F8
007800F8
00F800F8
00FFFFFC
01FFFFFC
01FFFFFC
03FFFFFC
03C0007C
07C0007C
0F80007C
0F80007E
1F00003E
1F00003E
3E00003E
3C00003E
7C00003E
F800003E
F800003F
ENDCHAR
STARTCHAR 00C5
ENCODING 197
SWIDTH 660 0
DWIDTH 33 0
BBX 32 49 1 0
BITMAP
000001F0
000007F8
00000FFC
00000F3C
00001E1C
00001C1C
00001C3C
00001F78
00001FF0
00000FE0
000007C0
00000000
00000000
00000FE0
00001FE0
00001FE0
00003FE0
00003FE0
00007BE0
00007BE0
0000F3F0
0001F1F0
0001E1F0
0003E1F0
0003C1F0
000781F0
000781F0
000F01F8
001F00F8
001E00F8
003E00F8
003C00F8
007800F8
00F800F8
00FFFFFC
01FFFFFC
01FFFFFC
03FFFFFC
03C0007C
07C0007C
0F80007C
0F80007E
1F00003E
1F00003E
3E00003E
3C00003E
7C00003E
F800003E
F800003F
ENDCHAR
STARTCHAR 00C6
ENCODING 198
SWIDTH 1000 0
DWIDTH 50 0
BBX 53 36 1 0
BITMAP
000003FFFFFFF8
000007FFFFFFF8
000007FFFFFFF8
00000FFFFFFFF8
00001F07C00000
00001E07C00000
00003E07800000
00003C0F800000
00007C0F800000
0000F80F800000
0000F00F800000
0001F00F000000
0003E01F000000
0003C01F000000
0007C01F000000
0007801F000000
000F801FFFFF80
001F003FFFFF80
001E003FFFFF00
003E003FFFFF00
007C003C000000
007FFFFC000000
00FFFFFC000000
01FFFFFC000000
01FFFFFC000000
03E00078000000
03C000F8000000
07C000F8000000
0F8000F8000000
0F8000F8000000
1F0000F0000000
3E0001F0000000
3E0001FFFFFE00
7C0001FFFFFE00
7C0001FFFFFE00
F80001FFFFFE00
ENDCHAR
STARTCHAR 00C7
ENCODING 199
SWIDTH 720 0
DWIDTH 36 0
BBX 33 47 5 -10
BITMAP
0001FFC000
000FFFF000
001FFFF800
007FFFFC00
00FE00FE00
01F8003E00
03F0001F00
07E0001F00
07C0000F00
0F80000F80
0F00000F80
1F00000000
1E00000000
3E00000000
3C00000000
7C00000000
7C00000000
7800000000
7800000000
F800000000
F800000000
F800000000
F800000000
F800003E00
F800007C00
F800007C00
F80000F800
F80000F800
7C0001F000
7C0003E000
7E0007E000
3F001FC000
3FC07F8000
1FFFFF0000
0FFFFC0000
03FFF00000
00FF800000
0030000000
0030000000
007E000000
007F000000
000F000000
000F000000
080E000000
0E3E000000
1FFC000000
03F0000000
ENDCHAR
STARTCHAR 00C8
ENCODING 200
SWIDTH 660 0
DWIDTH 33 0
BBX 33 46 4 0
BITMAP
0001F00000
0000F80000
0000780000
00003C0000
00003C0000
00001E0000
00000E0000
0000070000
0000000000
0000000000
00FFFFFF80
01FFFFFF80
01FFFFFF80
01FFFFFF00
01F0000000
01E0000000
03E0000000
03E0000000
03E0000000
03C0000000
03C0000000
07C0000000
07C0000000
07C0000000
0780000000
0F80000000
0FFFFFF800
0FFFFFF000
0FFFFFF000
0FFFFFF000
1F00000000
1F00000000
1F00000000
1E00000000
3E00000000
3E00000000
3E00000000
3E00000000
3C00000000
7C00000000
7C00000000
7C00000000
7FFFFFE000
7FFFFFE000
FFFFFFC000
FFFFFFC000
ENDCHAR
STARTCHAR 00C9
ENCODING 201
SWIDTH 660 0
DWIDTH 33 0
BBX 33 46 4 0
BITMAP
000001F800
000001F000
000003E000
0000078000
00000F0000
00001E0000
00003C0000
0000780000
0000000000
0000000000
00FFFFFF80
01FFFFFF80
01FFFFFF80
01FFFFFF00
01F0000000
01E0000000
03E0000000
03E0000000
03E0000000
03C0000000
03C0000000
07C0000000
07C0000000
07C0000000
0780000000
0F80000000
0FFFFFF800
0FFFFFF000
0FFFFFF000
0FFFFFF000
1F00000000
1F00000000
1F00000000
1E00000000
3E00000000
3E00000000
3E00000000
3E00000000
3C00000000
7C00000000
7C00000000
7C00000000
7FFFFFE000
7FFFFFE000
FFFFFFC000
FFFFFFC000
ENDCHAR
STARTCHAR 00CA
ENCODING 202
SWIDTH 660 0
DWIDTH 33 0
BBX 33 47 4 0
BITMAP
00000F8000
00000FC000
00001FC000
00003DC000
000079E000
0000F0E000
0001E0F000
0003C07000
0000000000
0000000000
0000000000
00FFFFFF80
01FFFFFF80
01FFFFFF80
01FFFFFF00
01F0000000
01E0000000
03E0000000
03E0000000
03E0000000
03C0000000
03C0000000
07C0000000
07C0000000
07C0000000
0780000000
0F80000000
0FFFFFF800
0FFFFFF000
0FFFFFF000
0FFFFFF000
1F00000000
1F00000000
1F00000000
1E00000000
3E00000000
3E00000000
3E00000000
3E00000000
3C00000000
7C00000000
7C00000000
7C00000000
7FFFFFE000
7FFFFFE000
FFFFFFC000
FFFFFFC000
ENDCHAR
STARTCHAR 00CB
ENCODING 203
SWIDTH 660 0
DWIDTH 33 0
BBX 33 45 4 0
BITMAP
0000F8F800
0000F8F800
0000F8F800
0001F9F800
0001F1F000
0000000000
0000000000
0000000000
0000000000
00FFFFFF80
01FFFFFF80
01FFFFFF80
01FFFFFF00
01F0000000
01E0000000
03E0000000
03E0000000
03E0000000
03C0000000
03C0000000
07C0000000
07C0000000
07C0000000
0780000000
0F80000000
0FFFFFF800
0FFFFFF000
0FFFFFF000
0FFFFFF000
1F00000000
1F00000000
1F00000000
1E00000000
3E00000000
3E00000000
3E00000000
3E00000000
3C00000000
7C00000000
7C00000000
7C00000000
7FFFFFE000
7FFFFFE000
FFFFFFC000
FFFFFFC000
ENDCHAR
STARTCHAR 00CC
ENCODING 204
SWIDTH 280 0
DWIDTH 14 0
BBX 14 46 5 0
BITMAP
07C0
03E0
01E0
00F0
00F0
0078
0038
001C
0000
0000
00F0
01F0
01F0
01F0
01E0
01E0
03E0
03E0
03E0
03C0
03C0
07C0
07C0
07C0
0780
0F80
0F80
0F80
0F00
0F00
1F00
1F00
1F00
1E00
3E00
3E00
3E00
3E00
3C00
7C00
7C00
7C00
7800
7800
F800
F800
ENDCHAR
STARTCHAR 00CD
ENCODING 205
SWIDTH 280 0
DWIDTH 14 0
BBX 18 46 5 0
BITMAP
000FC0
000F80
001F00
003C00
007800
00F000
01E000
03C000
000000
000000
00F000
01F000
01F000
01F000
01E000
01E000
03E000
03E000
03E000
03C000
03C000
07C000
07C000
07C000
078000
0F8000
0F8000
0F8000
0F0000
0F0000
1F0000
1F0000
1F0000
1E0000
3E0000
3E0000
3E0000
3E0000
3C0000
7C0000
7C0000
7C0000
780000
780000
F80000
F80000
ENDCHAR
STARTCHAR 00CE
ENCODING 206
SWIDTH 280 0
DWIDTH 14 0
BBX 17 47 5 0
BITMAP
007C00
007E00
00FE00
01EE00
03CF00
078700
0F0780
1E0380
000000
000000
000000
00F000
01F000
01F000
01F000
01E000
01E000
03E000
03E000
03E000
03C000
03C000
07C000
07C000
07C000
078000
0F8000
0F8000
0F8000
0F0000
0F0000
1F0000
1F0000
1F0000
1E0000
3E0000
3E0000
3E0000
3E0000
3C0000
7C0000
7C0000
7C0000
780000
780000
F80000
F80000
ENDCHAR
STARTCHAR 00CF
ENCODING 207
SWIDTH 280 0
DWIDTH 14 0
BBX 18 45 5 0
BITMAP
07C7C0
07C7C0
07C7C0
0FCFC0
0F8F80
000000
000000
000000
000000
00F000
01F000
01F000
01F000
01E000
01E000
03E000
03E000
03E000
03C000
03C000
07C000
07C000
07C000
078000
0F8000
0F8000
0F8000
0F0000
0F0000
1F0000
1F0000
1F0000
1E0000
3E0000
3E0000
3E0000
3E0000
3C0000
7C0000
7C0000
7C0000
780000
780000
F80000
F80000
ENDCHAR
STARTCHAR 00D0
ENCODING 208
SWIDTH 720 0
DWIDTH 36 0
BBX 33 36 5 0
BITMAP
01FFFF8000
01FFFFE000
01FFFFF800
03FFFFFC00
03E001FE00
03E0007E00
03E0003F00
03C0001F00
07C0001F00
07C0000F00
07C0000F80
0780000F80
0780000F80
0F80000F80
0F80000F80
0F80000F00
FFFF800F00
FFFF001F00
FFFF001F00
1F00001F00
1E00001E00
1E00003E00
3E00003E00
3E00003C00
3E00007C00
3C0000F800
7C0000F800
7C0001F000
7C0003F000
7C0007E000
78001FC000
F8007F8000
FFFFFF0000
FFFFFC0000
FFFFF00000
FFFFC00000
ENDCHAR
STARTCHAR 00D1
ENCODING 209
SWIDTH 720 0
DWIDTH 36 0
BBX 36 46 4 0
BITMAP
00007E0E00
0000FFDE00
0000FFFC00
0001C7F800
000180F000
0000000000
0000000000
0000000000
0000000000
0000000000
00F80000F0
01FC0001F0
01FC0001F0
01FC0001E0
01FE0001E0
01FE0001E0
03FF0003E0
03FF0003E0
03CF8003C0
03CF8003C0
07CF8003C0
07C7C007C0
0787C007C0
0783E00780
0783E00780
0F81F00F80
0F81F00F80
0F01F00F00
0F00F80F00
0F00F80F00
1F007C1F00
1F007C1F00
1E003C1E00
1E003E1E00
3E003E1E00
3E001F3E00
3C001F3E00
3C000FBC00
3C000FBC00
7C000FFC00
7C0007FC00
780007F800
780003F800
780003F800
F80001F800
F80001F800
ENDCHAR
STARTCHAR 00D2
ENCODING 210
SWIDTH 780 0
DWIDTH 39 0
BBX 36 47 5 -1
BITMAP
00007C0000
00003E0000
00001E0000
00000F0000
00000F0000
0000078000
0000038000
000001C000
0000000000
0000000000
0001FFF000
0007FFFC00
001FFFFE00
003FFFFF00
00FF007F80
01FC001FC0
03F0000FC0
07E00007E0
07C00003E0
0F800003E0
1F000001E0
1F000001F0
3E000001F0
3E000001F0
7C000001F0
7C000001F0
78000001E0
78000003E0
F8000003E0
F8000003E0
F8000003E0
F8000007C0
F8000007C0
F8000007C0
F800000F80
F800000F80
F800001F00
7C00003F00
7C00007E00
7E0000FC00
3F0001F800
3F8007F000
1FF03FE000
0FFFFFC000
07FFFF0000
01FFFC0000
003FE00000
ENDCHAR
STARTCHAR 00D3
ENCODING 211
SWIDTH 780 0
DWIDTH 39 0
BBX 36 47 5 -1
BITMAP
000000FC00
000000F800
000001F000
000003C000
0000078000
00000F0000
00001E0000
00003C0000
0000000000
0000000000
0001FFF000
0007FFFC00
001FFFFE00
003FFFFF00
00FF007F80
01FC001FC0
03F0000FC0
07E00007E0
07C00003E0
0F800003E0
1F000001E0
1F000001F0
3E000001F0
3E000001F0
7C000001F0
7C000001F0
78000001E0
78000003E0
F8000003E0
F8000003E0
F8000003E0
F8000007C0
F8000007C0
F8000007C0
F800000F80
F800000F80
F800001F00
7C00003F00
7C00007E00
7E0000FC00
3F0001F800
3F8007F000
1FF03FE000
0FFFFFC000
07FFFF0000
01FFFC0000
003FE00000
ENDCHAR
STARTCHAR 00D4
ENCODING 212
SWIDTH 780 0
DWIDTH 39 0
BBX 36 48 5 -1
BITMAP
000007C000
000007E000
00000FE000
00001EE000
00003CF000
0000787000
0000F07800
0001E03800
0000000000
0000000000
0000000000
0001FFF000
0007FFFC00
001FFFFE00
003FFFFF00
00FF007F80
01FC001FC0
03F0000FC0
07E00007E0
07C00003E0
0F800003E0
1F000001E0
1F000001F0
3E000001F0
3E000001F0
7C000001F0
7C000001F0
78000001E0
78000003E0
F8000003E0
F8000003E0
F8000003E0
F8000007C0
F8000007C0
F8000007C0
F800000F80
F800000F80
F800001F00
7C00003F00
7C00007E00
7E0000FC00
3F0001F800
3F8007F000
1FF03FE000
0FFFFFC000
07FFFF0000
01FFFC0000
003FE00000
ENDCHAR
STARTCHAR 00D5
ENCODING 213
SWIDTH 780 0
DWIDTH 39 0
BBX 36 47 5 -1
BITMAP
00007E0E00
0000FFDE00
0000FFFC00
0001C7F800
000180F000
0000000000
0000000000
0000000000
0000000000
0000000000
0001FFF000
0007FFFC00
001FFFFE00
003FFFFF00
00FF007F80
01FC001FC0
03F0000FC0
07E00007E0
07C00003E0
0F800003E0
1F000001E0
1F000001F0
3E000001F0
3E000001F0
7C000001F0
7C000001F0
78000001E0
78000003E0
F8000003E0
F8000003E0
F8000003E0
F8000007C0
F8000007C0
F8000007C0
F800000F80
F800000F80
F800001F00
7C00003F00
7C00007E00
7E0000FC00
3F0001F800
3F8007F000
1FF03FE000
0FFFFFC000
07FFFF0000
01FFFC0000
003FE00000
ENDCHAR
STARTCHAR 00D6
ENCODING 214
SWIDTH 780 0
DWIDTH 39 0
BBX 36 46 5 -1
BITMAP
00007C7C00
00007C7C00
00007C7C00
0000FCFC00
0000F8F800
0000000000
0000000000
0000000000
0000000000
0001FFF000
0007FFFC00
001FFFFE00
003FFFFF00
00FF007F80
01FC001FC0
03F0000FC0
07E00007E0
07C00003E0
0F800003E0
1F000001E0
1F000001F0
3E000001F0
3E000001F0
7C000001F0
7C000001F0
78000001E0
78000003E0
F8000003E0
F8000003E0
F8000003E0
F8000007C0
F8000007C0
F8000007C0
F800000F80
F800000F80
F800001F00
7C00003F00
7C00007E00
7E0000FC00
3F0001F800
3F8007F000
1FF03FE000
0FFFFFC000
07FFFF0000
01FFFC0000
003FE00000
ENDCHAR
STARTCHAR 00D7
ENCODING 215
SWIDTH 580 0
DWIDTH 29 0
BBX 22 19 6 2
BITMAP
040018
0E003C
1F007C
0F80F8
07C1F0
07C7C0
03EF80
01FF00
00FE00
00FC00
01FC00
03FE00
07DF00
0F8F80
3E07C0
7C07C0
F803E0
F001C0
600080
ENDCHAR
STARTCHAR 00D8
ENCODING 216
SWIDTH 780 0
DWIDTH 39 0
BBX 40 37 3 0
BITMAP
00007FF802
0001FFFF07
0007FFFF8F
001FFFFFDE
003FC00FF8
007F0007F0
00FC0003F0
01F80003F8
01F00007F8
03E0000FF8
07C0001E78
07C0003C7C
0F8000F07C
0F8001E07C
1F0003C07C
1F00078078
1E000F0078
1E001E0078
3E003C0078
3E007800F8
3E01E000F0
3E03C000F0
3E078001F0
3E0F0001E0
3E1E0003E0
3E3C0003C0
3E780007C0
3FE0000F80
1FC0001F80
1F80003F00
0FC0007E00
1FE001FC00
3FFC0FF800
7BFFFFF000
F1FFFFC000
E07FFF0000
C00FF80000
ENDCHAR
STARTCHAR 00D9
ENCODING 217
SWIDTH 720 0
DWIDTH 36 0
BBX 34 47 6 -1
BITMAP
0001F00000
0000F80000
0000780000
00003C0000
00003C0000
00001E0000
00000E0000
0000070000
0000000000
0000000000
03C00007C0
07C0000780
07C0000780
07C0000F80
0780000F80
0780000F80
0F80000F00
0F80001F00
0F80001F00
0F00001F00
0F00001F00
1F00001E00
1F00003E00
1F00003E00
1E00003E00
3E00003C00
3E00003C00
3E00007C00
3E00007C00
3C00007C00
7C00007800
7C00007800
7C0000F800
780000F800
780000F800
F80000F000
F80001F000
F80001F000
F80003E000
F80003E000
FC000FC000
7E001F8000
7F80FF0000
3FFFFE0000
1FFFFC0000
07FFF00000
00FF800000
ENDCHAR
STARTCHAR 00DA
ENCODING 218
SWIDTH 720 0
DWIDTH 36 0
BBX 34 47 6 -1
BITMAP
000003F000
000003E000
000007C000
00000F0000
00001E0000
00003C0000
0000780000
0000F00000
0000000000
0000000000
03C00007C0
07C0000780
07C0000780
07C0000F80
0780000F80
0780000F80
0F80000F00
0F80001F00
0F80001F00
0F00001F00
0F00001F00
1F00001E00
1F00003E00
1F00003E00
1E00003E00
3E00003C00
3E00003C00
3E00007C00
3E00007C00
3C00007C00
7C00007800
7C00007800
7C0000F800
780000F800
780000F800
F80000F000
F80001F000
F80001F000
F80003E000
F80003E000
FC000FC000
7E001F8000
7F80FF0000
3FFFFE0000
1FFFFC0000
07FFF00000
00FF800000
ENDCHAR
STARTCHAR 00DB
ENCODING 219
SWIDTH 720 0
DWIDTH 36 0
BBX 34 48 6 -1
BITMAP
00001F0000
00001F8000
00003F8000
00007B8000
0000F3C000
0001E1C000
0003C1E000
000780E000
0000000000
0000000000
0000000000
03C00007C0
07C0000780
07C0000780
07C0000F80
0780000F80
0780000F80
0F80000F00
0F80001F00
0F80001F00
0F00001F00
0F00001F00
1F00001E00
1F00003E00
1F00003E00
1E00003E00
3E00003C00
3E00003C00
3E00007C00
3E00007C00
3C00007C00
7C00007800
7C00007800
7C0000F800
780000F800
780000F800
F80000F000
F80001F000
F80001F000
F80003E000
F80003E000
FC000FC000
7E001F8000
7F80FF0000
3FFFFE0000
1FFFFC0000
07FFF00000
00FF800000
ENDCHAR
STARTCHAR 00DC
ENCODING 220
SWIDTH 720 0
DWIDTH 36 0
BBX 34 46 6 -1
BITMAP
0001F1F000
0001F1F000
0001F1F000
0003F3F000
0003E3E000
0000000000
0000000000
0000000000
0000000000
03C00007C0
07C0000780
07C0000780
07C0000F80
0780000F80
0780000F80
0F80000F00
0F80001F00
0F80001F00
0F00001F00
0F00001F00
1F00001E00
1F00003E00
1F00003E00
1E00003E00
3E00003C00
3E00003C00
3E00007C00
3E00007C00
3C00007C00
7C00007800
7C00007800
7C0000F800
780000F800
780000F800
F80000F000
F80001F000
F80001F000
F80003E000
F80003E000
FC000FC000
7E001F8000
7F80FF0000
3FFFFE0000
1FFFFC0000
07FFF00000
00FF800000
ENDCHAR
STARTCHAR 00DD
ENCODING 221
SWIDTH 680 0
DWIDTH 34 0
BBX 31 46 9 0
BITMAP
00003F00
00003E00
00007C00
0000F000
0001E000
0003C000
00078000
000F0000
00000000
00000000
F800003E
FC00007E
7C0000FC
7C0001F8
7E0001F0
3E0003E0
3F0007C0
1F000FC0
1F001F80
0F801F00
0F803E00
0FC07C00
07C0F800
07C1F000
03E3F000
03E3E000
01E7C000
01FF8000
01FF0000
00FE0000
00FC0000
007C0000
00780000
00F80000
00F80000
00F80000
00F00000
00F00000
01F00000
01F00000
01F00000
01E00000
03E00000
03E00000
03E00000
03E00000
ENDCHAR
STARTCHAR 00DE
ENCODING 222
SWIDTH 640 0
DWIDTH 32 0
BBX 31 36 4 0
BITMAP
00F00000
01F00000
01F00000
01F00000
01E00000
01FFFE00
03FFFFE0
03FFFFF0
03FFFFF8
03C00FFC
03C000FC
07C0007C
07C0003E
07C0003E
0780003E
0F80003C
0F80003C
0F80007C
0F00007C
0F0000F8
1F0001F8
1F0007F0
1FFFFFE0
1FFFFFC0
3FFFFF00
3FFFFC00
3E000000
3E000000
3C000000
7C000000
7C000000
7C000000
78000000
78000000
F8000000
F8000000
ENDCHAR
STARTCHAR 00DF
ENCODING 223
SWIDTH 580 0
DWIDTH 29 0
BBX 29 38 3 -1
BITMAP
0000FE00
0007FFC0
001FFFE0
003FFFF0
007E07F0
00FC01F0
00F800F8
01F000F8
01E000F8
03E000F0
03E000F0
03C001F0
03C001E0
07C003C0
07C00F80
0781FF00
0781FE00
0F83FF00
0F83FF80
0F003FC0
0F0007C0
0F0007C0
1F0003E0
1E0003E0
1E0003E0
1E0003C0
3E0003C0
3E0007C0
3C0007C0
3C000F80
7C000F80
7C001F00
78007E00
7841FC00
787FF800
F87FF000
F07FC000
007E0000
ENDCHAR
STARTCHAR 00E0
ENCODING 224
SWIDTH 560 0
DWIDTH 28 0
BBX 26 38 3 -1
BITMAP
001F0000
000F8000
00078000
0003C000
0003C000
0001E000
0000E000
00007000
00000000
00000000
000FF800
003FFE00
00FFFF00
01FFFF80
03F81FC0
03E00FC0
07C007C0
07C00780
00000780
00000780
00000F80
00003F80
003FFF00
03FFFF00
0FFFCF00
1FF01F00
3F001E00
7C001E00
78001E00
F8001E00
F8003E00
F8007C00
F800FC00
FC03FC00
7FFFBF80
7FFF3F80
3FFE3F00
0FF01F00
ENDCHAR
STARTCHAR 00E1
ENCODING 225
SWIDTH 560 0
DWIDTH 28 0
BBX 26 38 3 -1
BITMAP
00000FC0
00000F80
00001F00
00003C00
00007800
0000F000
0001E000
0003C000
00000000
00000000
000FF800
003FFE00
00FFFF00
01FFFF80
03F81FC0
03E00FC0
07C007C0
07C00780
00000780
00000780
00000F80
00003F80
003FFF00
03FFFF00
0FFFCF00
1FF01F00
3F001E00
7C001E00
78001E00
F8001E00
F8003E00
F8007C00
F800FC00
FC03FC00
7FFFBF80
7FFF3F80
3FFE3F00
0FF01F00
ENDCHAR
STARTCHAR 00E2
ENCODING 226
SWIDTH 560 0
DWIDTH 28 0
BBX 26 38 3 -1
BITMAP
0000F800
0000FC00
0001FC00
0003DC00
00079E00
000F0E00
001E0F00
003C0700
00000000
00000000
000FF800
003FFE00
00FFFF00
01FFFF80
03F81FC0
03E00FC0
07C007C0
07C00780
00000780
00000780
00000F80
00003F80
003FFF00
03FFFF00
0FFFCF00
1FF01F00
3F001E00
7C001E00
78001E00
F8001E00
F8003E00
F8007C00
F800FC00
FC03FC00
7FFFBF80
7FFF3F80
3FFE3F00
0FF01F00
ENDCHAR
STARTCHAR 00E3
ENCODING 227
SWIDTH 560 0
DWIDTH 28 0
BBX 26 36 3 -1
BITMAP
000FC1C0
001FFBC0
001FFF80
0038FF00
00301E00
00000000
00000000
00000000
000FF800
003FFE00
00FFFF00
01FFFF80
03F81FC0
03E00FC0
07C007C0
07C00780
00000780
00000780
00000F80
00003F80
003FFF00
03FFFF00
0FFFCF00
1FF01F00
3F001E00
7C001E00
78001E00
F8001E00
F8003E00
F8007C00
F800FC00
FC03FC00
7FFFBF80
7FFF3F80
3FFE3F00
0FF01F00
ENDCHAR
STARTCHAR 00E4
ENCODING 228
SWIDTH 560 0
DWIDTH 28 0
BBX 26 36 3 -1
BITMAP
000F8F80
000F8F80
000F8F80
001F9F80
001F1F00
00000000
00000000
00000000
000FF800
003FFE00
00FFFF00
01FFFF80
03F81FC0
03E00FC0
07C007C0
07C00780
00000780
00000780
00000F80
00003F80
003FFF00
03FFFF00
0FFFCF00
1FF01F00
3F001E00
7C001E00
78001E00
F8001E00
F8003E00
F8007C00
F800FC00
FC03FC00
7FFFBF80
7FFF3F80
3FFE3F00
0FF01F00
ENDCHAR
STARTCHAR 00E5
ENCODING 229
SWIDTH 560 0
DWIDTH 28 0
BBX 26 40 3 -1
BITMAP
00007C00
0001FE00
0003FF00
0003CF00
00078700
00070700
00070F00
0007DE00
0007FC00
0003F800
0001F000
00000000
000FF800
003FFE00
00FFFF00
01FFFF80
03F81FC0
03E00FC0
07C007C0
07C00780
00000780
00000780
00000F80
00003F80
003FFF00
03FFFF00
0FFFCF00
1FF01F00
3F001E00
7C001E00
78001E00
F8001E00
F8003E00
F8007C00
F800FC00
FC03FC00
7FFFBF80
7FFF3F80
3FFE3F00
0FF01F00
ENDCHAR
STARTCHAR 00E6
ENCODING 230
SWIDTH 900 0
DWIDTH 45 0
BBX 44 28 3 -1
BITMAP
000FF803F800
007FFE1FFE00
01FFFF3FFF80
03FFFFFFFFC0
03F01FFC0FE0
07C007F007E0
078007E003E0
0F8007C001F0
0000078001F0
00000F8001F0
00000F0001E0
00003FFFFFE0
001FFFFFFFE0
03FFFFFFFFE0
0FFFDFFFFFE0
1FF01E000000
3F001E000000
7C001E000000
78003E000000
F8003E000780
F8003E000F80
F8007F001F00
F801FF803F00
FC07EFC0FE00
7FFFC7FFFC00
7FFF03FFF800
3FFC01FFE000
0FE0007F0000
ENDCHAR
STARTCHAR 00E7
ENCODING 231
SWIDTH 520 0
DWIDTH 26 0
BBX 24 38 4 -11
BITMAP
001FC0
00FFF0
01FFFC
03FFFC
07E07E
0F803E
1F001F
1F001F
3E001F
3E001F
7C0000
7C0000
780000
F80000
F80000
F80000
F80000
F80000
F8007C
F800F8
F800F8
F801F0
7C03F0
7E07E0
3FFFC0
1FFF80
0FFF00
03F800
018000
018000
03F000
03F800
007800
007800
407000
70F000
FFE000
1F8000
ENDCHAR
STARTCHAR 00E8
ENCODING 232
SWIDTH 540 0
DWIDTH 27 0
BBX 25 38 4 -1
BITMAP
003E0000
001F0000
000F0000
00078000
00078000
0003C000
0001C000
0000E000
00000000
00000000
001FC000
007FF800
01FFFC00
03FFFE00
07F07F00
0FC03F00
1F801F00
1F000F80
3E000F80
3C000F80
3C000F00
7FFFFF00
7FFFFF00
7FFFFF00
FFFFFF00
F8000000
F8000000
F8000000
F8000000
F8003C00
F8007C00
7C00F800
7C01F800
7F03F000
3FFFE000
1FFFC000
0FFF0000
01FC0000
ENDCHAR
STARTCHAR 00E9
ENCODING 233
SWIDTH 540 0
DWIDTH 27 0
BBX 25 38 4 -1
BITMAP
00001F80
00001F00
00003E00
00007800
0000F000
0001E000
0003C000
00078000
00000000
00000000
001FC000
007FF800
01FFFC00
03FFFE00
07F07F00
0FC03F00
1F801F00
1F000F80
3E000F80
3C000F80
3C000F00
7FFFFF00
7FFFFF00
7FFFFF00
FFFFFF00
F8000000
F8000000
F8000000
F8000000
F8003C00
F8007C00
7C00F800
7C01F800
7F03F000
3FFFE000
1FFFC000
0FFF0000
01FC0000
ENDCHAR
STARTCHAR 00EA
ENCODING 234
SWIDTH 540 0
DWIDTH 27 0
BBX 25 38 4 -1
BITMAP
0001F000
0001F800
0003F800
0007B800
000F3C00
001E1C00
003C1E00
00780E00
00000000
00000000
001FC000
007FF800
01FFFC00
03FFFE00
07F07F00
0FC03F00
1F801F00
1F000F80
3E000F80
3C000F80
3C000F00
7FFFFF00
7FFFFF00
7FFFFF00
FFFFFF00
F8000000
F8000000
F8000000
F8000000
F8003C00
F8007C00
7C00F800
7C01F800
7F03F000
3FFFE000
1FFFC000
0FFF0000
01FC0000
ENDCHAR
STARTCHAR 00EB
ENCODING 235
SWIDTH 540 0
DWIDTH 27 0
BBX 25 38 4 -1
BITMAP
001F1F00
001F1F00
001F1F00
003F3F00
003E3E00
00000000
00000000
00000000
00000000
00000000
001FC000
007FF800
01FFFC00
03FFFE00
07F07F00
0FC03F00
1F801F00
1F000F80
3E000F80
3C000F80
3C000F00
7FFFFF00
7FFFFF00
7FFFFF00
FFFFFF00
F8000000
F8000000
F8000000
F8000000
F8003C00
F8007C00
7C00F800
7C01F800
7F03F000
3FFFE000
1FFFC000
0FFF0000
01FC0000
ENDCHAR
STARTCHAR 00EC
ENCODING 236
SWIDTH 220 0
DWIDTH 11 0
BBX 14 37 3 0
BITMAP
07C0
03E0
01E0
00F0
00F0
0078
0038
001C
0000
0000
0000
07C0
0780
0780
0780
0780
0F80
0F00
0F00
0F00
0F00
1F00
1E00
1E00
1E00
3E00
3C00
3C00
3C00
3C00
7C00
7800
7800
7800
7800
F800
F000
ENDCHAR
STARTCHAR 00ED
ENCODING 237
SWIDTH 220 0
DWIDTH 11 0
BBX 16 37 3 0
BITMAP
003F
003E
007C
00F0
01E0
03C0
0780
0F00
0000
0000
0000
07C0
0780
0780
0780
0780
0F80
0F00
0F00
0F00
0F00
1F00
1E00
1E00
1E00
3E00
3C00
3C00
3C00
3C00
7C00
7800
7800
7800
7800
F800
F000
ENDCHAR
STARTCHAR 00EE
ENCODING 238
SWIDTH 260 0
DWIDTH 13 0
BBX 15 37 4 0
BITMAP
01F0
01F8
03F8
07B8
0F3C
1E1C
3C1E
780E
0000
0000
0000
07C0
0780
0780
0780
0780
0F80
0F00
0F00
0F00
0F00
1F00
1E00
1E00
1E00
3E00
3C00
3C00
3C00
3C00
7C00
7800
7800
7800
7800
F800
F000
ENDCHAR
STARTCHAR 00EF
ENCODING 239
SWIDTH 260 0
DWIDTH 13 0
BBX 17 37 4 0
BITMAP
0F8F80
0F8F80
0F8F80
1F9F80
1F1F00
000000
000000
000000
000000
000000
000000
07C000
078000
078000
078000
078000
0F8000
0F0000
0F0000
0F0000
0F0000
1F0000
1E0000
1E0000
1E0000
3E0000
3C0000
3C0000
3C0000
3C0000
7C0000
780000
780000
780000
780000
F80000
F00000
ENDCHAR
STARTCHAR 00F0
ENCODING 240
SWIDTH 560 0
DWIDTH 28 0
BBX 25 38 4 -1
BITMAP
00400000
00F01000
00F87800
007FF800
001FC000
003F8000
00FFC000
01F3E000
00C1F000
0000F800
00007C00
007FFC00
01FFFE00
03FFFE00
07F0FF00
0FC03F00
0F801F00
1F001F00
3E000F80
3E000F80
3C000F80
7C000F80
7C000F00
78000F00
F8001F00
F8001F00
F8001F00
F8001E00
F8003E00
F8003C00
F8007C00
FC00F800
7C01F800
7E07F000
3FFFE000
1FFFC000
0FFF0000
03F80000
ENDCHAR
STARTCHAR 00F1
ENCODING 241
SWIDTH 540 0
DWIDTH 27 0
BBX 26 35 3 0
BITMAP
000FC1C0
001FFBC0
001FFF80
0038FF00
00301E00
00000000
00000000
00000000
0001FC00
078FFE00
079FFF00
07FFFF80
07F81F80
07E00FC0
0FC007C0
0F800780
0F000780
0F000780
0E000F80
1E000F00
1E000F00
1E000F00
1C000F00
3C001F00
3C001E00
3C001E00
3C001E00
38001E00
78003E00
78003C00
78003C00
70003C00
70003C00
F0007C00
F0007800
ENDCHAR
STARTCHAR 00F2
ENCODING 242
SWIDTH 560 0
DWIDTH 28 0
BBX 25 38 4 -1
BITMAP
001F0000
000F8000
00078000
0003C000
0003C000
0001E000
0000E000
00007000
00000000
00000000
001FC000
007FF800
01FFFC00
03FFFE00
07E07E00
0FC03F00
1F801F00
1F000F80
3E000F80
3E000F80
3C000F80
7C000F80
78000F00
78000F00
F8001F00
F8001F00
F8001E00
F8001E00
F8003E00
F8003C00
F8007C00
FC00F800
7C01F800
7F07F000
3FFFE000
1FFFC000
0FFF0000
03F80000
ENDCHAR
STARTCHAR 00F3
ENCODING 243
SWIDTH 560 0
DWIDTH 28 0
BBX 25 38 4 -1
BITMAP
00001F80
00001F00
00003E00
00007800
0000F000
0001E000
0003C000
00078000
00000000
00000000
001FC000
007FF800
01FFFC00
03FFFE00
07E07E00
0FC03F00
1F801F00
1F000F80
3E000F80
3E000F80
3C000F80
7C000F80
78000F00
78000F00
F8001F00
F8001F00
F8001E00
F8001E00
F8003E00
F8003C00
F8007C00
FC00F800
7C01F800
7F07F000
3FFFE000
1FFFC000
0FFF0000
03F80000
ENDCHAR
STARTCHAR 00F4
ENCODING 244
SWIDTH 560 0
DWIDTH 28 0
BBX 25 38 4 -1
BITMAP
0003E000
0003F000
0007F000
000F7000
001E7800
003C3800
00783C00
00F01C00
00000000
00000000
001FC000
007FF800
01FFFC00
03FFFE00
07E07E00
0FC03F00
1F801F00
1F000F80
3E000F80
3E000F80
3C000F80
7C000F80
78000F00
78000F00
F8001F00
F8001F00
F8001E00
F8001E00
F8003E00
F8003C00
F8007C00
FC00F800
7C01F800
7F07F000
3FFFE000
1FFFC000
0FFF0000
03F80000
ENDCHAR
STARTCHAR 00F5
ENCODING 245
SWIDTH 560 0
DWIDTH 28 0
BBX 25 36 4 -1
BITMAP
003F0700
007FEF00
007FFE00
00E3FC00
00C07800
00000000
00000000
00000000
001FC000
007FF800
01FFFC00
03FFFE00
07E07E00
0FC03F00
1F801F00
1F000F80
3E000F80
3E000F80
3C000F80
7C000F80
78000F00
78000F00
F8001F00
F8001F00
F8001E00
F8001E00
F8003E00
F8003C00
F8007C00
FC00F800
7C01F800
7F07F000
3FFFE000
1FFFC000
0FFF0000
03F80000
ENDCHAR
STARTCHAR 00F6
ENCODING 246
SWIDTH 560 0
DWIDTH 28 0
BBX 25 38 4 -1
BITMAP
001F1F00
001F1F00
001F1F00
003F3F00
003E3E00
00000000
00000000
00000000
00000000
00000000
001FC000
007FF800
01FFFC00
03FFFE00
07E07E00
0FC03F00
1F801F00
1F000F80
3E000F80
3E000F80
3C000F80
7C000F80
78000F00
78000F00
F8001F00
F8001F00
F8001E00
F8001E00
F8003E00
F8003C00
F8007C00
FC00F800
7C01F800
7F07F000
3FFFE000
1FFFC000
0FFF0000
03F80000
ENDCHAR
STARTCHAR 00F7
ENCODING 247
SWIDTH 580 0
DWIDTH 29 0
BBX 25 23 5 0
BITMAP
000F0000
001F0000
001F0000
001F0000
00060000
00000000
00000000
00000000
00000000
FFFFFF80
FFFFFF00
FFFFFF00
FFFFFF00
00000000
00000000
00000000
00000000
00000000
00700000
00F80000
00F80000
00F80000
00700000
ENDCHAR
STARTCHAR 00F8
ENCODING 248
SWIDTH 560 0
DWIDTH 28 0
BBX 31 28 1 -1
BITMAP
0003F804
000FFF0E
003FFF9C
007FFFF0
00FC0FE0
01F807E0
03E003E0
03E007E0
07C00FF0
07C01DF0
078039F0
0F8071F0
0F00C1E0
0F0181E0
1F0303E0
1F0E03E0
1F1C03E0
1F3807C0
1F7007C0
1FE00780
1FC00F80
1F801F00
0F803E00
0FE0FE00
1FFFFC00
33FFF000
E1FFE000
C07F0000
ENDCHAR
STARTCHAR 00F9
ENCODING 249
SWIDTH 540 0
DWIDTH 27 0
BBX 25 38 4 -1
BITMAP
003E0000
001F0000
000F0000
00078000
00078000
0003C000
0001C000
0000E000
00000000
00000000
00000000
0F000380
0F000780
0F000780
0F000780
1F000700
1E000700
1E000F00
1E000F00
1E000F00
3E000E00
3C001E00
3C001E00
3C001E00
3C001E00
7C001C00
78003C00
78003C00
78003C00
F8007800
F800F800
F800F800
F801F800
FC07F800
FFFF7000
7FFEF000
3FF8F000
0FE00000
ENDCHAR
STARTCHAR 00FA
ENCODING 250
SWIDTH 540 0
DWIDTH 27 0
BBX 25 38 4 -1
BITMAP
00001F80
00001F00
00003E00
00007800
0000F000
0001E000
0003C000
00078000
00000000
00000000
00000000
0F000380
0F000780
0F000780
0F000780
1F000700
1E000700
1E000F00
1E000F00
1E000F00
3E000E00
3C001E00
3C001E00
3C001E00
3C001E00
7C001C00
78003C00
78003C00
78003C00
F8007800
F800F800
F800F800
F801F800
FC07F800
FFFF7000
7FFEF000
3FF8F000
0FE00000
ENDCHAR
STARTCHAR 00FB
ENCODING 251
SWIDTH 540 0
DWIDTH 27 0
BBX 25 38 4 -1
BITMAP
0001F000
0001F800
0003F800
0007B800
000F3C00
001E1C00
003C1E00
00780E00
00000000
00000000
00000000
0F000380
0F000780
0F000780
0F000780
1F000700
1E000700
1E000F00
1E000F00
1E000F00
3E000E00
3C001E00
3C001E00
3C001E00
3C001E00
7C001C00
78003C00
78003C00
78003C00
F8007800
F800F800
F800F800
F801F800
FC07F800
FFFF7000
7FFEF000
3FF8F000
0FE00000
ENDCHAR
STARTCHAR 00FC
ENCODING 252
SWIDTH 540 0
DWIDTH 27 0
BBX 25 38 4 -1
BITMAP
001F1F00
001F1F00
001F1F00
003F3F00
003E3E00
00000000
00000000
00000000
00000000
00000000
00000000
0F000380
0F000780
0F000780
0F000780
1F000700
1E000700
1E000F00
1E000F00
1E000F00
3E000E00
3C001E00
3C001E00
3C001E00
3C001E00
7C001C00
78003C00
78003C00
78003C00
F8007800
F800F800
F800F800
F801F800
FC07F800
FFFF7000
7FFEF000
3FF8F000
0FE00000
ENDCHAR
STARTCHAR 00FD
ENCODING 253
SWIDTH 480 0
DWIDTH 24 0
BBX 29 48 0 -11
BITMAP
000007E0
000007C0
00000F80
00001E00
00003C00
00007800
0000F000
0001E000
00000000
00000000
00000000
03E000F8
03E000F0
03E001F0
01E003E0
01E003C0
01E007C0
01E00780
01E00F80
01F00F00
01F01E00
01F03E00
00F03C00
00F07C00
00F07800
00F0F800
00F0F000
00F1E000
00FBE000
00FBC000
007FC000
007F8000
007F0000
007F0000
007E0000
007E0000
007C0000
007C0000
00780000
00F00000
01F00000
01E00000
03E00000
07C00000
FF800000
FF000000
FE000000
F8000000
ENDCHAR
STARTCHAR 00FE
ENCODING 254
SWIDTH 560 0
DWIDTH 28 0
BBX 29 47 1 -11
BITMAP
003C0000
007C0000
00780000
00780000
00780000
00780000
00F80000
00F00000
00F00000
00F07E00
00F1FF80
01F7FFC0
01EFFFE0
01FE07F0
01FC03F0
03F801F0
03F001F0
03E000F8
03E000F8
03C000F8
07C000F8
07C000F8
078000F0
078001F0
078001F0
0F8001F0
0F0001E0
0F0003E0
0F8003E0
1F8007C0
1F800F80
1FC01F80
1FE07F00
1FFFFE00
3EFFFC00
3C7FF000
3C1FC000
3C000000
3C000000
7C000000
78000000
78000000
78000000
F8000000
F8000000
F0000000
F0000000
ENDCHAR
STARTCHAR 00FF
ENCODING 255
SWIDTH 480 0
DWIDTH 24 0
BBX 29 48 0 -11
BITMAP
0003E3E0
0003E3E0
0003E3E0
0007E7E0
0007C7C0
00000000
00000000
00000000
00000000
00000000
00000000
03E000F8
03E000F0
03E001F0
01E003E0
01E003C0
01E007C0
01E00780
01E00F80
01F00F00
01F01E00
01F03E00
00F03C00
00F07C00
00F07800
00F0F800
00F0F000
00F1E000
00FBE000
00FBC000
007FC000
007F8000
007F0000
007F0000
007E0000
007E0000
007C0000
007C0000
00780000
00F00000
01F00000
01E00000
03E00000
07C00000
FF800000
FF000000
FE000000
F8000000
ENDCHAR
STARTCHAR 0100
ENCODING 256
SWIDTH 660 0
DWIDTH 33 0
BBX 32 43 1 0
BITMAP
00001FFF
00003FFF
00003FFF
00000000
00000000
00000000
00000000
00000FE0
00001FE0
00001FE0
00003FE0
00003FE0
00007BE0
00007BE0
0000F3F0
0001F1F0
0001E1F0
0003E1F0
0003C1F0
000781F0
000781F0
000F01F8
001F00F8
001E00F8
003E00F8
003C00F8
007800F8
00F800F8
00FFFFFC
01FFFFFC
01FFFFFC
03FFFFFC
03C0007C
07C0007C
0F80007C
0F80007E
1F00003E
1F00003E
3E00003E
3C00003E
7C00003E
F800003E
F800003F
ENDCHAR
STARTCHAR 0101
ENCODING 257
SWIDTH 560 0
DWIDTH 28 0
BBX 26 34 3 -1
BITMAP
001FFF80
001FFF80
001FFF00
00000000
00000000
00000000
000FF800
003FFE00
00FFFF00
01FFFF80
03F81FC0
03E00FC0
07C007C0
07C00780
00000780
00000780
00000F80
00003F80
003FFF00
03FFFF00
0FFFCF00
1FF01F00
3F001E00
7C001E00
78001E00
F8001E00
F8003E00
F8007C00
F800FC00
FC03FC00
7FFFBF80
7FFF3F80
3FFE3F00
0FF01F00
ENDCHAR
STARTCHAR 0102
ENCODING 258
SWIDTH 660 0
DWIDTH 33 0
BBX 34 45 1 0
BITMAP
00003801C0
0000380380
00003FFF80
00001FFF00
00000FFC00
000007F000
0000000000
0000000000
0000000000
00000FE000
00001FE000
00001FE000
00003FE000
00003FE000
00007BE000
00007BE000
0000F3F000
0001F1F000
0001E1F000
0003E1F000
0003C1F000
000781F000
000781F000
000F01F800
001F00F800
001E00F800
003E00F800
003C00F800
007800F800
00F800F800
00FFFFFC00
01FFFFFC00
01FFFFFC00
03FFFFFC00
03C0007C00
07C0007C00
0F80007C00
0F80007E00
1F00003E00
1F00003E00
3E00003E00
3C00003E00
7C00003E00
F800003E00
F800003F00
ENDCHAR
STARTCHAR 0103
ENCODING 259
SWIDTH 560 0
DWIDTH 28 0
BBX 27 37 3 -1
BITMAP
001C00E0
001C01C0
001FFFC0
000FFF80
0007FE00
0003F800
00000000
00000000
00000000
000FF800
003FFE00
00FFFF00
01FFFF80
03F81FC0
03E00FC0
07C007C0
07C00780
00000780
00000780
00000F80
00003F80
003FFF00
03FFFF00
0FFFCF00
1FF01F00
3F001E00
7C001E00
78001E00
F8001E00
F8003E00
F8007C00
F800FC00
FC03FC00
7FFFBF80
7FFF3F80
3FFE3F00
0FF01F00
ENDCHAR
STARTCHAR 0104
ENCODING 260
SWIDTH 660 0
DWIDTH 33 0
BBX 33 46 1 -10
BITMAP
00000FE000
00001FE000
00001FE000
00003FE000
00003FE000
00007FE000
00007BE000
0000F3F000
0001F1F000
0001E1F000
0003E1F000
0003C1F000
000781F000
000781F000
000F01F800
001F00F800
001E00F800
003E00F800
003C00F800
007800F800
007800F800
00FFFFFC00
01FFFFFC00
01FFFFFC00
03FFFFFC00
03C0007C00
0780007C00
0F80007C00
0F00007E00
1F00003E00
1E00003E00
3E00003E00
3C00003E00
7C00003E00
F800003E00
F800003F00
0000001E00
0000007800
000000E000
000001C000
000003C000
000003C000
000003C000
000003E180
000001FF00
0000007F00
ENDCHAR
STARTCHAR 0105
ENCODING 261
SWIDTH 560 0
DWIDTH 28 0
BBX 26 37 3 -10
BITMAP
000FF800
003FFE00
00FFFF00
01FFFF80
03F81FC0
03E00FC0
07C007C0
07C00780
00000780
00000780
00000F80
00003F80
003FFF00
03FFFF00
0FFFCF00
1FF81F00
3F001E00
7E001E00
7C001E00
F8001E00
F8003E00
F8007C00
F800FC00
FC03FC00
7FFFFF80
7FFF3F80
3FFC3F00
0FF01F00
00001C00
00007000
0000F000
0001E000
0001E000
0001E000
0001F840
0000FFC0
00003F80
ENDCHAR
STARTCHAR 0106
ENCODING 262
SWIDTH 720 0
DWIDTH 36 0
BBX 33 47 5 -1
BITMAP
000000FC00
000000F800
000001F000
000003C000
0000078000
00000F0000
00001E0000
00003C0000
0000000000
0000000000
0001FFC000
0007FFF000
001FFFFC00
007FFFFC00
00FE007E00
01F8003E00
03F0001F00
03E0001F00
07C0000F00
0F80000F80
0F00000F80
1F00000000
1E00000000
3E00000000
3C00000000
7C00000000
7C00000000
7800000000
7800000000
F800000000
F800000000
F800000000
F800000000
F800003E00
F800007C00
F800007C00
F80000F800
F80000F800
7C0001F000
7C0003E000
7E0007E000
3F001FC000
1FC07F8000
1FFFFF0000
0FFFFC0000
03FFF00000
007F800000
ENDCHAR
STARTCHAR 0107
ENCODING 263
SWIDTH 520 0
DWIDTH 26 0
BBX 25 38 4 -1
BITMAP
00001F80
00001F00
00003E00
00007800
0000F000
0001E000
0003C000
00078000
00000000
00000000
001FC000
007FF000
01FFFC00
03FFFC00
07E07E00
0FC03E00
1F001F00
1F001F00
3E001F00
3E001F00
7C000000
7C000000
78000000
F8000000
F8000000
F8000000
F8000000
F8000000
F8007C00
F8007800
F800F800
F801F000
7C01F000
7E07E000
3FFFC000
1FFF8000
0FFF0000
03F80000
ENDCHAR
STARTCHAR 0108
ENCODING 264
SWIDTH 720 0
DWIDTH 36 0
BBX 33 48 5 -1
BITMAP
000007C000
000007E000
00000FE000
00001EE000
00003CF000
0000787000
0000F07800
0001E03800
0000000000
0000000000
0000000000
0001FFC000
0007FFF000
001FFFFC00
007FFFFC00
00FE007E00
01F8003E00
03F0001F00
03E0001F00
07C0000F00
0F80000F80
0F00000F80
1F00000000
1E00000000
3E00000000
3C00000000
7C00000000
7C00000000
7800000000
7800000000
F800000000
F800000000
F800000000
F800000000
F800003E00
F800007C00
F800007C00
F80000F800
F80000F800
7C0001F000
7C0003E000
7E0007E000
3F001FC000
1FC07F8000
1FFFFF0000
0FFFFC0000
03FFF00000
007F800000
ENDCHAR
STARTCHAR 0109
ENCODING 265
SWIDTH 520 0
DWIDTH 26 0
BBX 24 38 4 -1
BITMAP
0003E0
0003F0
0007F0
000F70
001E78
003C38
00783C
00F01C
000000
000000
001FC0
007FF0
01FFFC
03FFFC
07E07E
0FC03E
1F001F
1F001F
3E001F
3E001F
7C0000
7C0000
780000
F80000
F80000
F80000
F80000
F80000
F8007C
F80078
F800F8
F801F0
7C01F0
7E07E0
3FFFC0
1FFF80
0FFF00
03F800
ENDCHAR
STARTCHAR 010A
ENCODING 266
SWIDTH 720 0
DWIDTH 36 0
BBX 33 46 5 -1
BITMAP
00000F8000
00000F8000
00000F8000
00001F8000
00001F0000
0000000000
0000000000
0000000000
0000000000
0001FFC000
0007FFF000
001FFFFC00
007FFFFC00
00FE007E00
01F8003E00
03F0001F00
03E0001F00
07C0000F00
0F80000F80
0F00000F80
1F00000000
1E00000000
3E00000000
3C00000000
7C00000000
7C00000000
7800000000
7800000000
F800000000
F800000000
F800000000
F800000000
F800003E00
F800007C00
F800007C00
F80000F800
F80000F800
7C0001F000
7C0003E000
7E0007E000
3F001FC000
1FC07F8000
1FFFFF0000
0FFFFC0000
03FFF00000
007F800000
ENDCHAR
STARTCHAR 010B
ENCODING 267
SWIDTH 520 0
DWIDTH 26 0
BBX 24 36 4 -1
BITMAP
0003E0
0003E0
0003E0
0007E0
0007C0
000000
000000
000000
001FC0
007FF0
01FFFC
03FFFC
07E07E
0FC03E
1F001F
1F001F
3E001F
3E001F
7C0000
7C0000
780000
F80000
F80000
F80000
F80000
F80000
F8007C
F80078
F800F8
F801F0
7C01F0
7E07E0
3FFFC0
1FFF80
0FFF00
03F800
ENDCHAR
STARTCHAR 010C
ENCODING 268
SWIDTH 720 0
DWIDTH 36 0
BBX 33 48 5 -1
BITMAP
0000700E00
0000781C00
0000383C00
00003C7800
00001CF000
00001FE000
00000FC000
00000F8000
0000000000
0000000000
0000000000
0001FFC000
0007FFF000
001FFFFC00
007FFFFC00
00FE007E00
01F8003E00
03F0001F00
03E0001F00
07C0000F00
0F80000F80
0F00000F80
1F00000000
1E00000000
3E00000000
3C00000000
7C00000000
7C00000000
7800000000
7800000000
F800000000
F800000000
F800000000
F800000000
F800003E00
F800007C00
F800007C00
F80000F800
F80000F800
7C0001F000
7C0003E000
7E0007E000
3F001FC000
1FC07F8000
1FFFFF0000
0FFFFC0000
03FFF00000
007F800000
ENDCHAR
STARTCHAR 010D
ENCODING 269
SWIDTH 520 0
DWIDTH 26 0
BBX 24 38 4 -1
BITMAP
003807
003C0E
001C1E
001E3C
000E78
000FF0
0007E0
0007C0
000000
000000
001FC0
007FF0
01FFFC
03FFFC
07E07E
0FC03E
1F001F
1F001F
3E001F
3E001F
7C0000
7C0000
780000
F80000
F80000
F80000
F80000
F80000
F8007C
F80078
F800F8
F801F0
7C01F0
7E07E0
3FFFC0
1FFF80
0FFF00
03F800
ENDCHAR
STARTCHAR 010E
ENCODING 270
SWIDTH 700 0
DWIDTH 35 0
BBX 34 47 4 0
BITMAP
0001C03800
0001E07000
0000E0F000
0000F1E000
000073C000
00007F8000
00003F0000
00003E0000
0000000000
0000000000
0000000000
00FFFFC000
01FFFFF000
01FFFFFC00
01FFFFFE00
01F001FE00
01E0003F00
03E0001F00
03E0000F80
03E0000F80
03C0000780
03C00007C0
07C00007C0
07C00007C0
07C00007C0
07800007C0
0F80000780
0F80000780
0F80000F80
0F00000F80
0F00000F80
1F00000F00
1F00001F00
1F00001F00
1E00003E00
3E00003E00
3E00007C00
3E00007C00
3E0000F800
3C0001F000
7C0003F000
7C000FE000
7C003FC000
7FFFFF8000
7FFFFE0000
FFFFF80000
FFFFC00000
ENDCHAR
STARTCHAR 010F
ENCODING 271
SWIDTH 700 0
DWIDTH 35 0
BBX 38 38 4 -1
BITMAP
000000003C
000000787C
000000F078
000000F078
000000F018
000000F030
000001E0F0
000001E0C0
000001E000
000001E000
001F81E000
00FFE3C000
01FFF3C000
03FFFBC000
07E07BC000
0FC03FC000
1F001F8000
1F000F8000
3E000F8000
3E000F8000
7C000F0000
7C000F0000
78000F0000
F8000F0000
F8000F0000
F8001E0000
F8001E0000
F8001E0000
F8003E0000
F8003C0000
F8007C0000
FC00FC0000
7C01FC0000
7F07FC0000
3FFFF80000
3FFF780000
0FFC780000
03F0000000
ENDCHAR
STARTCHAR 0110
ENCODING 272
SWIDTH 720 0
DWIDTH 36 0
BBX 33 36 5 0
BITMAP
01FFFF8000
01FFFFE000
01FFFFF800
03FFFFFC00
03E001FE00
03E0007E00
03E0003F00
03C0001F00
07C0001F00
07C0000F00
07C0000F80
0780000F80
0780000F80
0F80000F80
0F80000F80
0F80000F00
FFFF800F00
FFFF001F00
FFFF001F00
1F00001F00
1E00001E00
1E00003E00
3E00003E00
3E00003C00
3E00007C00
3C0000F800
7C0000F800
7C0001F000
7C0003F000
7C0007E000
78001FC000
F8007F8000
FFFFFF0000
FFFFFC0000
FFFFF00000
FFFFC00000
ENDCHAR
STARTCHAR 0111
ENCODING 273
SWIDTH 560 0
DWIDTH 28 0
BBX 31 37 4 -1
BITMAP
000000F0
000000F0
000000F0
0000FFFE
0000FFFE
0000FFFC
000001E0
000001E0
000001E0
001F83E0
00FFE3C0
01FFF3C0
03FFFBC0
07E07FC0
0FC03F80
1F001F80
1F001F80
3E000F80
3C000F80
7C000F00
7C000F00
78000F00
F8000F00
F8001F00
F8001E00
F8001E00
F8003E00
F8003E00
F8007C00
F8007C00
FC00FC00
7C01FC00
7F07FC00
3FFFF800
3FFF7800
1FFC7800
07F00000
ENDCHAR
STARTCHAR 0112
ENCODING 274
SWIDTH 660 0
DWIDTH 33 0
BBX 33 43 4 0
BITMAP
0000FFF800
0001FFF800
0001FFF800
0000000000
0000000000
0000000000
0000000000
00FFFFFF80
01FFFFFF80
01FFFFFF80
01FFFFFF00
01F0000000
01E0000000
03E0000000
03E0000000
03E0000000
03C0000000
03C0000000
07C0000000
07C0000000
07C0000000
0780000000
0F80000000
0FFFFFF800
0FFFFFF000
0FFFFFF000
0FFFFFF000
1F00000000
1F00000000
1F00000000
1E00000000
3E00000000
3E00000000
3E00000000
3E00000000
3C00000000
7C00000000
7C00000000
7C00000000
7FFFFFE000
7FFFFFE000
FFFFFFC000
FFFFFFC000
ENDCHAR
STARTCHAR 0113
ENCODING 275
SWIDTH 540 0
DWIDTH 27 0
BBX 25 34 4 -1
BITMAP
003FFF00
003FFF00
003FFE00
00000000
00000000
00000000
001FC000
007FF800
01FFFC00
03FFFE00
07F07F00
0FC03F00
1F801F00
1F000F80
3E000F80
3C000F80
3C000F00
7FFFFF00
7FFFFF00
7FFFFF00
FFFFFF00
F8000000
F8000000
F8000000
F8000000
F8003C00
F8007C00
7C00F800
7C01F800
7F03F000
3FFFE000
1FFFC000
0FFF0000
01FC0000
ENDCHAR
STARTCHAR 0114
ENCODING 276
SWIDTH 660 0
DWIDTH 33 0
BBX 33 45 4 0
BITMAP
0001C00E00
0001C01C00
0001FFFC00
0000FFF800
00007FE000
00003F8000
0000000000
0000000000
0000000000
00FFFFFF80
01FFFFFF80
01FFFFFF80
01FFFFFF00
01F0000000
01E0000000
03E0000000
03E0000000
03E0000000
03C0000000
03C0000000
07C0000000
07C0000000
07C0000000
0780000000
0F80000000
0FFFFFF800
0FFFFFF000
0FFFFFF000
0FFFFFF000
1F00000000
1F00000000
1F00000000
1E00000000
3E00000000
3E00000000
3E00000000
3E00000000
3C00000000
7C00000000
7C00000000
7C00000000
7FFFFFE000
7FFFFFE000
FFFFFFC000
FFFFFFC000
ENDCHAR
STARTCHAR 0115
ENCODING 277
SWIDTH 540 0
DWIDTH 27 0
BBX 26 37 4 -1
BITMAP
003801C0
00380380
003FFF80
001FFF00
000FFC00
0007F000
00000000
00000000
00000000
001FC000
007FF800
01FFFC00
03FFFE00
07F07F00
0FC03F00
1F801F00
1F000F80
3E000F80
3C000F80
3C000F00
7FFFFF00
7FFFFF00
7FFFFF00
FFFFFF00
F8000000
F8000000
F8000000
F8000000
F8003C00
F8007C00
7C00F800
7C01F800
7F03F000
3FFFE000
1FFFC000
0FFF0000
01FC0000
ENDCHAR
STARTCHAR 0116
ENCODING 278
SWIDTH 660 0
DWIDTH 33 0
BBX 33 45 4 0
BITMAP
00000F8000
00000F8000
00000F8000
00001F8000
00001F0000
0000000000
0000000000
0000000000
0000000000
00FFFFFF80
01FFFFFF80
01FFFFFF80
01FFFFFF00
01F0000000
01E0000000
03E0000000
03E0000000
03E0000000
03C0000000
03C0000000
07C0000000
07C0000000
07C0000000
0780000000
0F80000000
0FFFFFF800
0FFFFFF000
0FFFFFF000
0FFFFFF000
1F00000000
1F00000000
1F00000000
1E00000000
3E00000000
3E00000000
3E00000000
3E00000000
3C00000000
7C00000000
7C00000000
7C00000000
7FFFFFE000
7FFFFFE000
FFFFFFC000
FFFFFFC000
ENDCHAR
STARTCHAR 0117
ENCODING 279
SWIDTH 540 0
DWIDTH 27 0
BBX 25 36 4 -1
BITMAP
0003E000
0003E000
0003E000
0007E000
0007C000
00000000
00000000
00000000
001FC000
007FF800
01FFFC00
03FFFE00
07F07F00
0FC03F00
1F801F00
1F000F80
3E000F80
3C000F80
3C000F00
7FFFFF00
7FFFFF00
7FFFFF00
FFFFFF00
F8000000
F8000000
F8000000
F8000000
F8003C00
F8007C00
7C00F800
7C01F800
7F03F000
3FFFE000
1FFFC000
0FFF0000
01FC0000
ENDCHAR
STARTCHAR 0118
ENCODING 280
SWIDTH 660 0
DWIDTH 33 0
BBX 33 46 4 -10
BITMAP
00FFFFFF80
01FFFFFF80
01FFFFFF80
01FFFFFF00
01F0000000
01E0000000
03E0000000
03E0000000
03E0000000
03C0000000
03C0000000
07C0000000
07C0000000
07C0000000
0780000000
0F80000000
0FFFFFF800
0FFFFFF000
0FFFFFF000
0FFFFFF000
1F00000000
1F00000000
1F00000000
1E00000000
3E00000000
3E00000000
3E00000000
3E00000000
3C00000000
7C00000000
7C00000000
7C00000000
7FFFFFE000
7FFFFFE000
FFFFFFC000
FFFFFFC000
0000078000
00001E0000
0000380000
0000780000
0000F00000
0000F00000
0000F00000
0000F86000
00007FC000
00001FC000
ENDCHAR
STARTCHAR 0119
ENCODING 281
SWIDTH 540 0
DWIDTH 27 0
BBX 25 37 4 -10
BITMAP
001FC000
007FF800
01FFFC00
03FFFE00
07E07F00
0FC03F00
1F001F00
1F000F80
3E000F80
3C000F80
3C000F80
7FFFFF00
7FFFFF00
7FFFFF00
FFFFFF00
F8000000
F8000000
F8000000
F8000000
F8003C00
F8007C00
7C00F800
7C01F800
7E07F000
3FFFE000
1FFFC000
0FFF0000
03FE0000
001C0000
00380000
00700000
00F00000
00F00000
00F00000
00FC6000
007FC000
001FC000
ENDCHAR
STARTCHAR 011A
ENCODING 282
SWIDTH 660 0
DWIDTH 33 0
BBX 33 47 4 0
BITMAP
0000E01C00
0000F03800
0000707800
000078F000
000039E000
00003FC000
00001F8000
00001F0000
0000000000
0000000000
0000000000
00FFFFFF80
01FFFFFF80
01FFFFFF80
01FFFFFF00
01F0000000
01E0000000
03E0000000
03E0000000
03E0000000
03C0000000
03C0000000
07C0000000
07C0000000
07C0000000
0780000000
0F80000000
0FFFFFF800
0FFFFFF000
0FFFFFF000
0FFFFFF000
1F00000000
1F00000000
1F00000000
1E00000000
3E00000000
3E00000000
3E00000000
3E00000000
3C00000000
7C00000000
7C00000000
7C00000000
7FFFFFE000
7FFFFFE000
FFFFFFC000
FFFFFFC000
ENDCHAR
STARTCHAR 011B
ENCODING 283
SWIDTH 540 0
DWIDTH 27 0
BBX 25 38 4 -1
BITMAP
001C0380
001E0700
000E0F00
000F1E00
00073C00
0007F800
0003F000
0003E000
00000000
00000000
001FC000
007FF800
01FFFC00
03FFFE00
07F07F00
0FC03F00
1F801F00
1F000F80
3E000F80
3C000F80
3C000F00
7FFFFF00
7FFFFF00
7FFFFF00
FFFFFF00
F8000000
F8000000
F8000000
F8000000
F8003C00
F8007C00
7C00F800
7C01F800
7F03F000
3FFFE000
1FFFC000
0FFF0000
01FC0000
ENDCHAR
STARTCHAR 011C
ENCODING 284
SWIDTH 780 0
DWIDTH 39 0
BBX 36 47 5 -1
BITMAP
000007E000
00000FE000
00001FF000
00001C7000
0000387800
0000703800
0000E03C00
0000000000
0000000000
0000000000
0000FFF800
0003FFFE00
000FFFFF80
003FFFFF80
007F001FC0
00FC0007E0
01F00003E0
03E00003E0
07C00001F0
0F800001F0
0F800001F0
1F00000000
1E00000000
3E00000000
3C00000000
7C00000000
7C00000000
78001FFFE0
F8001FFFE0
F8001FFFC0
F8001FFFC0
F8000003C0
F8000003C0
F8000007C0
F800000780
F800000780
F800000F80
7C00001F80
7C00003F00
7E00007F00
3F0000FF00
3F8003FF00
1FF01FEF00
0FFFFF8E00
07FFFF0E00
01FFFC0E00
003FC00000
ENDCHAR
STARTCHAR 011D
ENCODING 285
SWIDTH 560 0
DWIDTH 28 0
BBX 28 49 2 -11
BITMAP
0000FC00
0001FC00
0003FE00
0003DE00
00078E00
000E0F00
001C0700
00000000
00000000
00000000
00000000
0007F000
001FF8F0
007FFCF0
00FFFEF0
01FC1FF0
03F00FE0
03E007E0
07C003E0
078003E0
0F8003E0
0F0003C0
1F0003C0
1F0003C0
1E0003C0
3E0003C0
3E000780
3E000780
3E000780
3E000F80
3E000F00
3E001F00
3E003F00
1F007F00
1F80FF00
0FFFEE00
07FFDE00
03FF9E00
00FC1C00
00003C00
00003C00
F8007800
F8007800
F800F000
FC03E000
7FFFE000
7FFFC000
1FFF0000
07F80000
ENDCHAR
STARTCHAR 011E
ENCODING 286
SWIDTH 780 0
DWIDTH 39 0
BBX 36 47 5 -1
BITMAP
0000700380
0000700700
00007FFF00
00003FFE00
00001FF800
00000FE000
0000000000
0000000000
0000000000
0000000000
0000FFF800
0003FFFE00
000FFFFF80
003FFFFF80
007F001FC0
00FC0007E0
01F00003E0
03E00003E0
07C00001F0
0F800001F0
0F800001F0
1F00000000
1E00000000
3E00000000
3C00000000
7C00000000
7C00000000
78001FFFE0
F8001FFFE0
F8001FFFC0
F8001FFFC0
F8000003C0
F8000003C0
F8000007C0
F800000780
F800000780
F800000F80
7C00001F80
7C00003F00
7E00007F00
3F0000FF00
3F8003FF00
1FF01FEF00
0FFFFF8E00
07FFFF0E00
01FFFC0E00
003FC00000
ENDCHAR
STARTCHAR 011F
ENCODING 287
SWIDTH 560 0
DWIDTH 28 0
BBX 28 47 2 -11
BITMAP
001C00E0
001C01C0
001FFFC0
000FFF80
0007FE00
0003F800
00000000
00000000
00000000
0007F000
001FF8F0
007FFCF0
00FFFEF0
01FC1FF0
03F00FE0
03E007E0
07C003E0
078003E0
0F8003E0
0F0003C0
1F0003C0
1F0003C0
1E0003C0
3E0003C0
3E000780
3E000780
3E000780
3E000F80
3E000F00
3E001F00
3E003F00
1F007F00
1F80FF00
0FFFEE00
07FFDE00
03FF9E00
00FC1C00
00003C00
00003C00
F8007800
F8007800
F800F000
FC03E000
7FFFE000
7FFFC000
1FFF0000
07F80000
ENDCHAR
STARTCHAR 0120
ENCODING 288
SWIDTH 780 0
DWIDTH 39 0
BBX 36 48 5 -1
BITMAP
000007C000
000007C000
000007C000
00000FC000
00000FC000
0000000000
0000000000
0000000000
0000000000
0000000000
0000000000
0000FFF800
0003FFFE00
000FFFFF80
003FFFFF80
007F001FC0
00FC0007E0
01F00003E0
03E00003E0
07C00001F0
0F800001F0
0F800001F0
1F00000000
1E00000000
3E00000000
3C00000000
7C00000000
7C00000000
78001FFFE0
F8001FFFE0
F8001FFFC0
F8001FFFC0
F8000003C0
F8000003C0
F8000007C0
F800000780
F800000780
F800000F80
7C00001F80
7C00003F00
7E00007F00
3F0000FF00
3F8003FF00
1FF01FEF00
0FFFFF8E00
07FFFF0E00
01FFFC0E00
003FC00000
ENDCHAR
STARTCHAR 0121
ENCODING 289
SWIDTH 560 0
DWIDTH 28 0
BBX 28 48 2 -11
BITMAP
0000F800
0000F800
0000F800
0001F800
0001F000
00000000
00000000
00000000
00000000
00000000
0007F000
001FF8F0
007FFCF0
00FFFEF0
01FC1FF0
03F00FE0
03E007E0
07C003E0
078003E0
0F8003E0
0F0003C0
1F0003C0
1F0003C0
1E0003C0
3E0003C0
3E000780
3E000780
3E000780
3E000F80
3E000F00
3E001F00
3E003F00
1F007F00
1F80FF00
0FFFEE00
07FFDE00
03FF9E00
00FC1C00
00003C00
00003C00
F8007800
F8007800
F800F000
FC03E000
7FFFE000
7FFFC000
1FFF0000
07F80000
ENDCHAR
STARTCHAR 0122
ENCODING 290
SWIDTH 780 0
DWIDTH 39 0
BBX 36 51 5 -14
BITMAP
0000FFF800
0003FFFE00
000FFFFF80
003FFFFF80
007F001FC0
00FC0007E0
01F00003E0
03E00003E0
07C00001F0
0F800001F0
0F800001F0
1F00000000
1E00000000
3E00000000
3C00000000
7C00000000
7C00000000
78001FFFE0
F8001FFFE0
F8001FFFC0
F8001FFFC0
F8000003C0
F8000003C0
F8000007C0
F800000780
F800000780
F800000F80
7C00001F80
7C00003F00
7E00007F00
3F0000FF00
3F8003FF00
1FF01FEF00
0FFFFF8E00
07FFFF0E00
01FFFC0E00
003FC00000
0000000000
0000000000
0000000000
003E000000
003E000000
003E000000
003E000000
007C000000
000C000000
000C000000
0018000000
0038000000
00F0000000
00C0000000
ENDCHAR
STARTCHAR 0123
ENCODING 291
SWIDTH 560 0
DWIDTH 28 0
BBX 28 48 2 -11
BITMAP
00001800
00007800
00006000
0000C000
0000F000
0000F000
0000F000
00000000
00000000
00000000
0007F000
001FF8F0
007FFCF0
00FFFEF0
01FC1FF0
03F00FE0
03E007E0
07C003E0
078003E0
0F8003E0
0F0003C0
1F0003C0
1F0003C0
1E0003C0
3E0003C0
3E000780
3E000780
3E000780
3E000F80
3E000F00
3E001F00
3E003F00
1F007F00
1F80FF00
0FFFEE00
07FFDE00
03FF9E00
00FC1C00
00003C00
00003C00
F8007800
F8007800
F800F000
FC03E000
7FFFE000
7FFFC000
1FFF0000
07F80000
ENDCHAR
STARTCHAR 0124
ENCODING 292
SWIDTH 720 0
DWIDTH 36 0
BBX 36 46 4 0
BITMAP
000007E000
00000FE000
00001EF000
00003CF000
0000387000
0000707800
0000E03800
0000000000
0000000000
0000000000
00F00001F0
01F00001E0
01F00001E0
01F00003E0
01E00003E0
01E00003E0
03E00003C0
03E00003C0
03E00007C0
03C00007C0
03C00007C0
07C0000780
07C0000F80
07C0000F80
0780000F80
0F80000F00
0FFFFFFF00
0FFFFFFF00
0FFFFFFF00
0FFFFFFF00
1F00001E00
1F00003E00
1F00003E00
1E00003E00
3E00003E00
3E00003C00
3E00007C00
3E00007C00
3C00007C00
7C00007800
7C00007800
7C0000F800
780000F800
780000F800
F80000F000
F80001F000
ENDCHAR
STARTCHAR 0125
ENCODING 293
SWIDTH 540 0
DWIDTH 27 0
BBX 26 46 3 0
BITMAP
0003F000
0003F000
0007F800
000F7800
001E3800
003C3C00
00781C00
00700E00
00000000
00000000
00F00000
01F00000
01E00000
01E00000
01E00000
01E00000
03E00000
03C00000
03C00000
03C1FC00
07C7FF00
079FFF00
07BFFF80
07F81F80
07E00FC0
0FC007C0
0F800780
0F800780
0F000780
0F000780
1F000F80
1E000F00
1E000F00
1E000F00
3E001F00
3C001E00
3C001E00
3C001E00
3C001E00
7C003E00
78003C00
78003C00
78003C00
78003C00
F8007C00
F0007800
ENDCHAR
STARTCHAR 0126
ENCODING 294
SWIDTH 720 0
DWIDTH 36 0
BBX 37 36 4 0
BITMAP
00F00001F0
00F00001F0
01F00001E0
01F00001E0
01F00003E0
01E00003E0
03E00003E0
1FFFFFFFF8
1FFFFFFFF8
1FFFFFFFF8
3FFFFFFFF8
07C0000780
07C0000780
07C0000F80
0780000F80
0780000F80
0FFFFFFF00
0FFFFFFF00
0FFFFFFF00
0FFFFFFF00
1F00001E00
1F00001E00
1F00003E00
1E00003E00
1E00003E00
3E00003C00
3E00003C00
3E00007C00
3C00007C00
3C00007C00
7C00007800
7C00007800
7C0000F800
780000F800
F80000F000
F80000F000
ENDCHAR
STARTCHAR 0127
ENCODING 295
SWIDTH 560 0
DWIDTH 28 0
BBX 26 36 3 0
BITMAP
00F00000
01F00000
01E00000
0FFFE000
0FFFE000
1FFFC000
03E00000
03C00000
03C00000
03C1FC00
03C7FF00
07DFFF80
07BFFF80
07F81FC0
07E00FC0
07C007C0
0FC00780
0F800780
0F000780
0F000F80
1F000F00
1E000F00
1E000F00
1E000F00
1E001F00
3E001E00
3C001E00
3C001E00
3C001E00
3C003E00
7C003C00
78003C00
78003C00
78003C00
F8007C00
F0007800
ENDCHAR
STARTCHAR 0128
ENCODING 296
SWIDTH 300 0
DWIDTH 15 0
BBX 20 47 5 0
BITMAP
03E070
07FCF0
0FFFE0
0E3FC0
1C0F80
000000
000000
000000
000000
000000
000000
00F800
00F000
01F000
01F000
01F000
01E000
01E000
03E000
03E000
03E000
03C000
07C000
07C000
07C000
078000
078000
0F8000
0F8000
0F8000
0F0000
1F0000
1F0000
1F0000
1F0000
1E0000
3E0000
3E0000
3E0000
3C0000
3C0000
7C0000
7C0000
7C0000
780000
F80000
F80000
ENDCHAR
STARTCHAR 0129
ENCODING 297
SWIDTH 260 0
DWIDTH 13 0
BBX 18 37 4 0
BITMAP
0F80C0
1FF1C0
1FFF80
3DFF80
383F00
000000
000000
000000
000000
000000
000000
07C000
078000
078000
078000
078000
0F8000
0F0000
0F0000
0F0000
0F0000
1F0000
1E0000
1E0000
1E0000
3E0000
3C0000
3C0000
3C0000
3C0000
7C0000
780000
780000
780000
780000
F80000
F00000
ENDCHAR
STARTCHAR 012A
ENCODING 298
SWIDTH 300 0
DWIDTH 15 0
BBX 18 43 5 0
BITMAP
07FFC0
0FFFC0
0FFFC0
000000
000000
000000
000000
00F800
00F000
01F000
01F000
01F000
01E000
01E000
03E000
03E000
03E000
03C000
07C000
07C000
07C000
078000
078000
0F8000
0F8000
0F8000
0F0000
1F0000
1F0000
1F0000
1F0000
1E0000
3E0000
3E0000
3E0000
3C0000
3C0000
7C0000
7C0000
7C0000
780000
F80000
F80000
ENDCHAR
STARTCHAR 012B
ENCODING 299
SWIDTH 260 0
DWIDTH 13 0
BBX 16 33 4 0
BITMAP
1FFF
3FFF
3FFF
0000
0000
0000
0000
07C0
0780
0780
0780
0780
0F80
0F00
0F00
0F00
0F00
1F00
1E00
1E00
1E00
3E00
3C00
3C00
3C00
3C00
7C00
7800
7800
7800
7800
F800
F000
ENDCHAR
STARTCHAR 012C
ENCODING 300
SWIDTH 300 0
DWIDTH 15 0
BBX 20 45 5 0
BITMAP
0E0070
0E00E0
0FFFE0
07FFC0
03FF00
01FC00
000000
000000
000000
00F800
00F000
01F000
01F000
01F000
01E000
01E000
03E000
03E000
03E000
03C000
07C000
07C000
07C000
078000
078000
0F8000
0F8000
0F8000
0F0000
1F0000
1F0000
1F0000
1F0000
1E0000
3E0000
3E0000
3E0000
3C0000
3C0000
7C0000
7C0000
7C0000
780000
F80000
F80000
ENDCHAR
STARTCHAR 012D
ENCODING 301
SWIDTH 260 0
DWIDTH 13 0
BBX 19 36 4 0
BITMAP
1C00E0
1C01C0
1FFFC0
0FFF80
07FE00
03F800
000000
000000
000000
000000
07C000
078000
078000
078000
078000
0F8000
0F0000
0F0000
0F0000
0F0000
1F0000
1E0000
1E0000
1E0000
3E0000
3C0000
3C0000
3C0000
3C0000
7C0000
780000
780000
780000
780000
F80000
F00000
ENDCHAR
STARTCHAR 012E
ENCODING 302
SWIDTH 280 0
DWIDTH 14 0
BBX 17 46 0 -10
BITMAP
000780
000F80
000F80
000F80
000F00
000F00
001F00
001F00
001F00
001E00
001E00
003E00
003E00
003E00
003C00
007C00
007C00
007C00
007800
007800
00F800
00F800
00F800
00F000
00F000
01F000
01F000
01F000
01E000
03E000
03E000
03E000
03E000
03C000
07C000
07C000
078000
1E0000
380000
780000
F00000
F00000
F00000
F86000
7FC000
1FC000
ENDCHAR
STARTCHAR 012F
ENCODING 303
SWIDTH 260 0
DWIDTH 13 0
BBX 18 46 -2 -10
BITMAP
0003C0
0003C0
0003C0
0007C0
000780
000000
000000
000000
000000
000000
000F00
000F00
001F00
001E00
001E00
001E00
001E00
003E00
003C00
003C00
003C00
007C00
007800
007800
007800
007800
00F800
00F000
00F000
00F000
00F000
01F000
01E000
01E000
01E000
01E000
078000
1E0000
3C0000
780000
F00000
F00000
F00000
F86000
7FC000
1FC000
ENDCHAR
STARTCHAR 0130
ENCODING 304
SWIDTH 280 0
DWIDTH 14 0
BBX 14 45 5 0
BITMAP
007C
007C
007C
00FC
00F8
0000
0000
0000
0000
00F0
01F0
01F0
01F0
01E0
01E0
03E0
03E0
03E0
03C0
03C0
07C0
07C0
07C0
0780
0F80
0F80
0F80
0F00
0F00
1F00
1F00
1F00
1E00
3E00
3E00
3E00
3E00
3C00
7C00
7C00
7C00
7800
7800
F800
F800
ENDCHAR
STARTCHAR 0131
ENCODING 305
SWIDTH 220 0
DWIDTH 11 0
BBX 10 26 3 0
BITMAP
07C0
0780
0780
0780
0780
0F80
0F00
0F00
0F00
0F00
1F00
1E00
1E00
1E00
3E00
3C00
3C00
3C00
3C00
7C00
7800
7800
7800
7800
F800
F000
ENDCHAR
STARTCHAR 0132
ENCODING 306
SWIDTH 740 0
DWIDTH 37 0
BBX 36 37 5 -1
BITMAP
00F00001F0
01F00001E0
01F00003E0
01F00003E0
01E00003E0
01E00003C0
03E00007C0
03E00007C0
03E00007C0
03C00007C0
03C0000780
07C0000F80
07C0000F80
07C0000F80
0780000F80
0F80000F00
0F80001F00
0F80001F00
0F00001F00
0F00001F00
1F00003E00
1F00003E00
1F00003E00
1E00003E00
3E7C003C00
3E7C007C00
3E7C007C00
3E78007C00
3C7800F800
7C7800F800
7C7801F800
7C7C03F000
787F0FE000
783FFFC000
F83FFF8000
F81FFF0000
0003F80000
ENDCHAR
STARTCHAR 0133
ENCODING 307
SWIDTH 380 0
DWIDTH 19 0
BBX 22 47 3 -11
BITMAP
00F07C
01F078
01E078
01E078
01E0F8
000000
000000
000000
000000
000000
03C1E0
0781E0
0781E0
0781E0
0783E0
0F83C0
0F03C0
0F03C0
0F07C0
0F07C0
1F0780
1E0780
1E0780
1E0F80
3E0F00
3C0F00
3C0F00
3C0F00
3C1F00
7C1E00
781E00
781E00
781E00
783E00
F83C00
F03C00
003C00
007C00
007800
007800
007800
00F800
00F800
0FF000
0FF000
1FE000
1F0000
ENDCHAR
STARTCHAR 0134
ENCODING 308
SWIDTH 500 0
DWIDTH 25 0
BBX 27 48 2 -1
BITMAP
00007C00
0000FC00
0001FC00
0003DE00
00078E00
00070F00
000E0700
001C0780
00000000
00000000
00000000
000003E0
000003E0
000003E0
000003C0
000007C0
000007C0
000007C0
000007C0
00000780
00000F80
00000F80
00000F80
00000F00
00001F00
00001F00
00001F00
00001F00
00001E00
00003E00
00003E00
00003E00
00003E00
00003C00
00007C00
7C007C00
78007C00
F8007800
F800F800
F800F800
F801F800
F801F000
FC03F000
7E0FE000
7FFFC000
3FFF8000
1FFE0000
07F00000
ENDCHAR
STARTCHAR 0135
ENCODING 309
SWIDTH 260 0
DWIDTH 13 0
BBX 21 48 -2 -11
BITMAP
0007E0
000FE0
000FF0
001EF0
003C70
007878
00F038
000000
000000
000000
000000
000F00
000F00
000F00
000F00
001F00
001E00
001E00
001E00
003E00
003C00
003C00
003C00
003C00
007C00
007800
007800
007800
007800
00F800
00F000
00F000
00F000
01F000
01F000
01E000
01E000
01E000
03E000
03C000
03C000
03C000
07C000
07C000
7F8000
FF8000
FF0000
F80000
ENDCHAR
STARTCHAR 0136
ENCODING 310
SWIDTH 660 0
DWIDTH 33 0
BBX 36 51 4 -15
BITMAP
00F00003F0
01F00007E0
01F0000FC0
01F0003F00
01E0007E00
01E000FC00
03E001F800
03E003E000
03E00FC000
03C01F8000
03C03F0000
07C07E0000
07C0F80000
07C3F00000
0787E00000
0F8FE00000
0F9FE00000
0FBFF00000
0FFCF00000
0FF0F80000
1FE0F80000
1FC07C0000
1F807C0000
1F003E0000
3E003E0000
3E001F0000
3E001F0000
3E000F8000
3C000F8000
7C000FC000
7C0007C000
7C0007E000
780003E000
780003F000
F80001F000
F80001F800
0000000000
0000000000
0000000000
0000000000
001F000000
001F000000
001F000000
001F000000
003E000000
0006000000
0006000000
000C000000
001C000000
0078000000
0060000000
ENDCHAR
STARTCHAR 0137
ENCODING 311
SWIDTH 500 0
DWIDTH 25 0
BBX 26 51 3 -15
BITMAP
00F00000
01F00000
01E00000
01E00000
01E00000
01E00000
03E00000
03C00000
03C00000
03C00000
07C00FC0
07801F00
07803E00
07807C00
0781F800
0F83F000
0F07C000
0F0F8000
0F3F0000
0F7E0000
1FFF0000
1FFF0000
1FEF8000
1F8F8000
3F078000
3E07C000
3C03C000
3C03E000
3C03E000
7C01F000
7801F000
7800F000
7800F800
7800F800
F8007C00
F0007C00
00000000
00000000
00000000
00000000
01F00000
01F00000
01F00000
01F00000
03E00000
00600000
00600000
00C00000
01C00000
07800000
06000000
ENDCHAR
STARTCHAR 0138
ENCODING 312
SWIDTH 500 0
DWIDTH 25 0
BBX 26 26 3 0
BITMAP
07C00FC0
07801F00
07803E00
07807C00
0781F000
0F83E000
0F07C000
0F0F8000
0F3E0000
1F7C0000
1EF80000
1FF00000
1FC00000
1FC00000
3FE00000
3DF00000
3CF80000
3C7C0000
3C3E0000
7C1F0000
780F8000
7807C000
7803E000
7801F000
F800F800
F0007C00
ENDCHAR
STARTCHAR 0139
ENCODING 313
SWIDTH 560 0
DWIDTH 28 0
BBX 23 46 4 0
BITMAP
0000FC
0000F8
0001F0
0003C0
000780
000F00
001E00
003C00
000000
000000
00F000
01F000
01F000
01F000
01E000
01E000
03E000
03E000
03E000
03C000
03C000
07C000
07C000
07C000
078000
0F8000
0F8000
0F8000
0F0000
0F0000
1F0000
1F0000
1F0000
1E0000
3E0000
3E0000
3E0000
3C0000
3C0000
7C0000
7C0000
7C0000
7FFFFE
7FFFFE
FFFFFE
FFFFFE
ENDCHAR
STARTCHAR 013A
ENCODING 314
SWIDTH 220 0
DWIDTH 11 0
BBX 18 46 3 0
BITMAP
000FC0
000F80
001F00
003C00
007800
00F000
01E000
03C000
000000
000000
00F000
01F000
01E000
01E000
01E000
01E000
03E000
03C000
03C000
03C000
07C000
078000
078000
078000
078000
0F8000
0F0000
0F0000
0F0000
0F0000
1F0000
1E0000
1E0000
1E0000
3E0000
3C0000
3C0000
3C0000
3C0000
7C0000
780000
780000
780000
780000
F80000
F00000
ENDCHAR
STARTCHAR 013B
ENCODING 315
SWIDTH 560 0
DWIDTH 28 0
BBX 23 51 4 -15
BITMAP
00F000
01F000
01F000
01F000
01E000
01E000
03E000
03E000
03E000
03C000
03C000
07C000
07C000
07C000
078000
0F8000
0F8000
0F8000
0F0000
0F0000
1F0000
1F0000
1F0000
1E0000
3E0000
3E0000
3E0000
3C0000
3C0000
7C0000
7C0000
7C0000
7FFFFE
7FFFFE
FFFFFE
FFFFFE
000000
000000
000000
000000
00F800
00F800
00F800
00F800
01F000
003000
003000
006000
00E000
03C000
030000
ENDCHAR
STARTCHAR 013C
ENCODING 316
SWIDTH 220 0
DWIDTH 11 0
BBX 15 51 0 -15
BITMAP
001E
003E
003C
003C
003C
003C
007C
0078
0078
0078
00F8
00F0
00F0
00F0
00F0
01F0
01E0
01E0
01E0
01E0
03E0
03C0
03C0
03C0
07C0
0780
0780
0780
0780
0F80
0F00
0F00
0F00
0F00
1F00
1E00
0000
0000
0000
0000
3E00
3E00
3E00
3E00
7C00
0C00
0C00
1800
3800
F000
C000
ENDCHAR
STARTCHAR 013D
ENCODING 317
SWIDTH 560 0
DWIDTH 28 0
BBX 24 37 4 0
BITMAP
00000F
00F01F
01F01E
01F01E
01F006
01E00C
01E03C
03E030
03E000
03E000
03C000
03C000
07C000
07C000
07C000
078000
0F8000
0F8000
0F8000
0F0000
0F0000
1F0000
1F0000
1F0000
1E0000
3E0000
3E0000
3E0000
3C0000
3C0000
7C0000
7C0000
7C0000
7FFFFE
7FFFFE
FFFFFE
FFFFFE
ENDCHAR
STARTCHAR 013E
ENCODING 318
SWIDTH 340 0
DWIDTH 17 0
BBX 21 37 3 0
BITMAP
000078
00F0F8
01F0F0
01E0F0
01E030
01E060
01E1E0
03E180
03C000
03C000
03C000
07C000
078000
078000
078000
078000
0F8000
0F0000
0F0000
0F0000
0F0000
1F0000
1E0000
1E0000
1E0000
3E0000
3C0000
3C0000
3C0000
3C0000
7C0000
780000
780000
780000
780000
F80000
F00000
ENDCHAR
STARTCHAR 013F
ENCODING 319
SWIDTH 560 0
DWIDTH 28 0
BBX 24 36 4 0
BITMAP
00F000
01F000
01F000
01F000
01E000
01E000
03E000
03E000
03E000
03C000
03C000
07C000
07C000
07C000
078000
0F801F
0F801F
0F801F
0F003F
0F003E
1F0000
1F0000
1F0000
1E0000
3E0000
3E0000
3E0000
3C0000
3C0000
7C0000
7C0000
7C0000
7FFFFE
7FFFFE
FFFFFE
FFFFFE
ENDCHAR
STARTCHAR 0140
ENCODING 320
SWIDTH 360 0
DWIDTH 18 0
BBX 18 36 3 0
BITMAP
00F000
01F000
01E000
01E000
01E000
01E000
03E000
03C000
03C000
03C000
07C000
078000
078000
078000
078000
0F87C0
0F07C0
0F07C0
0F0FC0
0F0F80
1F0000
1E0000
1E0000
1E0000
3E0000
3C0000
3C0000
3C0000
3C0000
7C0000
780000
780000
780000
780000
F80000
F00000
ENDCHAR
STARTCHAR 0141
ENCODING 321
SWIDTH 560 0
DWIDTH 28 0
BBX 24 36 4 0
BITMAP
007800
00F800
00F800
00F800
00F000
00F000
01F000
01F000
01F000
01E000
01E000
03E030
03E060
03E1E0
03C7E0
07CF80
07FF00
07FC00
07F000
1FE000
7F8000
7F8000
FF8000
CF0000
1F0000
1F0000
1F0000
1E0000
1E0000
3E0000
3E0000
3E0000
3FFFFF
3FFFFF
7FFFFF
7FFFFF
ENDCHAR
STARTCHAR 0142
ENCODING 322
SWIDTH 220 0
DWIDTH 11 0
BBX 13 36 3 0
BITMAP
00F0
00F0
00F0
01F0
01E0
01E0
01E0
03E0
03C0
03C0
03C0
03C0
07C0
0788
0790
07F0
07F0
0FE0
3F80
7F00
FF00
DF00
1E00
1E00
1E00
1E00
3E00
3C00
3C00
3C00
3C00
7C00
7800
7800
7800
F800
ENDCHAR
STARTCHAR 0143
ENCODING 323
SWIDTH 720 0
DWIDTH 36 0
BBX 36 46 4 0
BITMAP
000000FC00
000000F800
000001F000
000003C000
0000078000
00000F0000
00001E0000
00003C0000
0000000000
0000000000
00F80000F0
01FC0001F0
01FC0001F0
01FC0001E0
01FE0001E0
01FE0001E0
03FF0003E0
03FF0003E0
03CF8003C0
03CF8003C0
07CF8003C0
07C7C007C0
0787C007C0
0783E00780
0783E00780
0F81F00F80
0F81F00F80
0F01F00F00
0F00F80F00
0F00F80F00
1F007C1F00
1F007C1F00
1E003C1E00
1E003E1E00
3E003E1E00
3E001F3E00
3C001F3E00
3C000FBC00
3C000FBC00
7C000FFC00
7C0007FC00
780007F800
780003F800
780003F800
F80001F800
F80001F800
ENDCHAR
STARTCHAR 0144
ENCODING 324
SWIDTH 540 0
DWIDTH 27 0
BBX 26 37 3 0
BITMAP
00000FC0
00000F80
00001F00
00003C00
00007800
0000F000
0001E000
0003C000
00000000
00000000
0001FC00
078FFE00
079FFF00
07FFFF80
07F81F80
07E00FC0
0FC007C0
0F800780
0F000780
0F000780
0E000F80
1E000F00
1E000F00
1E000F00
1C000F00
3C001F00
3C001E00
3C001E00
3C001E00
38001E00
78003E00
78003C00
78003C00
70003C00
70003C00
F0007C00
F0007800
ENDCHAR
STARTCHAR 0145
ENCODING 325
SWIDTH 720 0
DWIDTH 36 0
BBX 36 51 4 -15
BITMAP
00F80000F0
01FC0001F0
01FC0001F0
01FC0001E0
01FE0001E0
01FE0001E0
03FF0003E0
03FF0003E0
03CF8003C0
03CF8003C0
07CF8003C0
07C7C007C0
0787C007C0
0783E00780
0783E00780
0F81F00F80
0F81F00F80
0F01F00F00
0F00F80F00
0F00F80F00
1F007C1F00
1F007C1F00
1E003C1E00
1E003E1E00
3E003E1E00
3E001F3E00
3C001F3E00
3C000FBC00
3C000FBC00
7C000FFC00
7C0007FC00
780007F800
780003F800
780003F800
F80001F800
F80001F800
0000000000
0000000000
0000000000
0000000000
001F000000
001F000000
001F000000
001F000000
003E000000
0006000000
0006000000
000C000000
001C000000
0078000000
0060000000
ENDCHAR
STARTCHAR 0146
ENCODING 326
SWIDTH 540 0
DWIDTH 27 0
BBX 26 42 3 -15
BITMAP
0001FC00
078FFE00
079FFF00
07FFFF80
07F81F80
07E00FC0
0FC007C0
0F800780
0F000780
0F000780
0E000F80
1E000F00
1E000F00
1E000F00
1C000F00
3C001F00
3C001E00
3C001E00
3C001E00
38001E00
78003E00
78003C00
78003C00
70003C00
70003C00
F0007C00
F0007800
00000000
00000000
00000000
00000000
00F80000
00F80000
00F80000
00F80000
01F00000
00300000
00300000
00600000
00E00000
03C00000
03000000
ENDCHAR
STARTCHAR 0147
ENCODING 327
SWIDTH 720 0
DWIDTH 36 0
BBX 36 47 4 0
BITMAP
0000700E00
0000781C00
0000383C00
00003C7800
00001CF000
00001FE000
00000FC000
00000F8000
0000000000
0000000000
0000000000
00F80000F0
01FC0001F0
01FC0001F0
01FC0001E0
01FE0001E0
01FE0001E0
03FF0003E0
03FF0003E0
03CF8003C0
03CF8003C0
07CF8003C0
07C7C007C0
0787C007C0
0783E00780
0783E00780
0F81F00F80
0F81F00F80
0F01F00F00
0F00F80F00
0F00F80F00
1F007C1F00
1F007C1F00
1E003C1E00
1E003E1E00
3E003E1E00
3E001F3E00
3C001F3E00
3C000FBC00
3C000FBC00
7C000FFC00
7C0007FC00
780007F800
780003F800
780003F800
F80001F800
F80001F800
ENDCHAR
STARTCHAR 0148
ENCODING 328
SWIDTH 540 0
DWIDTH 27 0
BBX 26 37 3 0
BITMAP
000E01C0
000F0380
00070780
00078F00
00039E00
0003FC00
0001F800
0001F000
00000000
00000000
0001FC00
078FFE00
079FFF00
07FFFF80
07F81F80
07E00FC0
0FC007C0
0F800780
0F000780
0F000780
0E000F80
1E000F00
1E000F00
1E000F00
1C000F00
3C001F00
3C001E00
3C001E00
3C001E00
38001E00
78003E00
78003C00
78003C00
70003C00
70003C00
F0007C00
F0007800
ENDCHAR
STARTCHAR 0149
ENCODING 329
SWIDTH 700 0
DWIDTH 35 0
BBX 27 37 7 0
BITMAP
1F000000
3F000000
3F000000
3E000000
3E000000
3E000000
0E000000
0C000000
0C000000
1C000000
1800FE00
F1E3FF80
E1EFFFC0
01DFFFE0
03FC07E0
03F003E0
03E003E0
03E003E0
07C003E0
078003C0
078003C0
078003C0
070003C0
0F0007C0
0F000780
0F000780
0F000780
0E000780
1E000F00
1E000F00
1E000F00
1C000F00
3C001F00
3C001E00
3C001E00
3C001E00
38001E00
ENDCHAR
STARTCHAR 014A
ENCODING 330
SWIDTH 640 0
DWIDTH 32 0
BBX 31 38 4 -1
BITMAP
00003F00
00F1FFC0
01F3FFF0
01F7FFF0
01FF01F8
01FC00FC
01F8007C
03F0007C
03F0003C
03E0003E
03E0003E
07C0003E
07C0003E
07C0003E
07C0003C
0780003C
0F80003C
0F80007C
0F80007C
0F000078
0F000078
1F0000F8
1F0000F0
1F0000F0
1E0001F0
3E0001E0
3E0003E0
3E0003E0
3E0007C0
3C0007C0
7C000F80
7C001F00
7C001F00
78007E00
783FFC00
F83FF800
F83FF000
001FC000
ENDCHAR
STARTCHAR 014B
ENCODING 331
SWIDTH 540 0
DWIDTH 27 0
BBX 26 38 3 -11
BITMAP
0001FC00
0787FF00
079FFF80
07BFFF80
07F81FC0
0FE00FC0
0FC007C0
0F800780
0F800780
0F000780
1F000F80
1E000F00
1E000F00
1E000F00
3E000F00
3E001F00
3C001E00
3C001E00
3C001E00
7C001E00
7C003E00
78003C00
78003C00
78003C00
F8003C00
F8007C00
F0007800
00007800
00007800
0000F800
0000F000
0000F000
0000F000
0001F000
001FE000
001FE000
001FC000
003E0000
ENDCHAR
STARTCHAR 014C
ENCODING 332
SWIDTH 780 0
DWIDTH 39 0
BBX 36 44 5 -1
BITMAP
00007FFC00
0000FFFC00
0000FFFC00
0000000000
0000000000
0000000000
0000000000
0001FFF000
0007FFFC00
001FFFFE00
003FFFFF00
00FF007F80
01FC001FC0
03F0000FC0
07E00007E0
07C00003E0
0F800003E0
1F000001E0
1F000001F0
3E000001F0
3E000001F0
7C000001F0
7C000001F0
78000001E0
78000003E0
F8000003E0
F8000003E0
F8000003E0
F8000007C0
F8000007C0
F8000007C0
F800000F80
F800000F80
F800001F00
7C00003F00
7C00007E00
7E0000FC00
3F0001F800
3F8007F000
1FF03FE000
0FFFFFC000
07FFFF0000
01FFFC0000
003FE00000
ENDCHAR
STARTCHAR 014D
ENCODING 333
SWIDTH 560 0
DWIDTH 28 0
BBX 25 34 4 -1
BITMAP
003FFE00
007FFE00
007FFE00
00000000
00000000
00000000
001FC000
007FF800
01FFFC00
03FFFE00
07E07E00
0FC03F00
1F801F00
1F000F80
3E000F80
3E000F80
3C000F80
7C000F80
78000F00
78000F00
F8001F00
F8001F00
F8001E00
F8001E00
F8003E00
F8003C00
F8007C00
FC00F800
7C01F800
7F07F000
3FFFE000
1FFFC000
0FFF0000
03F80000
ENDCHAR
STARTCHAR 014E
ENCODING 334
SWIDTH 780 0
DWIDTH 39 0
BBX 36 46 5 -1
BITMAP
0001C00E00
0001C01C00
0001FFFC00
0000FFF800
00007FE000
00003F8000
0000000000
0000000000
0000000000
0001FFF000
0007FFFC00
001FFFFE00
003FFFFF00
00FF007F80
01FC001FC0
03F0000FC0
07E00007E0
07C00003E0
0F800003E0
1F000001E0
1F000001F0
3E000001F0
3E000001F0
7C000001F0
7C000001F0
78000001E0
78000003E0
F8000003E0
F8000003E0
F8000003E0
F8000007C0
F8000007C0
F8000007C0
F800000F80
F800000F80
F800001F00
7C00003F00
7C00007E00
7E0000FC00
3F0001F800
3F8007F000
1FF03FE000
0FFFFFC000
07FFFF0000
01FFFC0000
003FE00000
ENDCHAR
STARTCHAR 014F
ENCODING 335
SWIDTH 560 0
DWIDTH 28 0
BBX 26 37 4 -1
BITMAP
003801C0
00380380
003FFF80
001FFF00
000FFC00
0007F000
00000000
00000000
00000000
001FC000
007FF800
01FFFC00
03FFFE00
07E07E00
0FC03F00
1F801F00
1F000F80
3E000F80
3E000F80
3C000F80
7C000F80
78000F00
78000F00
F8001F00
F8001F00
F8001E00
F8001E00
F8003E00
F8003C00
F8007C00
FC00F800
7C01F800
7F07F000
3FFFE000
1FFFC000
0FFF0000
03F80000
ENDCHAR
STARTCHAR 0150
ENCODING 336
SWIDTH 780 0
DWIDTH 39 0
BBX 37 48 5 -1
BITMAP
000001F9F8
000001F1F0
000003E3E0
0000078780
00000F0F00
00001E1E00
00003C3C00
0000787800
0000000000
0000000000
0000000000
0001FFF000
0007FFFC00
001FFFFE00
003FFFFF00
00FF007F80
01FC001FC0
03F0000FC0
07E00007E0
07C00003E0
0F800003E0
1F000001E0
1F000001F0
3E000001F0
3E000001F0
7C000001F0
7C000001F0
78000001E0
78000003E0
F8000003E0
F8000003E0
F8000003E0
F8000007C0
F8000007C0
F8000007C0
F800000F80
F800000F80
F800001F00
7C00003F00
7C00007E00
7E0000FC00
3F0001F800
3F8007F000
1FF03FE000
0FFFFFC000
07FFFF0000
01FFFC0000
003FE00000
ENDCHAR
STARTCHAR 0151
ENCODING 337
SWIDTH 560 0
DWIDTH 28 0
BBX 30 38 4 -1
BITMAP
0000FCFC
0000F8F8
0001F1F0
0003C3C0
00078780
000F0F00
001E1E00
003C3C00
00000000
00000000
001FC000
007FF800
01FFFC00
03FFFE00
07E07E00
0FC03F00
1F801F00
1F000F80
3E000F80
3E000F80
3C000F80
7C000F80
78000F00
78000F00
F8001F00
F8001F00
F8001E00
F8001E00
F8003E00
F8003C00
F8007C00
FC00F800
7C01F800
7F07F000
3FFFE000
1FFFC000
0FFF0000
03F80000
ENDCHAR
STARTCHAR 0152
ENCODING 338
SWIDTH 1000 0
DWIDTH 50 0
BBX 50 37 5 0
BITMAP
0003FF87FFFFC0
000FFFCFFFFFC0
003FFFEFFFFFC0
007FFFFFFFFFC0
00FC01FF800000
01F8007F000000
03E0003F000000
07C0003F000000
07C0001F000000
0F80001E000000
0F00001E000000
1F00003E000000
1E00003E000000
3E00003E000000
3E00003C000000
3C00003C000000
7C00007FFFFC00
7C00007FFFFC00
7800007FFFFC00
7800007FFFFC00
F80000F8000000
F80000F8000000
F80000F8000000
F80000F8000000
F80000F0000000
F80001F0000000
F80001F0000000
F80001F0000000
F80003E0000000
7C0007E0000000
7C000FE0000000
7F003FE0000000
3FC0FFFFFFF000
1FFFFBFFFFE000
0FFFE7FFFFE000
07FFC7FFFFE000
00FE0000000000
ENDCHAR
STARTCHAR 0153
ENCODING 339
SWIDTH 940 0
DWIDTH 47 0
BBX 45 28 4 -1
BITMAP
001FC001FC00
007FF80FFF00
01FFFC3FFFC0
03FFFE7FFFE0
07E07EFE07F0
0FC03FF803F0
1F801FF001F0
1F000FE000F8
3E000FC000F8
3E000F8000F8
7C000F8000F0
7C000FFFFFF0
78000FFFFFF0
78000FFFFFF0
F8000FFFFFF0
F8001F000000
F8001F000000
F8001E000000
F8003E000000
F8003F0003C0
F8007F0007C0
F800FF000F80
7C01FF801F80
7F07E7E07F00
3FFFE7FFFE00
1FFF83FFFC00
0FFF00FFF000
03F8003F8000
ENDCHAR
STARTCHAR 0154
ENCODING 340
SWIDTH 700 0
DWIDTH 35 0
BBX 34 46 4 0
BITMAP
000001F800
000001F000
000003E000
0000078000
00000F0000
00001E0000
00003C0000
0000780000
0000000000
0000000000
00FFFFF800
01FFFFFE00
01FFFFFF00
01FFFFFF80
01F0003F80
01E0000F80
03E00007C0
03E00007C0
03E00007C0
03C00007C0
03C0000780
07C0000F80
07C0000F80
07C0001F00
0780003E00
0F8000FC00
0FFFFFF800
0FFFFFE000
0FFFFFF000
0FFFFFF800
1F0001F800
1F0000FC00
1F00007C00
1E00007C00
3E00007C00
3E00007800
3E00007800
3E00007800
3C0000F800
7C0000F800
7C0000F800
7C0000F800
780000F800
780000F800
F80000F800
F80000F800
ENDCHAR
STARTCHAR 0155
ENCODING 341
SWIDTH 320 0
DWIDTH 16 0
BBX 22 37 3 0
BITMAP
0000FC
0000F8
0001F0
0003C0
000780
000F00
001E00
003C00
000000
000000
0003C0
078FC0
079FC0
07BFC0
07FC00
07F000
0FC000
0F8000
0F8000
0F0000
0F0000
1E0000
1E0000
1E0000
1C0000
3C0000
3C0000
3C0000
3C0000
380000
780000
780000
780000
780000
700000
F00000
F00000
ENDCHAR
STARTCHAR 0156
ENCODING 342
SWIDTH 700 0
DWIDTH 35 0
BBX 34 51 4 -15
BITMAP
00FFFFF800
01FFFFFE00
01FFFFFF00
01FFFFFF80
01F0003F80
01E0000F80
03E00007C0
03E00007C0
03E00007C0
03C00007C0
03C0000780
07C0000F80
07C0000F80
07C0001F00
0780003E00
0F8000FC00
0FFFFFF800
0FFFFFE000
0FFFFFF000
0FFFFFF800
1F0001F800
1F0000FC00
1F00007C00
1E00007C00
3E00007C00
3E00007800
3E00007800
3E00007800
3C0000F800
7C0000F800
7C0000F800
7C0000F800
780000F800
780000F800
F80000F800
F80000F800
0000000000
0000000000
0000000000
0000000000
000F800000
000F800000
000F800000
000F800000
001F000000
0003000000
0003000000
0006000000
000E000000
003C000000
0030000000
ENDCHAR
STARTCHAR 0157
ENCODING 343
SWIDTH 320 0
DWIDTH 16 0
BBX 21 42 0 -15
BITMAP
000078
00F1F8
00F3F8
00F7F8
00FF80
00FE00
01F800
01F000
01F000
01E000
01E000
03C000
03C000
03C000
038000
078000
078000
078000
078000
070000
0F0000
0F0000
0F0000
0F0000
0E0000
1E0000
1E0000
000000
000000
000000
000000
3E0000
3E0000
3E0000
3E0000
7C0000
0C0000
0C0000
180000
380000
F00000
C00000
ENDCHAR
STARTCHAR 0158
ENCODING 344
SWIDTH 700 0
DWIDTH 35 0
BBX 34 47 4 0
BITMAP
0000E01C00
0000F03800
0000707800
000078F000
000039E000
00003FC000
00001F8000
00001F0000
0000000000
0000000000
0000000000
00FFFFF800
01FFFFFE00
01FFFFFF00
01FFFFFF80
01F0003F80
01E0000F80
03E00007C0
03E00007C0
03E00007C0
03C00007C0
03C0000780
07C0000F80
07C0000F80
07C0001F00
0780003E00
0F8000FC00
0FFFFFF800
0FFFFFE000
0FFFFFF000
0FFFFFF800
1F0001F800
1F0000FC00
1F00007C00
1E00007C00
3E00007C00
3E00007800
3E00007800
3E00007800
3C0000F800
7C0000F800
7C0000F800
7C0000F800
780000F800
780000F800
F80000F800
F80000F800
ENDCHAR
STARTCHAR 0159
ENCODING 345
SWIDTH 320 0
DWIDTH 16 0
BBX 21 37 3 0
BITMAP
01C038
01E070
00E0F0
00F1E0
0073C0
007F80
003F00
003E00
000000
000000
0003C0
078FC0
079FC0
07BFC0
07FC00
07F000
0FC000
0F8000
0F8000
0F0000
0F0000
1E0000
1E0000
1E0000
1C0000
3C0000
3C0000
3C0000
3C0000
380000
780000
780000
780000
780000
700000
F00000
F00000
ENDCHAR
STARTCHAR 015A
ENCODING 346
SWIDTH 660 0
DWIDTH 33 0
BBX 31 47 4 -1
BITMAP
000001F8
000001F0
000003E0
00000780
00000F00
00001E00
00003C00
00007800
00000000
00000000
0003FFC0
001FFFE0
003FFFF8
007FFFF8
00FC00FC
01F0007C
03E0003E
03C0003E
03C0003E
07C0003E
07C0003C
07C00000
07C00000
07F00000
03FE0000
03FFC000
01FFFC00
00FFFF00
001FFFC0
0001FFE0
00003FF0
000007F0
000001F0
000001F8
F80000F8
F80000F8
F80000F0
F80000F0
F80001F0
F80003E0
FC0007C0
7E000FC0
7F807F80
3FFFFF00
1FFFFC00
07FFF000
00FF8000
ENDCHAR
STARTCHAR 015B
ENCODING 347
SWIDTH 500 0
DWIDTH 25 0
BBX 24 38 3 -1
BITMAP
00003F
00003E
00007C
0000F0
0001E0
0003C0
000780
000F00
000000
000000
001FC0
00FFF0
01FFF8
03FFFC
07E07C
0F803E
0F003E
1F003C
1F0000
1F0000
1F8000
1FE000
0FFE00
07FFC0
01FFF0
003FF8
0003F8
0000FC
00007C
F8007C
F80078
F800F8
F801F8
FE03F0
7FFFE0
3FFFC0
1FFF80
07FC00
ENDCHAR
STARTCHAR 015C
ENCODING 348
SWIDTH 660 0
DWIDTH 33 0
BBX 31 48 4 -1
BITMAP
00000F80
00001F80
00003FC0
00007FC0
000071E0
0000E1E0
0001C0E0
00038070
00000000
00000000
00000000
0003FFC0
001FFFE0
003FFFF8
007FFFF8
00FC00FC
01F0007C
03E0003E
03C0003E
03C0003E
07C0003E
07C0003C
07C00000
07C00000
07F00000
03FE0000
03FFC000
01FFFC00
00FFFF00
001FFFC0
0001FFE0
00003FF0
000007F0
000001F0
000001F8
F80000F8
F80000F8
F80000F0
F80000F0
F80001F0
F80003E0
FC0007C0
7E000FC0
7F807F80
3FFFFF00
1FFFFC00
07FFF000
00FF8000
ENDCHAR
STARTCHAR 015D
ENCODING 349
SWIDTH 500 0
DWIDTH 25 0
BBX 23 38 3 -1
BITMAP
0003E0
0003F0
0007F0
000F70
001E78
003C38
00783C
00F01C
000000
000000
001FC0
00FFF0
01FFF8
03FFFC
07E07C
0F803E
0F003E
1F003C
1F0000
1F0000
1F8000
1FE000
0FFE00
07FFC0
01FFF0
003FF8
0003F8
0000FC
00007C
F8007C
F80078
F800F8
F801F8
FE03F0
7FFFE0
3FFFC0
1FFF80
07FC00
ENDCHAR
STARTCHAR 015E
ENCODING 350
SWIDTH 660 0
DWIDTH 33 0
BBX 32 47 4 -10
BITMAP
0003FFE0
000FFFF0
003FFFFC
007FFFFC
00FE00FE
01F8003E
01E0003F
03C0001F
03C0001F
07C0001F
07C0001E
07C00000
07C00000
07F00000
03FE0000
03FFC000
01FFFC00
007FFF80
000FFFE0
0001FFF0
00001FF8
000003F8
000000F8
000000FC
F800007C
F800007C
F8000078
F8000078
F80000F8
F80001F0
FC0003E0
7E0007E0
7FC03FC0
3FFFFF80
1FFFFE00
07FFF800
00FFC000
00180000
00380000
003F0000
007F8000
00078000
00078000
000F0000
0E1F0000
1FFE0000
03F00000
ENDCHAR
STARTCHAR 015F
ENCODING 351
SWIDTH 500 0
DWIDTH 25 0
BBX 23 38 3 -11
BITMAP
001FC0
00FFF0
01FFF8
07FFFC
07E07C
0F803E
0F003E
1F003C
1F0000
1F0000
1F8000
1FE000
0FFE00
07FFC0
01FFF0
003FF8
0003F8
0000FC
00007C
F8007C
F80078
F800F8
F801F8
FE07F0
7FFFE0
7FFFC0
1FFF00
07F800
018000
018000
03F000
03F800
007800
007800
407000
70F000
FFE000
1F8000
ENDCHAR
STARTCHAR 0160
ENCODING 352
SWIDTH 660 0
DWIDTH 33 0
BBX 31 48 4 -1
BITMAP
0000E01C
0000F038
00007078
000078F0
000039E0
00003FC0
00001F80
00001F00
00000000
00000000
00000000
0003FFC0
001FFFE0
003FFFF8
007FFFF8
00FC00FC
01F0007C
03E0003E
03C0003E
03C0003E
07C0003E
07C0003C
07C00000
07C00000
07F00000
03FE0000
03FFC000
01FFFC00
00FFFF00
001FFFC0
0001FFE0
00003FF0
000007F0
000001F0
000001F8
F80000F8
F80000F8
F80000F0
F80000F0
F80001F0
F80003E0
FC0007C0
7E000FC0
7F807F80
3FFFFF00
1FFFFC00
07FFF000
00FF8000
ENDCHAR
STARTCHAR 0161
ENCODING 353
SWIDTH 500 0
DWIDTH 25 0
BBX 24 38 3 -1
BITMAP
003807
003C0E
001C1E
001E3C
000E78
000FF0
0007E0
0007C0
000000
000000
001FC0
00FFF0
01FFF8
03FFFC
07E07C
0F803E
0F003E
1F003C
1F0000
1F0000
1F8000
1FE000
0FFE00
07FFC0
01FFF0
003FF8
0003F8
0000FC
00007C
F8007C
F80078
F800F8
F801F8
FE03F0
7FFFE0
3FFFC0
1FFF80
07FC00
ENDCHAR
STARTCHAR 0162
ENCODING 354
SWIDTH 620 0
DWIDTH 31 0
BBX 29 47 8 -11
BITMAP
7FFFFFF8
FFFFFFF8
FFFFFFF8
FFFFFFF8
000F8000
000F0000
001F0000
001F0000
001F0000
001E0000
001E0000
003E0000
003E0000
003E0000
003C0000
007C0000
007C0000
007C0000
007C0000
00780000
00F80000
00F80000
00F80000
00F00000
00F00000
01F00000
01F00000
01F00000
01E00000
03E00000
03E00000
03E00000
03C00000
03C00000
07C00000
07C00000
00C00000
01800000
03800000
03F00000
07F80000
00780000
00780000
00700000
F1F00000
FFE00000
1F800000
ENDCHAR
STARTCHAR 0163
ENCODING 355
SWIDTH 280 0
DWIDTH 14 0
BBX 18 45 -1 -12
BITMAP
001E00
001E00
001E00
001E00
003E00
003C00
003C00
03FFC0
03FFC0
03FFC0
007800
007800
007800
00F800
00F000
00F000
00F000
00F000
01F000
01E000
01E000
01E000
03E000
03C000
03C000
03C000
03C000
07C000
07C000
07C000
07FC00
07FC00
03F800
01F800
018000
018000
030000
03F000
07F800
007800
007800
00F000
F1F000
FFE000
3F8000
ENDCHAR
STARTCHAR 0164
ENCODING 356
SWIDTH 620 0
DWIDTH 31 0
BBX 29 47 8 0
BITMAP
00380700
003C0E00
001C1E00
001E3C00
000E7800
000FF000
0007E000
0007C000
00000000
00000000
00000000
7FFFFFF8
FFFFFFF8
FFFFFFF8
FFFFFFF8
000F8000
000F0000
001F0000
001F0000
001F0000
001E0000
001E0000
003E0000
003E0000
003E0000
003C0000
007C0000
007C0000
007C0000
007C0000
00780000
00F80000
00F80000
00F80000
00F00000
00F00000
01F00000
01F00000
01F00000
01E00000
03E00000
03E00000
03E00000
03C00000
03C00000
07C00000
07C00000
ENDCHAR
STARTCHAR 0165
ENCODING 357
SWIDTH 380 0
DWIDTH 19 0
BBX 22 38 4 -1
BITMAP
00003C
00007C
000078
000078
03C018
03C030
03C0F0
03C0C0
078000
078000
078000
7FF800
7FF800
7FF800
0F0000
0F0000
0F0000
1F0000
1E0000
1E0000
1E0000
1E0000
3E0000
3C0000
3C0000
3C0000
7C0000
780000
780000
780000
780000
F80000
F80000
F80000
FF8000
FF8000
7F0000
3F0000
ENDCHAR
STARTCHAR 0166
ENCODING 358
SWIDTH 620 0
DWIDTH 31 0
BBX 29 36 8 0
BITMAP
7FFFFFF8
7FFFFFF8
FFFFFFF8
FFFFFFF8
000F8000
000F0000
000F0000
001F0000
001F0000
001F0000
001E0000
001E0000
003E0000
003E0000
1FFFF800
1FFFF800
3FFFF800
3FFFF800
007C0000
00780000
00780000
00F80000
00F80000
00F00000
00F00000
01F00000
01F00000
01F00000
01E00000
01E00000
03E00000
03E00000
03E00000
03C00000
03C00000
07C00000
ENDCHAR
STARTCHAR 0167
ENCODING 359
SWIDTH 280 0
DWIDTH 14 0
BBX 15 34 3 -1
BITMAP
00F0
00F0
01F0
01E0
01E0
01E0
01E0
3FFE
3FFE
3FFC
03C0
03C0
07C0
0780
0780
0780
0780
0F80
FFF0
FFF0
FFF0
FFF0
1E00
1E00
1E00
1E00
3E00
3C00
3C00
3C00
7FC0
7F80
7F80
1F80
ENDCHAR
STARTCHAR 0168
ENCODING 360
SWIDTH 720 0
DWIDTH 36 0
BBX 34 47 6 -1
BITMAP
0000701C00
0001FC1C00
0003FFF800
0003FFF800
000787F000
000700C000
0000000000
0000000000
0000000000
0000000000
03C00007C0
07C0000780
07C0000780
07C0000F80
0780000F80
0780000F80
0F80000F00
0F80001F00
0F80001F00
0F00001F00
0F00001F00
1F00001E00
1F00003E00
1F00003E00
1E00003E00
3E00003C00
3E00003C00
3E00007C00
3E00007C00
3C00007C00
7C00007800
7C00007800
7C0000F800
780000F800
780000F800
F80000F000
F80001F000
F80001F000
F80003E000
F80003E000
FC000FC000
7E001F8000
7F80FF0000
3FFFFE0000
1FFFFC0000
07FFF00000
00FF800000
ENDCHAR
STARTCHAR 0169
ENCODING 361
SWIDTH 540 0
DWIDTH 27 0
BBX 25 37 4 -1
BITMAP
001F0380
003FE700
007FFF00
0073FE00
00E07C00
00000000
00000000
00000000
00000000
00000000
0F000380
0F000780
0F000780
0F000780
1F000700
1E000700
1E000F00
1E000F00
1E000F00
3E000E00
3C001E00
3C001E00
3C001E00
3C001E00
7C001C00
78003C00
78003C00
78003C00
F8007800
F800F800
F800F800
F801F800
FC07F800
FFFF7000
7FFEF000
3FF8F000
0FE00000
ENDCHAR
STARTCHAR 016A
ENCODING 362
SWIDTH 720 0
DWIDTH 36 0
BBX 34 44 6 -1
BITMAP
0001FFF000
0003FFF000
0003FFF000
0000000000
0000000000
0000000000
0000000000
03C00007C0
07C0000780
07C0000780
07C0000F80
0780000F80
0780000F80
0F80000F00
0F80001F00
0F80001F00
0F00001F00
0F00001F00
1F00001E00
1F00003E00
1F00003E00
1E00003E00
3E00003C00
3E00003C00
3E00007C00
3E00007C00
3C00007C00
7C00007800
7C00007800
7C0000F800
780000F800
780000F800
F80000F000
F80001F000
F80001F000
F80003E000
F80003E000
FC000FC000
7E001F8000
7F80FF0000
3FFFFE0000
1FFFFC0000
07FFF00000
00FF800000
ENDCHAR
STARTCHAR 016B
ENCODING 363
SWIDTH 540 0
DWIDTH 27 0
BBX 25 34 4 -1
BITMAP
003FFF00
003FFE00
003FFE00
00000000
00000000
00000000
00000000
0F000380
0F000780
0F000780
0F000780
1F000700
1E000700
1E000F00
1E000F00
1E000F00
3E000E00
3C001E00
3C001E00
3C001E00
3C001E00
7C001C00
78003C00
78003C00
78003C00
F8007800
F800F800
F800F800
F801F800
FC07F800
FFFF7000
7FFEF000
3FF8F000
0FE00000
ENDCHAR
STARTCHAR 016C
ENCODING 364
SWIDTH 720 0
DWIDTH 36 0
BBX 34 46 6 -1
BITMAP
0003801C00
0003803800
0003FFF800
0001FFF000
0000FFC000
00007F0000
0000000000
0000000000
0000000000
03C00007C0
07C0000780
07C0000780
07C0000F80
0780000F80
0780000F80
0F80000F00
0F80001F00
0F80001F00
0F00001F00
0F00001F00
1F00001E00
1F00003E00
1F00003E00
1E00003E00
3E00003C00
3E00003C00
3E00007C00
3E00007C00
3C00007C00
7C00007800
7C00007800
7C0000F800
780000F800
780000F800
F80000F000
F80001F000
F80001F000
F80003E000
F80003E000
FC000FC000
7E001F8000
7F80FF0000
3FFFFE0000
1FFFFC0000
07FFF00000
00FF800000
ENDCHAR
STARTCHAR 016D
ENCODING 365
SWIDTH 540 0
DWIDTH 27 0
BBX 25 37 4 -1
BITMAP
00700380
00700700
007FFF00
003FFE00
001FF800
000FE000
00000000
00000000
00000000
00000000
0F000380
0F000780
0F000780
0F000780
1F000700
1E000700
1E000F00
1E000F00
1E000F00
3E000E00
3C001E00
3C001E00
3C001E00
3C001E00
7C001C00
78003C00
78003C00
78003C00
F8007800
F800F800
F800F800
F801F800
FC07F800
FFFF7000
7FFEF000
3FF8F000
0FE00000
ENDCHAR
STARTCHAR 016E
ENCODING 366
SWIDTH 720 0
DWIDTH 36 0
BBX 34 50 6 -1
BITMAP
00000F8000
00003FC000
00007FE000
000079E000
0000F0E000
0000E0E000
0000E1E000
0000FBC000
0000FF8000
00007F0000
00003E0000
0000000000
0000000000
03C00007C0
07C0000780
07C0000780
07C0000F80
0780000F80
0780000F80
0F80000F00
0F80001F00
0F80001F00
0F00001F00
0F00001F00
1F00001E00
1F00003E00
1F00003E00
1E00003E00
3E00003C00
3E00003C00
3E00007C00
3E00007C00
3C00007C00
7C00007800
7C00007800
7C0000F800
780000F800
780000F800
F80000F000
F80001F000
F80001F000
F80003E000
F80003E000
FC000FC000
7E001F8000
7F80FF0000
3FFFFE0000
1FFFFC0000
07FFF00000
00FF800000
ENDCHAR
STARTCHAR 016F
ENCODING 367
SWIDTH 540 0
DWIDTH 27 0
BBX 25 40 4 -1
BITMAP
0001F000
0007F800
000FFC00
000F3C00
001E1C00
001C1C00
001C3C00
001F7800
001FF000
000FE000
0007C000
00000000
00000000
0F000380
0F000780
0F000780
0F000780
1F000700
1E000700
1E000F00
1E000F00
1E000F00
3E000E00
3C001E00
3C001E00
3C001E00
3C001E00
7C001C00
78003C00
78003C00
78003C00
F8007800
F800F800
F800F800
F801F800
FC07F800
FFFF7000
7FFEF000
3FF8F000
0FE00000
ENDCHAR
STARTCHAR 0170
ENCODING 368
SWIDTH 720 0
DWIDTH 36 0
BBX 34 48 6 -1
BITMAP
00000FCFC0
00000F8F80
00001F1F00
00003C3C00
0000787800
0000F0F000
0001E1E000
0003C3C000
0000000000
0000000000
0000000000
03C00007C0
07C0000780
07C0000780
07C0000F80
0780000F80
0780000F80
0F80000F00
0F80001F00
0F80001F00
0F00001F00
0F00001F00
1F00001E00
1F00003E00
1F00003E00
1E00003E00
3E00003C00
3E00003C00
3E00007C00
3E00007C00
3C00007C00
7C00007800
7C00007800
7C0000F800
780000F800
780000F800
F80000F000
F80001F000
F80001F000
F80003E000
F80003E000
FC000FC000
7E001F8000
7F80FF0000
3FFFFE0000
1FFFFC0000
07FFF00000
00FF800000
ENDCHAR
STARTCHAR 0171
ENCODING 369
SWIDTH 540 0
DWIDTH 27 0
BBX 30 38 4 -1
BITMAP
0000FCFC
0000F8F8
0001F1F0
0003C3C0
00078780
000F0F00
001E1E00
003C3C00
00000000
00000000
00000000
0F000380
0F000780
0F000780
0F000780
1F000700
1E000700
1E000F00
1E000F00
1E000F00
3E000E00
3C001E00
3C001E00
3C001E00
3C001E00
7C001C00
78003C00
78003C00
78003C00
F8007800
F800F800
F800F800
F801F800
FC07F800
FFFF7000
7FFEF000
3FF8F000
0FE00000
ENDCHAR
STARTCHAR 0172
ENCODING 370
SWIDTH 720 0
DWIDTH 36 0
BBX 34 46 6 -10
BITMAP
03E00007C0
03C00007C0
07C0000780
07C0000780
07C0000F80
0780000F80
0780000F80
0F80000F00
0F80001F00
0F80001F00
0F00001F00
0F00001F00
1F00001E00
1F00003E00
1F00003E00
1E00003E00
3E00003C00
3E00003C00
3E00007C00
3C00007C00
3C00007C00
7C00007800
7C0000F800
7C0000F800
780000F800
F80000F800
F80000F000
F80001F000
F80001F000
F80003E000
FC0007C000
7E001FC000
7FC07F8000
3FFFFF0000
1FFFFE0000
07FFF80000
00FFF00000
0001C00000
0003800000
0007000000
000F000000
000F000000
000F000000
000F860000
0007FC0000
0001FC0000
ENDCHAR
STARTCHAR 0173
ENCODING 371
SWIDTH 560 0
DWIDTH 28 0
BBX 26 36 4 -10
BITMAP
0F0007C0
0F000780
0F000780
0F000780
1F000780
1E000F80
1E000F00
1E000F00
1E000F00
3E000F00
3C001F00
3C001E00
3C001E00
3C001E00
7C001E00
78003E00
78003C00
78003C00
F8007C00
F800FC00
F800FC00
F801F800
FC07F800
FFFFF800
7FFE7800
3FFCF800
0FE0F000
0003C000
00078000
000F0000
001E0000
001E0000
001E0000
001F0800
000FF000
0003F000
ENDCHAR
STARTCHAR 0174
ENCODING 372
SWIDTH 940 0
DWIDTH 47 0
BBX 45 46 9 0
BITMAP
000007E00000
00000FE00000
00000FF00000
00001E700000
00003C780000
000078380000
0000F03C0000
000000000000
000000000000
000000000000
F8001F8001F8
F8001F8001F0
F8003F8001F0
F8003F8003E0
F8003F8003E0
F8007F8007C0
F8007F8007C0
F800F7800F80
F800F7800F80
F801E7801F00
F801E7801F00
F803C7803E00
7803C7803E00
780787803E00
780787C07C00
780F07C07C00
780F07C0F800
781E07C0F800
781E03C1F000
783C03C1F000
783C03C3E000
787803C3E000
787803C3C000
78F803C7C000
78F003C78000
79F003CF8000
79E003CF0000
7BE003DF0000
7BC003DE0000
7FC003FE0000
7F8003FC0000
7F8003FC0000
7F0001FC0000
7F0001F80000
7E0001F80000
7E0001F00000
ENDCHAR
STARTCHAR 0175
ENCODING 373
SWIDTH 720 0
DWIDTH 36 0
BBX 36 37 6 0
BITMAP
00007C0000
00007E0000
0000FE0000
0001EE0000
0003CF0000
0007870000
000F078000
001E038000
0000000000
0000000000
0000000000
F801F801F0
F801F801E0
F803F803E0
F803F803C0
F807F807C0
F807F80780
780F780F80
780F780F00
781E781F00
781E781E00
783C783E00
783C783C00
787C787C00
7878787800
78F878F800
78F078F000
79F039F000
7DE039E000
7FE03FE000
3FC03FC000
3FC03FC000
3F803F8000
3F803F8000
3F003F0000
3F003F0000
3E003E0000
ENDCHAR
STARTCHAR 0176
ENCODING 374
SWIDTH 680 0
DWIDTH 34 0
BBX 31 46 9 0
BITMAP
0003F000
0007F000
000FF800
000F7800
001C3800
00381C00
00701C00
00000000
00000000
00000000
F800003E
FC00007E
7C0000FC
7C0001F8
7E0001F0
3E0003E0
3F0007C0
1F000FC0
1F001F80
0F801F00
0F803E00
0FC07C00
07C0F800
07C1F000
03E3F000
03E3E000
01E7C000
01FF8000
01FF0000
00FE0000
00FC0000
007C0000
00780000
00F80000
00F80000
00F80000
00F00000
00F00000
01F00000
01F00000
01F00000
01E00000
03E00000
03E00000
03E00000
03E00000
ENDCHAR
STARTCHAR 0177
ENCODING 375
SWIDTH 480 0
DWIDTH 24 0
BBX 29 48 0 -11
BITMAP
00003E00
00003F00
00007F00
0000F700
0001E780
0003C380
000783C0
000F01C0
00000000
00000000
00000000
03E000F8
03E000F0
03E001F0
01E003E0
01E003C0
01E007C0
01E00780
01E00F80
01F00F00
01F01E00
01F03E00
00F03C00
00F07C00
00F07800
00F0F800
00F0F000
00F1E000
00FBE000
00FBC000
007FC000
007F8000
007F0000
007F0000
007E0000
007E0000
007C0000
007C0000
00780000
00F00000
01F00000
01E00000
03E00000
07C00000
FF800000
FF000000
FE000000
F8000000
ENDCHAR
STARTCHAR 0178
ENCODING 376
SWIDTH 680 0
DWIDTH 34 0
BBX 31 45 9 0
BITMAP
001F1F00
001F1F00
001F1F00
003F3F00
003E3E00
00000000
00000000
00000000
00000000
F800003E
FC00007E
7C0000FC
7C0001F8
7E0001F0
3E0003E0
3F0007C0
1F000FC0
1F001F80
0F801F00
0F803E00
0FC07C00
07C0F800
07C1F000
03E3F000
03E3E000
01E7C000
01FF8000
01FF0000
00FE0000
00FC0000
007C0000
00780000
00F80000
00F80000
00F80000
00F00000
00F00000
01F00000
01F00000
01F00000
01E00000
03E00000
03E00000
03E00000
03E00000
ENDCHAR
STARTCHAR 0179
ENCODING 377
SWIDTH 620 0
DWIDTH 31 0
BBX 35 46 2 0
BITMAP
000000FC00
000000F800
000001F000
000003C000
0000078000
00000F0000
00001E0000
00003C0000
0000000000
0000000000
007FFFFFE0
00FFFFFFE0
00FFFFFFC0
00FFFFFFC0
0000000FC0
0000001F80
0000003F00
0000007E00
000000FC00
000001F800
000003F000
000007E000
00000FC000
00001F8000
00003F0000
00007E0000
0000FC0000
0001F80000
0003F00000
0007E00000
000FC00000
001F800000
003F000000
007E000000
00FC000000
01F8000000
03F0000000
07E0000000
0FC0000000
1F80000000
3F00000000
7E00000000
FFFFFFF000
FFFFFFF000
FFFFFFF000
FFFFFFE000
ENDCHAR
STARTCHAR 017A
ENCODING 378
SWIDTH 500 0
DWIDTH 25 0
BBX 26 37 2 0
BITMAP
00000FC0
00000F80
00001F00
00003C00
00007800
0000F000
0001E000
0003C000
00000000
00000000
00000000
03FFFFC0
03FFFF80
03FFFF80
03FFFF80
00001F00
00003E00
00007C00
0000F800
0001F000
0003E000
0007C000
000F8000
001F0000
003E0000
007C0000
00F80000
01F00000
07C00000
0F800000
1F000000
3E000000
7C000000
FFFFFC00
FFFFF800
FFFFF800
FFFFF800
ENDCHAR
STARTCHAR 017B
ENCODING 379
SWIDTH 620 0
DWIDTH 31 0
BBX 35 45 2 0
BITMAP
000007C000
000007C000
000007C000
00000FC000
00000F8000
0000000000
0000000000
0000000000
0000000000
007FFFFFE0
00FFFFFFE0
00FFFFFFC0
00FFFFFFC0
0000000FC0
0000001F80
0000003F00
0000007E00
000000FC00
000001F800
000003F000
000007E000
00000FC000
00001F8000
00003F0000
00007E0000
0000FC0000
0001F80000
0003F00000
0007E00000
000FC00000
001F800000
003F000000
007E000000
00FC000000
01F8000000
03F0000000
07E0000000
0FC0000000
1F80000000
3F00000000
7E00000000
FFFFFFF000
FFFFFFF000
FFFFFFF000
FFFFFFE000
ENDCHAR
STARTCHAR 017C
ENCODING 380
SWIDTH 500 0
DWIDTH 25 0
BBX 26 35 2 0
BITMAP
0001F000
0001F000
0001F000
0003F000
0003E000
00000000
00000000
00000000
00000000
03FFFFC0
03FFFF80
03FFFF80
03FFFF80
00001F00
00003E00
00007C00
0000F800
0001F000
0003E000
0007C000
000F8000
001F0000
003E0000
007C0000
00F80000
01F00000
07C00000
0F800000
1F000000
3E000000
7C000000
FFFFFC00
FFFFF800
FFFFF800
FFFFF800
ENDCHAR
STARTCHAR 017D
ENCODING 381
SWIDTH 620 0
DWIDTH 31 0
BBX 35 47 2 0
BITMAP
0000700E00
0000781C00
0000383C00
00003C7800
00001CF000
00001FE000
00000FC000
00000F8000
0000000000
0000000000
0000000000
007FFFFFE0
00FFFFFFE0
00FFFFFFC0
00FFFFFFC0
0000000FC0
0000001F80
0000003F00
0000007E00
000000FC00
000001F800
000003F000
000007E000
00000FC000
00001F8000
00003F0000
00007E0000
0000FC0000
0001F80000
0003F00000
0007E00000
000FC00000
001F800000
003F000000
007E000000
00FC000000
01F8000000
03F0000000
07E0000000
0FC0000000
1F80000000
3F00000000
7E00000000
FFFFFFF000
FFFFFFF000
FFFFFFF000
FFFFFFE000
ENDCHAR
STARTCHAR 017E
ENCODING 382
SWIDTH 500 0
DWIDTH 25 0
BBX 26 37 2 0
BITMAP
001C0380
001E0700
000E0F00
000F1E00
00073C00
0007F800
0003F000
0003E000
00000000
00000000
00000000
03FFFFC0
03FFFF80
03FFFF80
03FFFF80
00001F00
00003E00
00007C00
0000F800
0001F000
0003E000
0007C000
000F8000
001F0000
003E0000
007C0000
00F80000
01F00000
07C00000
0F800000
1F000000
3E000000
7C000000
FFFFFC00
FFFFF800
FFFFF800
FFFFF800
ENDCHAR
STARTCHAR 017F
ENCODING 383
SWIDTH 280 0
DWIDTH 14 0
BBX 16 36 4 0
BITMAP
001F
007F
00FF
01FF
01E0
03E0
03C0
03C0
03C0
03C0
3FC0
3F80
3F80
0780
0780
0F80
0F00
0F00
0F00
1F00
1E00
1E00
1E00
1E00
3E00
3C00
3C00
3C00
3C00
7C00
7800
7800
7800
7800
F800
F000
ENDCHAR
STARTCHAR 0180
ENCODING 384
SWIDTH 560 0
DWIDTH 28 0
BBX 27 37 3 -1
BITMAP
01F00000
01E00000
01E00000
1FFFC000
1FFFC000
1FFFC000
03C00000
03C00000
03C00000
07C3F800
078FFE00
079FFF00
07BFFF80
07F81F80
0FE00FC0
0FC007C0
0FC007C0
0F8003E0
1F0003E0
1F0003E0
1E0003E0
1E0003C0
1E0003C0
3E0007C0
3C0007C0
3C0007C0
3C000F80
3C000F80
7C001F00
7E001F00
7E003E00
7F007C00
FF81FC00
F7FFF800
F3FFE000
F1FFC000
007F0000
ENDCHAR
STARTCHAR 0181
ENCODING 385
SWIDTH 780 0
DWIDTH 39 0
BBX 36 36 5 0
BITMAP
07FFFFFE00
1FFFFFFF80
3FFFFFFFC0
7FFFFFFFE0
7E1F000FE0
781F0003E0
F81E0001F0
F81E0001F0
F83E0001F0
FF3E0001E0
FF3E0001E0
7F3C0003E0
7F3C0007C0
0C7C000F80
007C003F00
007FFFFC00
007FFFF800
00FFFFFE00
00FFFFFF00
00F8003F80
00F0000F80
00F0000780
01F00007C0
01F00007C0
01F00007C0
01E0000780
01E0000780
03E0000F80
03E0000F00
03C0001F00
03C0003E00
07C000FC00
07FFFFFC00
07FFFFF000
07FFFFE000
07FFFF0000
ENDCHAR
STARTCHAR 0182
ENCODING 386
SWIDTH 660 0
DWIDTH 33 0
BBX 32 36 4 0
BITMAP
00FFFFFF
01FFFFFF
01FFFFFF
01FFFFFE
01E00000
01E00000
03E00000
03E00000
03E00000
03C00000
07C00000
07C00000
07C00000
07C00000
07800000
0F800000
0FFFFE00
0FFFFFC0
0FFFFFF0
0FFFFFF0
1F0003F8
1F0000F8
1F000078
1E00007C
3E00007C
3E00007C
3E000078
3C0000F8
3C0000F8
7C0001F0
7C0003F0
7C000FE0
7FFFFFC0
7FFFFF80
FFFFFE00
FFFFF800
ENDCHAR
STARTCHAR 0183
ENCODING 387
SWIDTH 560 0
DWIDTH 28 0
BBX 27 37 3 -1
BITMAP
00FFFF80
00FFFF00
01FFFF00
01FFFF00
01E00000
01E00000
03C00000
03C00000
03C00000
03C3F800
038FFE00
079FFF00
07BFFF80
07F81F80
07E00FC0
0FC007C0
0FC007C0
0F8003E0
0F0003E0
1F0003E0
1E0003E0
1E0003C0
1E0003C0
1E0007C0
3C0007C0
3C0007C0
3C000F80
3C000F80
7C001F00
7E001F00
7E003E00
7F007C00
FF81FC00
F7FFF800
F3FFE000
F1FFC000
007E0000
ENDCHAR
STARTCHAR 0184
ENCODING 388
SWIDTH 660 0
DWIDTH 33 0
BBX 29 36 5 0
BITMAP
03E02000
03E06000
03C1E000
03C7E000
07CFC000
07FF0000
07FC0000
07F80000
07E00000
1F800000
3F800000
FF800000
FF800000
CF000000
8FFFFC00
1FFFFF80
1FFFFFC0
1FFFFFE0
1E0007F0
1E0003F0
1E0001F0
3E0000F8
3E0000F8
3E0000F8
3C0000F8
3C0000F0
7C0001F0
7C0001F0
7C0003E0
7C0003E0
78000FC0
78003F80
FFFFFF00
FFFFFE00
FFFFF800
FFFFE000
ENDCHAR
STARTCHAR 0185
ENCODING 389
SWIDTH 560 0
DWIDTH 28 0
BBX 27 37 3 -1
BITMAP
01F00000
01E20000
01E60000
01FC0000
03FC0000
03F00000
03E00000
0FC00000
1FC00000
1FC3F800
178FFE00
079FFF00
07BFFF80
07F81F80
0FE00FC0
0FC007C0
0FC007C0
0F8003E0
1F0003E0
1F0003E0
1E0003E0
1E0003C0
1E0003C0
3E0007C0
3C0007C0
3C0007C0
3C000F80
3C000F80
7C001F00
7E001F00
7E003E00
7F007C00
FF81FC00
F7FFF800
F3FFE000
F1FFC000
007F0000
ENDCHAR
STARTCHAR 0186
ENCODING 390
SWIDTH 720 0
DWIDTH 36 0
BBX 32 38 6 -1
BITMAP
0000FE00
000FFFC0
003FFFF0
007FFFF8
00FF07FC
01F800FC
03E0007E
07C0003E
0F80003F
0F80001F
1F00001F
1E00001F
3E00000F
3C00000F
0000000F
0000001F
0000001F
0000001F
0000001F
0000001E
0000003E
0000003E
0000003E
0000007C
0000007C
000000F8
F00000F8
F00001F0
F80001F0
F80003E0
F80007C0
7C001F80
7E007F00
3FFFFE00
1FFFFC00
0FFFF000
03FFC000
00300000
ENDCHAR
STARTCHAR 0187
ENCODING 391
SWIDTH 720 0
DWIDTH 36 0
BBX 39 37 5 0
BITMAP
0003FFE000
000FFFF87E
003FFFFDFE
007FFFFFFC
01FE007FFC
01F8003FC0
03E0001FC0
07C0001F80
0F80000F80
0F80000F80
1F00000F80
1E00000000
3E00000000
3C00000000
7C00000000
7C00000000
7800000000
7800000000
F800000000
F800000000
F800000000
F800000000
F800000000
F800003E00
F800003E00
F800003C00
F800007C00
7C0000FC00
7C0000F800
7E0001F000
3F0003F000
3F800FE000
1FE03FC000
0FFFFF8000
07FFFE0000
03FFF80000
007FC00000
ENDCHAR
STARTCHAR 0188
ENCODING 392
SWIDTH 520 0
DWIDTH 26 0
BBX 30 29 3 -1
BITMAP
0000007C
001FC1FC
007FFBF8
01FFFFF8
03FFFF80
07E07F80
0F803F00
1F001F00
1E001F00
3E001F00
3C000000
7C000000
7C000000
78000000
F8000000
F8000000
F8000000
F8000000
F8000000
F8003E00
F8007C00
F8007C00
FC00F800
7C01F800
7F07F000
3FFFE000
1FFFC000
0FFF0000
03FC0000
ENDCHAR
STARTCHAR 0189
ENCODING 393
SWIDTH 720 0
DWIDTH 36 0
BBX 33 36 5 0
BITMAP
01FFFF8000
01FFFFE000
01FFFFF800
03FFFFFC00
03E001FE00
03E0007E00
03E0003F00
03C0001F00
07C0001F00
07C0000F00
07C0000F80
0780000F80
0780000F80
0F80000F80
0F80000F80
0F80000F00
FFFF800F00
FFFF001F00
FFFF001F00
1F00001F00
1E00001E00
1E00003E00
3E00003E00
3E00003C00
3E00007C00
3C0000F800
7C0000F800
7C0001F000
7C0003F000
7C0007E000
78001FC000
F8007F8000
FFFFFF0000
FFFFFC0000
FFFFF00000
FFFFC00000
ENDCHAR
STARTCHAR 018A
ENCODING 394
SWIDTH 860 0
DWIDTH 43 0
BBX 39 36 7 0
BITMAP
07FFFFFE00
1FFFFFFF80
3FFFFFFFE0
7FFFFFFFF0
7E0F000FF8
781F0001F8
F81F0000FC
F81F00007C
F81E00007C
FF1E00003C
FF3E00003E
7F3E00003E
7F3E00003E
0C3C00003E
003C00003C
007C00003C
007C00003C
007800007C
007800007C
00F8000078
00F8000078
00F80000F8
00F00000F8
00F00001F0
01F00001F0
01F00003E0
01E00003E0
01E00007C0
03E0000F80
03E0001F80
03E0007F00
03C003FE00
03FFFFFC00
07FFFFF000
07FFFFC000
07FFFE0000
ENDCHAR
STARTCHAR 018B
ENCODING 395
SWIDTH 660 0
DWIDTH 33 0
BBX 32 36 4 0
BITMAP
00FFFFFF
00FFFFFF
00FFFFFF
01FFFFFF
0000001F
0000001E
0000001E
0000003E
0000003E
0000003E
0000003C
0000003C
0000003C
0000007C
0000007C
003FFFFC
01FFFFF8
07FFFFF8
0FFFFFF8
1FC000F8
3F0000F8
3E0000F0
7C0000F0
780000F0
F80001F0
F80001F0
F80001F0
F80001E0
F80001E0
F80003E0
FC0003E0
7F0003E0
7FFFFFC0
3FFFFFC0
1FFFFFC0
07FFFFC0
ENDCHAR
STARTCHAR 018C
ENCODING 396
SWIDTH 560 0
DWIDTH 28 0
BBX 27 37 4 -1
BITMAP
00FFFFE0
00FFFFE0
00FFFFE0
01FFFFE0
000001E0
000003E0
000003C0
000003C0
000003C0
003F83C0
00FFE3C0
03FFF7C0
07FFF780
0FE07F80
0FC03F80
1F001F80
3F001F80
3E000F80
7E000F00
7C000F00
7C000F00
78000F00
F8000F00
F8001F00
F8001E00
F8001E00
F8001E00
F8003E00
F8003E00
F8007E00
FC00FC00
7E01FC00
7F03FC00
3FFFBC00
1FFF3C00
0FFE7C00
03F00000
ENDCHAR
STARTCHAR 018D
ENCODING 397
SWIDTH 560 0
DWIDTH 28 0
BBX 28 37 2 -10
BITMAP
0003FE00
001FFF80
007FFFC0
00FFFFE0
01FC07E0
03F003F0
07C001F0
07C001F0
0F8000F0
0F0000F0
1F0000F0
1E0000F0
3E0001F0
3E0001F0
3E0001E0
3C0003E0
3C0003E0
3C0007C0
3C0007C0
3E000F80
3E001F00
3F007E00
1FC1FC00
1FFFF800
0FFFF000
07FFC000
03F00000
00FC0000
007E0000
003F0000
001FC000
000FE000
0003F000
FFFFF800
FFFFF000
FFFFF000
FFFFF000
ENDCHAR
STARTCHAR 018E
ENCODING 398
SWIDTH 660 0
DWIDTH 33 0
BBX 33 36 4 0
BITMAP
00FFFFFF80
00FFFFFF80
00FFFFFF80
00FFFFFF80
0000000F80
0000000F00
0000000F00
0000001F00
0000001F00
0000001F00
0000001E00
0000003E00
0000003E00
0000003E00
0000003C00
0000003C00
03FFFFFC00
07FFFFFC00
07FFFFFC00
07FFFFF800
000000F800
000000F800
000000F800
000000F800
000000F000
000001F000
000001F000
000001F000
000001E000
000001E000
000003E000
000003E000
FFFFFFE000
FFFFFFC000
FFFFFFC000
FFFFFFC000
ENDCHAR
STARTCHAR 018F
ENCODING 399
SWIDTH 780 0
DWIDTH 39 0
BBX 37 37 5 0
BITMAP
0001FFF000
0007FFFC00
001FFFFF00
007FFFFF80
00FF003FC0
01FC000FC0
03F00007E0
07E00003E0
0FC00001F0
0F800001F0
1F000001F0
1E000000F0
3E000000F8
3C000000F8
00000000F8
00000000F8
00000000F8
7FFFFFFFF0
FFFFFFFFF0
FFFFFFFFF0
FFFFFFFFF0
F8000001F0
F8000003E0
F8000003E0
F8000003C0
F8000007C0
F800000F80
7C00001F80
7C00003F00
7E00007E00
3F0000FC00
1FC003F800
1FF01FF000
0FFFFFE000
03FFFF8000
01FFFE0000
003FF00000
ENDCHAR
STARTCHAR 0190
ENCODING 400
SWIDTH 660 0
DWIDTH 33 0
BBX 32 37 3 0
BITMAP
0007FFC0
003FFFF0
007FFFF8
00FF9FFC
01F800FE
03E0003E
07C0003E
0780001F
0F80001F
0F80001F
0F80001E
0F800000
0F800000
0FC00000
07E00000
07F80000
03FFF000
00FFF000
07FFF000
0FFFF000
1FE00000
3F800000
7E000000
7C000000
F8000000
F800007C
F8000078
F80000F8
F80000F0
F80001F0
FC0003E0
7E000FC0
7F807FC0
3FFFFF80
1FFFFE00
07FFF800
00FF8000
ENDCHAR
STARTCHAR 0191
ENCODING 401
SWIDTH 620 0
DWIDTH 31 0
BBX 39 47 -5 -11
BITMAP
0003FFFFFE
0003FFFFFE
0003FFFFFC
0003FFFFFC
0003C00000
0007C00000
0007C00000
0007C00000
0007800000
0007800000
000F800000
000F800000
000F800000
000F000000
001F000000
001FFFFF80
001FFFFF80
001FFFFF80
001FFFFF80
003E000000
003E000000
003E000000
003C000000
003C000000
007C000000
007C000000
007C000000
0078000000
00F8000000
00F8000000
00F8000000
00F8000000
00F0000000
01F0000000
01F0000000
01F0000000
01E0000000
01E0000000
03E0000000
03E0000000
03E0000000
07C0000000
0FC0000000
7FC0000000
7F80000000
FF00000000
F800000000
ENDCHAR
STARTCHAR 0192
ENCODING 402
SWIDTH 280 0
DWIDTH 14 0
BBX 23 47 -2 -11
BITMAP
00007E
0001FC
0003FC
0003FC
0007C0
000780
000780
000F80
000F00
000F00
00FFF0
00FFF0
00FFF0
001E00
001E00
001E00
001E00
003E00
003C00
003C00
003C00
003C00
007C00
007800
007800
007800
00F800
00F000
00F000
00F000
00F000
01F000
01E000
01E000
01E000
01E000
03E000
03C000
03C000
03C000
07C000
078000
078000
FF8000
FF0000
FE0000
F80000
ENDCHAR
STARTCHAR 0193
ENCODING 403
SWIDTH 780 0
DWIDTH 39 0
BBX 40 37 6 0
BITMAP
0001FFE000
000FFFF83F
003FFFFCFF
007FFFFFFE
00FE007FFE
01F8001FE0
03F0000FE0
07C0000FC0
0F800007C0
0F800007C0
1F000007C0
3E00000000
3E00000000
3C00000000
7C00000000
7C00000000
7800000000
F8003FFF80
F8003FFF80
F8003FFF80
F8003FFF80
F800000F00
F800000F00
F800000F00
F800000F00
F800001F00
F800001F00
7C00003E00
7C00007E00
7E0000FE00
3F0001FE00
3F8007DE00
1FF01F9E00
0FFFFF1C00
07FFFC1C00
01FFF81C00
007FC00000
ENDCHAR
STARTCHAR 0194
ENCODING 404
SWIDTH 660 0
DWIDTH 33 0
BBX 31 37 9 -1
BITMAP
F800007E
FC0000FC
7C0001F8
7C0001F0
7E0003E0
3E0007C0
3F000F80
1F001F80
1F003F00
1F803E00
0F807C00
0F80F800
07C1F000
07C3F000
03C3E000
03E7C000
03EF8000
01FF0000
01FE0000
00FC0000
00FC0000
00F80000
00F80000
01F80000
03FC0000
03FC0000
07BC0000
0FBE0000
0F3E0000
1F3E0000
1F3C0000
1F3C0000
1FFC0000
1FF80000
0FF80000
0FF00000
07C00000
ENDCHAR
STARTCHAR 0195
ENCODING 405
SWIDTH 880 0
DWIDTH 44 0
BBX 41 37 4 -1
BITMAP
01F000000000
01E000000000
01E000000000
01E000000000
01E000000000
03C000000000
03C000000000
03C000000000
03C000000000
07C3F8000000
078FFE000000
079FFF000000
07BFFF001800
07F01F80FC00
0FE00F803E00
0FC00F803E00
0F800F001F00
0F000F001F00
0F000F000F00
1F001F000F80
1E001E000F80
1E001E000F80
1E001E000F80
3E003E000F00
3C003C001F00
3C003C001F00
3C003C001E00
3C007C003E00
780078007C00
78007800F800
78007800F800
7800F803F000
F800F807E000
F000FFFF8000
F000FFFF0000
F000FFFC0000
00003FE00000
ENDCHAR
STARTCHAR 0196
ENCODING 406
SWIDTH 280 0
DWIDTH 14 0
BBX 11 37 4 -1
BITMAP
01E0
01E0
01E0
01E0
03E0
03C0
03C0
03C0
07C0
0780
0780
0780
0780
0F80
0F00
0F00
0F00
0F00
1F00
1E00
1E00
1E00
1E00
3E00
3C00
3C00
3C00
7C00
7800
7800
7800
7800
F800
FF80
FF00
FF00
3F00
ENDCHAR
STARTCHAR 0197
ENCODING 407
SWIDTH 340 0
DWIDTH 17 0
BBX 17 36 4 0
BITMAP
003C00
003C00
007C00
007C00
007C00
007800
00F800
00F800
00F800
00F000
00F000
01F000
01F000
01F000
01E000
03E000
FFFF80
FFFF80
FFFF80
03C000
07C000
07C000
07C000
078000
078000
0F8000
0F8000
0F8000
0F0000
1F0000
1F0000
1F0000
1F0000
1E0000
3E0000
3E0000
ENDCHAR
STARTCHAR 0198
ENCODING 408
SWIDTH 740 0
DWIDTH 37 0
BBX 39 36 4 0
BITMAP
00F00003E0
00F00007F8
01F0001FF8
01F0003FFC
01E0007C7C
01E000F83E
03E001F03E
03E007E03C
03E00FC07C
03C01F00FC
03C03E00F8
07C07C0070
07C1F80040
07C3F00000
0787C00000
078FE00000
0F9FE00000
0FFDF00000
0FF9F00000
0FF0F80000
1FE0F80000
1FC0FC0000
1F007C0000
1E007E0000
1E003E0000
3E003F0000
3E001F0000
3C001F8000
3C000F8000
7C000FC000
7C0007C000
7C0007E000
780003E000
780003F000
F80001F000
F80001F000
ENDCHAR
STARTCHAR 0199
ENCODING 409
SWIDTH 500 0
DWIDTH 25 0
BBX 25 36 2 0
BITMAP
003E0000
00FE0000
01FE0000
03FE0000
03C00000
03C00000
07C00000
07800000
07800000
07800000
07801F80
07803F00
0F007C00
0F00F800
0F01F000
0F07E000
0F0FC000
1F1F0000
1E3E0000
1E7E0000
1FFE0000
1FFF0000
1FDF0000
3F8F8000
3F0F8000
3C0FC000
3C07C000
3C07C000
7C03E000
7803E000
7801F000
7801F000
7800F800
7800F800
F8007C00
F0007C00
ENDCHAR
STARTCHAR 019A
ENCODING 410
SWIDTH 340 0
DWIDTH 17 0
BBX 17 36 4 0
BITMAP
003C00
003C00
007C00
007800
007800
007800
00F800
00F000
00F000
00F000
00F000
01F000
01E000
01E000
01E000
01E000
FFFF80
FFFF80
FFFF00
03C000
03C000
07C000
078000
078000
078000
0F8000
0F0000
0F0000
0F0000
0F0000
1F0000
1E0000
1E0000
1E0000
1E0000
3E0000
ENDCHAR
STARTCHAR 019B
ENCODING 411
SWIDTH 560 0
DWIDTH 28 0
BBX 26 36 1 0
BITMAP
003E0040
007F81C0
007F87C0
007FCF80
0007FE00
0003F800
0003E000
0007E000
001FE000
007DE000
00F9F000
03E3F000
0383F000
0307F000
040FF000
000FF000
001EF800
001CF800
003CF800
00787800
00787800
00F07800
00F07C00
01E07C00
03E07C00
03C07C00
07C03C00
07803C00
0F003E00
1F003E00
1E003E00
3E003E00
3C001FC0
7C001FC0
F8001FC0
F8000FC0
ENDCHAR
STARTCHAR 019C
ENCODING 412
SWIDTH 840 0
DWIDTH 42 0
BBX 42 37 4 -1
BITMAP
03E003E003C0
03E003E003C0
03E003C007C0
03C007C00780
07C007C00780
07C007C00780
07C007C00780
07C007800F80
07800F800F00
0F800F800F00
0F800F800F00
0F800F001F00
0F801F001E00
0F001F001E00
1F001F001E00
1F001F001E00
1F001E003E00
1F003E003C00
1E003E003C00
3E003E003C00
3E003E003C00
3E003C007C00
3C007C007800
7C007C007800
7C007C007800
7C007C00F800
7C00F800F000
7800F800F000
F800F801F000
F801F801F000
F803F803F000
FC07F807E000
FE1FFE1FE000
FFFEFFFDE000
7FFCFFF9E000
3FF07FE3E000
1FC01F800000
ENDCHAR
STARTCHAR 019D
ENCODING 413
SWIDTH 720 0
DWIDTH 36 0
BBX 41 47 -2 -11
BITMAP
0007C0000780
0007E0000780
000FE0000780
000FF0000F80
000FF0000F80
000FF8000F00
000FF8000F00
000F7C000F00
001F7C000F00
001F7C001F00
001E3E001F00
001E3E001E00
001E1F001E00
001E1F001E00
003E0F803E00
003C0F803E00
003C07C03E00
003C07C03C00
003C03E03C00
003C03E03C00
007C01F07C00
007801F07C00
007800F87800
007800F87800
007800FC7800
00F8007CF800
00F8007CF800
00F0003EF800
00F0003EF000
00F0001FF000
00F0001FF000
01F0000FF000
01E0000FF000
01E00007F000
01E00007E000
01E00003E000
01E000000000
03E000000000
03C000000000
03C000000000
03C000000000
07C000000000
0FC000000000
7F8000000000
7F8000000000
7E0000000000
F80000000000
ENDCHAR
STARTCHAR 019E
ENCODING 414
SWIDTH 560 0
DWIDTH 28 0
BBX 25 37 3 -10
BITMAP
0003F800
070FFE00
0F3FFF00
0F7FFF00
0FF03F80
0FC01F80
0F800F00
0F000F00
1F000F00
1E000F00
1E000F00
1E001F00
1C001E00
3C001E00
3C001E00
3C001E00
3C001E00
3C003E00
38003C00
78003C00
78003C00
78003C00
78007C00
70007C00
F0007800
F0007800
F0007800
00007800
0000F800
0000F000
0000F000
0000F000
0000F000
0000F000
0001F000
0001E000
0001E000
ENDCHAR
STARTCHAR 019F
ENCODING 415
SWIDTH 780 0
DWIDTH 39 0
BBX 36 37 6 0
BITMAP
0001FFE000
000FFFF800
003FFFFE00
007FFFFF00
00FE007F80
01F8001F80
03F0000FC0
07E00007C0
0FC00003E0
0F800003E0
1F000003E0
1E000001E0
3E000001F0
3C000001F0
7C000001F0
7C000001F0
78000001F0
7FFFFFFFE0
FFFFFFFFE0
FFFFFFFFE0
F8000003E0
F8000003E0
F8000007C0
F8000007C0
F800000780
F800000F80
F800001F00
7C00001F00
7C00003E00
7E00007C00
3F0001F800
1F8007F000
1FF01FE000
0FFFFFC000
03FFFF0000
01FFFC0000
003FE00000
ENDCHAR
STARTCHAR 01A0
ENCODING 416
SWIDTH 780 0
DWIDTH 39 0
BBX 43 40 5 -1
BITMAP
0000000000C0
0000000001C0
0000000007E0
0000FFF003E0
0007FFFE03E0
000FFFFF87C0
003FFFFFFFC0
007F003FFF80
00FC000FFF00
01F80007FC00
03E00003F000
07C00001F000
0F800001F000
0F800000F000
1F000000F800
1E000000F800
3E000000F800
3C000000F800
7C000000F800
7C000000F000
78000000F000
F8000001F000
F8000001F000
F8000001F000
F8000001E000
F8000003E000
F8000003C000
F8000007C000
F80000078000
F800000F8000
7C00001F0000
7C00003E0000
7E00007E0000
3F0001FC0000
3F8003F80000
1FF01FE00000
0FFFFFC00000
07FFFF000000
01FFFC000000
003FE0000000
ENDCHAR
STARTCHAR 01A1
ENCODING 417
SWIDTH 560 0
DWIDTH 28 0
BBX 31 32 4 0
BITMAP
0000000C
0000003E
0000007E
0000003E
001FE03C
007FF8FC
01FFFFFC
03FFFFF8
07E07FE0
0FC03F80
1F801F00
1F000F00
3E000F80
3E000F80
3C000F80
7C000F80
78000F00
78000F00
F8001F00
F8001F00
F8001F00
F8001E00
F8003E00
F8003C00
F8007C00
F800F800
7C01F000
7E07F000
3FFFE000
3FFF8000
0FFF0000
03F80000
ENDCHAR
STARTCHAR 01A2
ENCODING 418
SWIDTH 1000 0
DWIDTH 50 0
BBX 48 38 5 -1
BITMAP
000000000040
0000FFF80FFC
0007FFFE7FFE
001FFFFFFFFE
003FFFFFF83E
007F003FF01F
00FC000FE01F
01F00007E01F
03E00003F01E
07C00001F01E
0F800001F03E
0F800000F03E
1F000000F83E
3E000000F83C
3E000000F87C
3C000000F87C
7C000000F87C
7C000000F07C
78000000F078
F8000001F0F8
F8000001F0F8
F8000001F0F8
F8000001E0F0
F8000003E0F0
F8000003C1F0
F8000007C1F0
F800000F81F0
F800000F81E0
7C00001F03E0
7C00003E03E0
7E00007E03E0
3F0001FC03E0
3F8003F803C0
1FF01FE007C0
0FFFFFC007C0
07FFFF0007C0
01FFFC000780
003FE0000000
ENDCHAR
STARTCHAR 01A3
ENCODING 419
SWIDTH 740 0
DWIDTH 37 0
BBX 35 37 4 -10
BITMAP
001FE03F00
007FF9FFC0
01FFFFFFC0
03FFFFEFE0
07F07F03E0
0FC03F03E0
1F801F03E0
1F000F83C0
3E000F87C0
3E000F87C0
7C000F87C0
7C000F8780
78000F0780
78000F0F80
F8001F0F80
F8001F0F80
F8001F0F00
F8003E1F00
F8003E1F00
F8003C1F00
F8007C1E00
F800F81E00
7C01F03E00
7E07F03E00
3FFFE03E00
3FFF803C00
0FFF007C00
03F8007C00
0000007C00
0000007800
000000F800
000000F800
000000F800
000000F000
000000F000
000001F000
000001F000
ENDCHAR
STARTCHAR 01A4
ENCODING 420
SWIDTH 840 0
DWIDTH 42 0
BBX 37 36 7 0
BITMAP
07FFFFFE00
1FFFFFFFC0
3FFFFFFFE0
7FFFFFFFF0
7E0F0007F0
780F0001F0
F81F0000F8
F81F0000F8
F81F0000F8
FF1E0000F8
FF3E0000F0
7F3E0001F0
7F3E0001F0
0C3C0003E0
003C0003E0
007C000FC0
007C003FC0
007FFFFF80
007FFFFE00
007FFFFC00
00FFFFF000
00F8000000
00F0000000
00F0000000
01F0000000
01F0000000
01F0000000
01E0000000
01E0000000
03E0000000
03E0000000
03C0000000
03C0000000
07C0000000
07C0000000
07C0000000
ENDCHAR
STARTCHAR 01A5
ENCODING 421
SWIDTH 560 0
DWIDTH 28 0
BBX 30 46 0 -10
BITMAP
0007E000
001FC000
003FC000
003FC000
007C0000
00780000
00780000
00780000
00F00000
00F07F00
00F1FFC0
00F7FFE0
01FFFFF0
01FF03F8
01FC01F8
01F800F8
01F000F8
03F0007C
03E0007C
03E0007C
03C0007C
03C0007C
07800078
078000F8
078000F8
078000F8
0F8001F0
0F8001F0
0F8001E0
0F8003E0
0FC007C0
1FE00FC0
1EF03F80
1EFFFF00
1E7FFE00
1E3FF800
3E0FC000
3C000000
3C000000
3C000000
3C000000
78000000
78000000
78000000
78000000
F8000000
ENDCHAR
STARTCHAR 01A6
ENCODING 422
SWIDTH 660 0
DWIDTH 33 0
BBX 31 42 5 -6
BITMAP
01F00000
01F00000
01E00000
01E00000
03E00000
03E00000
03FFFF80
03FFFFF0
03FFFFF8
07FFFFFC
07C001FC
0780007C
0780007E
0F80003E
0F80003E
0F80003E
0F00003C
0F00007C
1F00007C
1F0000F8
1E0000F8
1E0001F0
3E000FF0
3FFFFFE0
3FFFFFC0
3FFFFF00
3FFFFFC0
7C000FC0
7C0007C0
7C0003E0
780003E0
780003E0
F80003C0
F80003C0
F00003C0
F00007C0
000007C0
000007C0
000007C0
000007C0
000007C0
000007E0
ENDCHAR
STARTCHAR 01A7
ENCODING 423
SWIDTH 660 0
DWIDTH 33 0
BBX 31 37 4 0
BITMAP
0007FFC0
001FFFE0
007FFFF8
00FFCFF8
01F800FC
03F0007C
07E0003E
07C0003E
0F80003E
0F80003E
0000007C
0000007C
000000FC
000003F8
00003FF0
0001FFE0
001FFFC0
01FFFF00
07FFF000
0FFF0000
1FF00000
3F800000
7E000000
7C000000
F8000000
F800007C
F8000078
F80000F8
F80000F8
F80001F0
FC0003E0
7E000FE0
7F807FC0
3FFFFF00
1FFFFE00
07FFF800
00FFC000
ENDCHAR
STARTCHAR 01A8
ENCODING 424
SWIDTH 500 0
DWIDTH 25 0
BBX 24 28 3 -1
BITMAP
003FE0
00FFF8
03FFFC
07FFFE
0FE07E
0F803F
1F001F
1F001F
00001E
00003E
0000FC
0007F8
007FF0
03FFE0
0FFF80
3FF800
7F8000
7E0000
F80000
F8003E
F8007C
F8007C
F800F8
FE03F8
7FFFF0
3FFFE0
1FFF80
07FC00
ENDCHAR
STARTCHAR 01A9
ENCODING 425
SWIDTH 620 0
DWIDTH 31 0
BBX 33 36 2 0
BITMAP
01FFFFFF80
03FFFFFF80
03FFFFFF80
03FFFFFF00
03F0000000
01F8000000
01F8000000
00FC000000
007C000000
007E000000
003F000000
003F000000
001F800000
000F800000
000FC00000
0007E00000
0007E00000
0003F00000
0003F00000
0007E00000
000FC00000
001F800000
003F000000
007E000000
00FC000000
01F8000000
03F0000000
07E0000000
0FC0000000
1F80000000
3F00000000
7E00000000
7FFFFFF800
7FFFFFF000
FFFFFFF000
FFFFFFF000
ENDCHAR
STARTCHAR 01AA
ENCODING 426
SWIDTH 340 0
DWIDTH 17 0
BBX 12 47 6 -11
BITMAP
07C0
1FE0
3FF0
7EF0
7070
E070
E070
E0F0
F9F0
7FE0
7FE0
1FE0
01E0
01E0
01C0
03C0
03C0
03C0
03C0
03C0
0780
0780
0780
0780
0780
0F00
0F00
0F00
0F00
0F00
1F00
1E00
1E00
1E00
1E00
3E00
3C00
3C00
3C00
3C00
7C00
7C00
7C00
7F80
7F00
3F00
0F00
ENDCHAR
STARTCHAR 01AB
ENCODING 427
SWIDTH 280 0
DWIDTH 14 0
BBX 15 44 3 -11
BITMAP
00F0
01F0
01E0
01E0
01E0
01E0
01E0
1FFE
3FFE
3FFC
03C0
03C0
07C0
0780
0780
0780
0780
0780
0F80
0F00
0F00
0F00
0F00
1F00
1E00
1E00
1E00
1E00
1E00
3E00
3F20
3FE0
3FC0
1FC0
03C0
03C0
07C0
0780
0780
0F80
FF80
FF00
FE00
F800
ENDCHAR
STARTCHAR 01AC
ENCODING 428
SWIDTH 620 0
DWIDTH 31 0
BBX 31 36 6 0
BITMAP
07FFFFFE
1FFFFFFE
3FFFFFFE
7FFFFFFE
7C03E000
7803C000
F803C000
F807C000
F807C000
FF07C000
FF078000
7F078000
7F0F8000
0C0F8000
000F0000
000F0000
001F0000
001F0000
001F0000
001E0000
001E0000
003E0000
003E0000
003C0000
003C0000
007C0000
007C0000
007C0000
00780000
00780000
00F80000
00F80000
00F00000
00F00000
01F00000
01F00000
ENDCHAR
STARTCHAR 01AD
ENCODING 429
SWIDTH 280 0
DWIDTH 14 0
BBX 14 37 6 -1
BITMAP
007C
01FC
03FC
07F8
0780
0780
0F00
0F00
0F00
0F00
FFF0
FFF0
FFF0
1E00
1E00
1E00
1E00
1E00
3E00
3C00
3C00
3C00
3C00
3C00
7C00
7C00
7800
7800
7800
7800
F800
F800
F800
FF80
FF00
FF00
3F00
ENDCHAR
STARTCHAR 01AE
ENCODING 430
SWIDTH 620 0
DWIDTH 31 0
BBX 29 47 8 -11
BITMAP
FFFFFFF8
FFFFFFF8
FFFFFFF8
FFFFFFF0
000F0000
001F0000
001F0000
001F0000
001F0000
001E0000
001E0000
003E0000
003E0000
003E0000
003C0000
003C0000
007C0000
007C0000
007C0000
007C0000
00780000
00780000
00F80000
00F80000
00F80000
00F80000
00F00000
00F00000
01F00000
01F00000
01F00000
01E00000
01E00000
03E00000
03E00000
03E00000
03E00000
03C00000
03C00000
07C00000
07C00000
07C00000
07C00000
07FC0000
07F80000
03F80000
00F80000
ENDCHAR
STARTCHAR 01AF
ENCODING 431
SWIDTH 780 0
DWIDTH 39 0
BBX 42 43 6 0
BITMAP
000000000180
000000000780
000000000FC0
0000000007C0
000000000780
000000000F80
03C00007FF80
03C00007FF00
07C00007FE00
07C00007F800
07C0000F8000
0780000F8000
0780000F8000
0F80000F0000
0F80001F0000
0F80001F0000
0F00001F0000
0F00001F0000
1F00001E0000
1F00003E0000
1F00003E0000
1E00003E0000
3E00003C0000
3E00003C0000
3E00007C0000
3C00007C0000
3C00007C0000
7C0000780000
7C0000780000
7C0000F80000
780000F80000
F80000F80000
F80000F00000
F80001F00000
F80001E00000
F80003E00000
FC0007C00000
7E001F800000
7F80FF000000
3FFFFE000000
1FFFFC000000
0FFFF0000000
01FF80000000
ENDCHAR
STARTCHAR 01B0
ENCODING 432
SWIDTH 620 0
DWIDTH 31 0
BBX 34 33 4 -1
BITMAP
0000000180
0000000780
0000000FC0
00000007C0
00000007C0
0000000F80
0F8007FF80
0F0007FF00
0F0007FE00
0F0007F800
1F00078000
1E000F8000
1E000F0000
1E000F0000
1E000F0000
3E000F0000
3C001F0000
3C001E0000
3C001E0000
3C001E0000
7C001E0000
78003E0000
78003C0000
78003C0000
78007C0000
F800FC0000
F800FC0000
F801F80000
FC07F80000
FFFF780000
7FFE780000
3FF8F80000
0FE0000000
ENDCHAR
STARTCHAR 01B1
ENCODING 433
SWIDTH 760 0
DWIDTH 38 0
BBX 38 36 4 -1
BITMAP
07FFE07FFC
07FFE07FFC
0FFFC0FFFC
0FFFC0FFF8
0007C0F800
001F003C00
007C001E00
00F0000F00
03E0000F80
07C0000780
0F800007C0
0F000007C0
1F000003C0
3E000003C0
3C000003C0
7C000003C0
7C000007C0
78000007C0
F8000007C0
F800000780
F000000F80
F000000F80
F000000F00
F000001F00
F000003E00
F800003E00
F800007C00
F80000F800
FC0001F800
7C0003F000
7E000FE000
3F803FC000
1FFFFF0000
0FFFFE0000
07FFF80000
01FFC00000
ENDCHAR
STARTCHAR 01B2
ENCODING 434
SWIDTH 720 0
DWIDTH 36 0
BBX 31 37 6 -1
BITMAP
03E003E0
03C001F0
03C001F0
07C001F8
07C000F8
078000F8
0780007C
0F80007C
0F80007C
0F80007C
0F00003C
0F00003E
1F00003E
1F00003E
1F00003E
1E00003E
3E00003C
3E00003C
3E00003C
3E00007C
3C00007C
7C000078
7C000078
7C0000F8
780000F0
F80001F0
F80003E0
F80003E0
F80007C0
F8000F80
F8001F00
FC007F00
FE03FE00
7FFFF800
3FFFF000
1FFFC000
07FE0000
ENDCHAR
STARTCHAR 01B3
ENCODING 435
SWIDTH 800 0
DWIDTH 40 0
BBX 37 36 8 0
BITMAP
FC00000F80
7C00003FC0
7E00007FE0
3E0000FFF0
3F0001F1F0
3F0003E0F8
1F0007C0F8
1F8007C0F0
0F800F81F0
0FC01F03E0
07C03E01C0
07C07C0000
07E0780000
03E0F80000
03F1F00000
01F3E00000
01F7C00000
00FF800000
00FF800000
00FF000000
007E000000
007C000000
007C000000
007C000000
0078000000
0078000000
00F8000000
00F8000000
00F0000000
00F0000000
01F0000000
01F0000000
01F0000000
01E0000000
01E0000000
03E0000000
ENDCHAR
STARTCHAR 01B4
ENCODING 436
SWIDTH 600 0
DWIDTH 30 0
BBX 38 47 0 -11
BITMAP
000000007C
00000001F8
00000003F8
00000007F8
0000000F80
0000000F00
0000001F00
0000003E00
0000003C00
0000007C00
03E0007800
01E000F000
01E001F000
01E001E000
01E003E000
01E003C000
01F0078000
01F0078000
01F00F0000
00F01F0000
00F01E0000
00F03E0000
00F03C0000
00F0780000
00F8F80000
00F8F00000
00F9F00000
0079E00000
007BC00000
007BC00000
007F800000
007F800000
007F000000
007F000000
007E000000
003C000000
007C000000
0078000000
00F8000000
00F0000000
01E0000000
03E0000000
07C0000000
7FC0000000
7F80000000
FF00000000
7C00000000
ENDCHAR
STARTCHAR 01B5
ENCODING 437
SWIDTH 620 0
DWIDTH 31 0
BBX 35 36 1 0
BITMAP
007FFFFFE0
007FFFFFE0
007FFFFFE0
00FFFFFFE0
0000000FC0
0000001F80
0000003F00
0000007E00
000000FC00
000001F800
000003F000
000007E000
00000FC000
00001F8000
00003F0000
00007E0000
003FFFC000
003FFFC000
007FFFC000
0007E00000
000FC00000
001F800000
003F000000
007E000000
00FC000000
01F8000000
03F0000000
07E0000000
0FC0000000
1F80000000
3F00000000
7E00000000
7FFFFFF800
7FFFFFF000
FFFFFFF000
FFFFFFF000
ENDCHAR
STARTCHAR 01B6
ENCODING 438
SWIDTH 500 0
DWIDTH 25 0
BBX 26 26 2 0
BITMAP
03FFFFC0
03FFFFC0
03FFFF80
03FFFF80
00001F00
00003E00
00007C00
0000F800
0001F000
0003E000
000FC000
07FFF800
07FFF800
0FFFF800
00F80000
01F00000
03E00000
07C00000
0F800000
1F000000
3E000000
7C000000
FFFFFC00
FFFFFC00
FFFFF800
FFFFF800
ENDCHAR
STARTCHAR 01B7
ENCODING 439
SWIDTH 620 0
DWIDTH 31 0
BBX 33 37 3 -1
BITMAP
01FFFFFF80
01FFFFFF80
01FFFFFF80
03FFFFFF00
0000003F00
0000007E00
000000FC00
000001F800
000003F000
000007E000
00000FC000
00001F8000
00003F0000
00007E0000
0007FC0000
0007FC0000
0007FF0000
0007FFC000
00003FE000
00000FE000
000003E000
000003F000
000001F000
000001F000
000001F000
F80001E000
F80001E000
F80003E000
F80003C000
F80007C000
F8000F8000
7C001F0000
7F00FF0000
3FFFFC0000
3FFFF80000
0FFFE00000
03FF000000
ENDCHAR
STARTCHAR 01B8
ENCODING 440
SWIDTH 620 0
DWIDTH 31 0
BBX 32 37 4 -1
BITMAP
03FFFFFF
07FFFFFF
07FFFFFE
07FFFFFE
07E00000
03E00000
03F00000
01F80000
01F80000
00FC0000
007C0000
007E0000
003E0000
003F0000
001FE000
003FE000
01FFE000
07FFC000
0FF80000
1FC00000
3F000000
3E000000
7C000000
7C000000
78000000
F8000000
F80001F0
F80003E0
F80003E0
F80007C0
FC000FC0
7E001F80
7F807F00
3FFFFE00
1FFFFC00
07FFF000
01FF8000
ENDCHAR
STARTCHAR 01B9
ENCODING 441
SWIDTH 500 0
DWIDTH 25 0
BBX 27 33 1 -7
BITMAP
01FFFFE0
01FFFFE0
01FFFFC0
01FFFFC0
01F00000
00F80000
00F80000
007C0000
003E0000
003E0000
001F0000
001F8000
003F8000
01FF8000
07FF0000
0FFF0000
1F800000
3F000000
3E000000
7C000000
78000000
F8000000
F8000F80
F8001F00
F8001F00
F8003E00
F8003E00
FC007C00
7E01F800
7FFFF000
3FFFE000
0FFF8000
03FC0000
ENDCHAR
STARTCHAR 01BA
ENCODING 442
SWIDTH 500 0
DWIDTH 25 0
BBX 26 36 1 -10
BITMAP
01FFFFC0
01FFFFC0
01FFFFC0
03FFFFC0
00000F80
00001F00
00003E00
00007C00
0000F800
0001F000
0003E000
0007C000
000F8000
000FF800
001FFC00
001FFE00
00007F00
00001F00
00001F00
00000F00
00000F00
00000F00
00001E00
00001E00
00003C00
0700FC00
3FFFF800
7FFFE000
FFFFC000
F0FE0000
F0000000
F800C000
FFFFE000
7FFFE000
3FFF8000
0FF80000
ENDCHAR
STARTCHAR 01BB
ENCODING 443
SWIDTH 560 0
DWIDTH 28 0
BBX 30 35 2 1
BITMAP
0003FF80
000FFFE0
003FFFF0
007FCFF8
00FC01F8
00F800F8
01F0007C
03E0007C
03E0007C
03C0007C
07C00078
000000F8
000000F8
000001F0
000003E0
00C007E0
00F00FC0
00FC3F80
00FFFE00
007FFC00
001FF800
003FFE00
00FFFF80
01FC3F00
07F00700
0FC00100
0F000000
1E000000
3C000000
3C000000
78000000
7FFFFF80
FFFFFF00
FFFFFF00
FFFFFF00
ENDCHAR
STARTCHAR 01BE
ENCODING 446
SWIDTH 560 0
DWIDTH 28 0
BBX 23 34 5 -1
BITMAP
0003C0
0007C0
000780
000780
000780
000780
000F80
00FFF8
00FFF8
00FFF8
001F00
001F00
001F00
001F00
001F80
001FC0
000FE0
0007F8
0001F8
0000FC
00007C
00003E
F0003E
F0003E
F0003C
F0003C
F0007C
F00078
F800F8
7C03F0
7FFFE0
3FFFC0
1FFF00
07F800
ENDCHAR
STARTCHAR 01BF
ENCODING 447
SWIDTH 560 0
DWIDTH 28 0
BBX 30 38 1 -11
BITMAP
00001FC0
01E0FFF0
01E3FFF8
01EFFFF8
03FFC1F8
03FE007C
03F8007C
03F0007C
03C00078
07C00078
078000F8
078000F0
078001F0
078003E0
0F8007E0
0F000FC0
0F001F80
0F003F00
0F007E00
1F00FC00
1E01F800
1E07F000
1E0FE000
3E3F8000
3CFF0000
3DFC0000
3FF00000
3FE00000
7F800000
7E000000
78000000
78000000
78000000
F8000000
F0000000
F0000000
F0000000
F0000000
ENDCHAR
STARTCHAR 01C0
ENCODING 448
SWIDTH 260 0
DWIDTH 13 0
BBX 13 47 3 -11
BITMAP
0038
0038
0038
0070
0070
0070
0070
0060
00E0
00E0
00E0
00E0
01C0
01C0
01C0
01C0
01C0
0380
0380
0380
0380
0300
0700
0700
0700
0700
0E00
0E00
0E00
0E00
0E00
1C00
1C00
1C00
1C00
1800
3800
3800
3800
3800
7000
7000
7000
7000
7000
E000
E000
ENDCHAR
STARTCHAR 01C1
ENCODING 449
SWIDTH 520 0
DWIDTH 26 0
BBX 20 47 3 -11
BITMAP
003870
003870
003870
0070E0
0070E0
0070E0
0070E0
0060C0
00E1C0
00E1C0
00E1C0
00E1C0
01C380
01C380
01C380
01C380
01C380
038700
038700
038700
038700
030600
070E00
070E00
070E00
070E00
0E1C00
0E1C00
0E1C00
0E1C00
0E1C00
1C3800
1C3800
1C3800
1C3800
183000
387000
387000
387000
387000
70E000
70E000
70E000
70E000
70E000
E1C000
E1C000
ENDCHAR
STARTCHAR 01C2
ENCODING 450
SWIDTH 580 0
DWIDTH 29 0
BBX 26 47 4 -11
BITMAP
00007000
00007000
0000E000
0000E000
0000E000
0000E000
0000C000
0001C000
0001C000
0001C000
0001C000
00038000
00038000
00038000
00038000
00038000
00070000
00070000
3FFFFFC0
3FFFFFC0
3FFFFFC0
3FFFFFC0
000E0000
000E0000
000E0000
001C0000
7FFFFF80
FFFFFF80
FFFFFF00
FFFFFF00
00380000
00380000
00380000
00380000
00300000
00700000
00700000
00700000
00700000
00E00000
00E00000
00E00000
00E00000
00E00000
01C00000
01C00000
01C00000
ENDCHAR
STARTCHAR 01C3
ENCODING 451
SWIDTH 280 0
DWIDTH 14 0
BBX 12 36 6 0
BITMAP
00F0
00F0
01F0
01E0
01E0
01E0
01E0
03E0
03C0
03C0
03C0
07C0
0780
0780
0780
0780
0F80
0F00
0F00
0F00
0E00
0E00
0E00
1C00
1C00
1C00
1800
1800
0000
0000
0000
7800
7800
7800
7800
F800
ENDCHAR
STARTCHAR 01C4
ENCODING 452
SWIDTH 1320 0
DWIDTH 66 0
BBX 68 47 4 0
BITMAP
000000000000380700
0000000000003C0E00
0000000000001C1E00
0000000000001E3C00
0000000000000E7800
0000000000000FF000
00000000000007E000
00000000000007C000
000000000000000000
000000000000000000
000000000000000000
00FFFFC0003FFFFFF0
01FFFFF0007FFFFFF0
01FFFFFC007FFFFFE0
01FFFFFE007FFFFFE0
01F001FE00000007E0
01E0003F0000000FC0
03E0001F0000001F80
03E0000F8000003F00
03E0000F8000007E00
03C00007800000FC00
03C00007C00001F800
07C00007C00003F000
07C00007C00007E000
07C00007C0000FC000
07800007C0001F8000
0F80000780003F0000
0F80000780007E0000
0F80000F8000FC0000
0F00000F8001F80000
0F00000F8003F00000
1F00000F0007E00000
1F00001F000FC00000
1F00001F001F800000
1E00003E003F000000
3E00003E007E000000
3E00007C00FC000000
3E00007C01F8000000
3E0000F803F0000000
3C0001F007E0000000
7C0003F00FC0000000
7C000FE01F80000000
7C003FC03F00000000
7FFFFF807FFFFFF800
7FFFFE007FFFFFF800
FFFFF8007FFFFFF800
FFFFC0007FFFFFF000
ENDCHAR
STARTCHAR 01C5
ENCODING 453
SWIDTH 1200 0
DWIDTH 60 0
BBX 59 37 4 0
BITMAP
00000000000F00E0
00FFFFC0000703C0
01FFFFF000078780
01FFFFFC00038F00
01FFFFFE0003DE00
01F001FE0001FC00
01E0003F0001FC00
03E0001F0001F800
03E0000F80000000
03E0000F80000000
03C0000780000000
03C00007C0FFFFE0
07C00007C1FFFFE0
07C00007C1FFFFE0
07C00007C1FFFFC0
07800007C00007C0
0F80000780000F80
0F80000780001F00
0F80000F80003C00
0F00000F8000F800
0F00000F8001F000
1F00000F0003E000
1F00001F0007C000
1F00001F000F8000
1E00003E001F0000
3E00003E003E0000
3E00007C007C0000
3E00007C00F80000
3E0000F801F00000
3C0001F003E00000
7C0003F007C00000
7C000FE00F800000
7C003FC01F000000
7FFFFF803FFFFE00
7FFFFE003FFFFE00
FFFFF8007FFFFE00
FFFFC0007FFFFC00
ENDCHAR
STARTCHAR 01C6
ENCODING 454
SWIDTH 1060 0
DWIDTH 53 0
BBX 52 38 4 -1
BITMAP
000000000700E0
000000780781C0
000000F0038380
000000F003C780
000000F001CF00
000000F001FE00
000001E001FC00
000001E000F800
000001E0000000
000001E0000000
001F81E0000000
00FFE3C0FFFFF0
01FFF3C0FFFFE0
03FFFBC0FFFFE0
07E07BC1FFFFE0
0FC03FC00007C0
1F001F80000F80
1F000F80001F00
3E000F80003E00
3E000F80007C00
7C000F0000F800
7C000F0001F000
78000F0003E000
F8000F0007C000
F8000F000F8000
F8001E003E0000
F8001E007C0000
F8001E00F80000
F8003E01F00000
F8003C03E00000
F8007C07C00000
FC00FC0F800000
7C01FC1F000000
7F07FC3FFFFE00
3FFFF83FFFFE00
3FFF783FFFFE00
0FFC787FFFFE00
03F00000000000
ENDCHAR
STARTCHAR 01C7
ENCODING 455
SWIDTH 1060 0
DWIDTH 53 0
BBX 53 37 4 -1
BITMAP
00F000000000F8
01F000000000F8
01F000000000F0
01F000000001F0
01E000000001F0
01E000000001F0
03E000000001F0
03E000000001E0
03E000000003E0
03C000000003E0
03C000000003E0
07C000000003C0
07C000000007C0
07C000000007C0
078000000007C0
0F8000000007C0
0F800000000780
0F800000000F80
0F000000000F80
0F000000000F80
1F000000000F80
1F000000000F00
1F000000001F00
1E000000001F00
3E00001E001F00
3E00003E001F00
3E00003E003E00
3C00003E003E00
3C00003E003E00
7C00003C007C00
7C00003E007C00
7C00003E01F800
7FFFFE3F83F800
7FFFFE1FFFF000
FFFFFE0FFFE000
FFFFFE07FF8000
00000001FC0000
ENDCHAR
STARTCHAR 01C8
ENCODING 456
SWIDTH 780 0
DWIDTH 39 0
BBX 40 47 4 -11
BITMAP
00F000000F
01F000000F
01F000001F
01F000001E
01E000001E
01E0000000
03E0000000
03E0000000
03E0000000
03C0000000
03C000003C
07C000003C
07C000007C
07C0000078
0780000078
0F80000078
0F800000F8
0F800000F0
0F000000F0
0F000000F0
1F000000F0
1F000001F0
1F000001E0
1E000001E0
3E000001E0
3E000001E0
3E000003E0
3C000003C0
3C000003C0
7C000003C0
7C000007C0
7C00000780
7FFFFE0780
7FFFFE0780
FFFFFE0780
FFFFFE0F80
0000000F00
0000000F00
0000000F00
0000000F00
0000001F00
0000001E00
0000003E00
000003FE00
000003FC00
000003F800
000003E000
ENDCHAR
STARTCHAR 01C9
ENCODING 457
SWIDTH 440 0
DWIDTH 22 0
BBX 24 47 3 -11
BITMAP
00F00F
01F00F
01E00F
01E00F
01E01F
01E000
03E000
03C000
03C000
03C000
07C03C
07803C
07803C
07807C
078078
0F8078
0F0078
0F0078
0F00F8
0F00F0
1F00F0
1E00F0
1E01F0
1E01E0
3E01E0
3C01E0
3C01E0
3C03E0
3C03C0
7C03C0
7803C0
7803C0
7807C0
780780
F80780
F00780
000780
000F80
000F00
000F00
000F00
001F00
001E00
01FE00
03FC00
03FC00
03E000
ENDCHAR
STARTCHAR 01CA
ENCODING 458
SWIDTH 1160 0
DWIDTH 58 0
BBX 60 37 4 -1
BITMAP
00F80000F00000F0
01FC0001F00001F0
01FC0001F00001F0
01FC0001E00001F0
01FE0001E00001F0
01FE0001E00001E0
03FF0003E00003E0
03FF0003E00003E0
03CF8003C00003E0
03CF8003C00003E0
07CF8003C00007C0
07C7C007C00007C0
0787C007C00007C0
0783E007800007C0
0783E00780000780
0F81F00F80000F80
0F81F00F80000F80
0F01F00F00000F80
0F00F80F00000F80
0F00F80F00000F00
1F007C1F00001F00
1F007C1F00001F00
1E003C1E00001F00
1E003E1E00001F00
3E003E1E3E001E00
3E001F3E3E003E00
3C001F3E3C003E00
3C000FBC3C003E00
3C000FBC3C007C00
7C000FFC7C007C00
7C0007FC7C00FC00
780007F83E01F800
780003F83F07F000
780003F83FFFE000
F80001F81FFFC000
F80001F80FFF8000
0000000003FC0000
ENDCHAR
STARTCHAR 01CB
ENCODING 459
SWIDTH 940 0
DWIDTH 47 0
BBX 48 47 4 -11
BITMAP
00F80000F00F
01FC0001F00F
01FC0001F00F
01FC0001E00F
01FE0001E01F
01FE0001E000
03FF0003E000
03FF0003E000
03CF8003C000
03CF8003C000
07CF8003C03C
07C7C007C03C
0787C007C03C
0783E007807C
0783E0078078
0F81F00F8078
0F81F00F8078
0F01F00F0078
0F00F80F00F8
0F00F80F00F0
1F007C1F00F0
1F007C1F00F0
1E003C1E01F0
1E003E1E01E0
3E003E1E01E0
3E001F3E01E0
3C001F3E01E0
3C000FBC03E0
3C000FBC03C0
7C000FFC03C0
7C0007FC03C0
780007F803C0
780003F807C0
780003F80780
F80001F80780
F80001F80780
000000000780
000000000F80
000000000F00
000000000F00
000000000F00
000000001F00
000000001E00
00000001FE00
00000003FC00
00000003FC00
00000003E000
ENDCHAR
STARTCHAR 01CC
ENCODING 460
SWIDTH 780 0
DWIDTH 39 0
BBX 41 47 3 -11
BITMAP
000000000780
000000000780
000000000F80
000000000F00
000000000F00
000000000000
000000000000
000000000000
000000000000
0001FC000000
078FFE001E00
079FFF001E00
07FFFF803E00
07F81F803C00
07E00FC03C00
0FC007C03C00
0F8007807C00
0F0007807800
0F0007807800
0E000F807800
1E000F007800
1E000F00F800
1E000F00F000
1C000F00F000
3C001F00F000
3C001E00F000
3C001E01F000
3C001E01E000
38001E01E000
78003E01E000
78003C03E000
78003C03C000
70003C03C000
70003C03C000
F0007C03C000
F0007807C000
000000078000
000000078000
000000078000
000000078000
0000000F8000
0000000F0000
0000001F0000
000001FF0000
000001FE0000
000001FC0000
000001F00000
ENDCHAR
STARTCHAR 01CD
ENCODING 461
SWIDTH 660 0
DWIDTH 33 0
BBX 33 46 1 0
BITMAP
00001C0780
00001E0F00
00000E1E00
00000F3C00
0000077800
000007F000
000003F000
0000000000
0000000000
0000000000
00000FE000
00001FE000
00001FE000
00003FE000
00003FE000
00007BE000
00007BE000
0000F3F000
0001F1F000
0001E1F000
0003E1F000
0003C1F000
000781F000
000781F000
000F01F800
001F00F800
001E00F800
003E00F800
003C00F800
007800F800
00F800F800
00FFFFFC00
01FFFFFC00
01FFFFFC00
03FFFFFC00
03C0007C00
07C0007C00
0F80007C00
0F80007E00
1F00003E00
1F00003E00
3E00003E00
3C00003E00
7C00003E00
F800003E00
F800003F00
ENDCHAR
STARTCHAR 01CE
ENCODING 462
SWIDTH 560 0
DWIDTH 28 0
BBX 26 37 3 -1
BITMAP
000E01C0
000F0780
00070F00
00079E00
0003BC00
0003F800
0003F800
0001F000
00000000
000FF800
003FFE00
00FFFF00
01FFFF80
03F81FC0
03E00FC0
07C007C0
07C00780
00000780
00000780
00000F80
00003F80
003FFF00
03FFFF00
0FFFCF00
1FF01F00
3F001E00
7C001E00
78001E00
F8001E00
F8003E00
F8007C00
F800FC00
FC03FC00
7FFFBF80
7FFF3F80
3FFE3F00
0FF01F00
ENDCHAR
STARTCHAR 01CF
ENCODING 463
SWIDTH 300 0
DWIDTH 15 0
BBX 19 46 5 0
BITMAP
0380E0
0381E0
03C3C0
01E780
01EF00
00FE00
00FC00
000000
000000
000000
00F800
00F000
01F000
01F000
01F000
01E000
01E000
03E000
03E000
03E000
03C000
07C000
07C000
07C000
078000
078000
0F8000
0F8000
0F8000
0F0000
1F0000
1F0000
1F0000
1F0000
1E0000
3E0000
3E0000
3E0000
3C0000
3C0000
7C0000
7C0000
7C0000
780000
F80000
F80000
ENDCHAR
STARTCHAR 01D0
ENCODING 464
SWIDTH 260 0
DWIDTH 13 0
BBX 18 36 4 0
BITMAP
0E03C0
0E0780
070F00
079E00
07BC00
03F800
03F000
01F000
000000
000000
07C000
078000
078000
078000
078000
0F8000
0F0000
0F0000
0F0000
0F0000
1F0000
1E0000
1E0000
1E0000
3E0000
3C0000
3C0000
3C0000
3C0000
7C0000
780000
780000
780000
780000
F80000
F00000
ENDCHAR
STARTCHAR 01D1
ENCODING 465
SWIDTH 780 0
DWIDTH 39 0
BBX 36 47 5 -1
BITMAP
0000700E00
0000381C00
0000387800
00003CF000
00001FE000
00001FE000
00000FC000
0000000000
0000000000
0000000000
0001FFF000
0007FFFC00
001FFFFE00
003FFFFF00
00FF007F80
01FC001FC0
03F0000FC0
07E00007E0
07C00003E0
0F800003E0
1F000001E0
1F000001F0
3E000001F0
3E000001F0
7C000001F0
7C000001F0
78000001E0
78000003E0
F8000003E0
F8000003E0
F8000003E0
F8000007C0
F8000007C0
F8000007C0
F800000F80
F800000F80
F800001F00
7C00003F00
7C00007E00
7E0000FC00
3F0001F800
3F8007F000
1FF03FE000
0FFFFFC000
07FFFF0000
01FFFC0000
003FE00000
ENDCHAR
STARTCHAR 01D2
ENCODING 466
SWIDTH 560 0
DWIDTH 28 0
BBX 25 37 4 -1
BITMAP
003C0700
001C0E00
001E1E00
000E3C00
000F7800
0007F000
0007E000
0007C000
00000000
001FC000
007FF800
01FFFC00
03FFFE00
07E07E00
0FC03F00
1F801F00
1F000F80
3E000F80
3E000F80
3C000F80
7C000F80
78000F00
78000F00
F8001F00
F8001F00
F8001E00
F8001E00
F8003E00
F8003C00
F8007C00
FC00F800
7C01F800
7F07F000
3FFFE000
1FFFC000
0FFF0000
03F80000
ENDCHAR
STARTCHAR 01D3
ENCODING 467
SWIDTH 720 0
DWIDTH 36 0
BBX 34 47 6 -1
BITMAP
0001E03800
0000E07000
0000F0E000
000071E000
00007BC000
00003F8000
00003F0000
0000000000
0000000000
0000000000
03C00007C0
07C0000780
07C0000780
07C0000F80
0780000F80
0780000F80
0F80000F00
0F80001F00
0F80001F00
0F00001F00
0F00001F00
1F00001E00
1F00003E00
1F00003E00
1E00003E00
3E00003C00
3E00003C00
3E00007C00
3E00007C00
3C00007C00
7C00007800
7C00007800
7C0000F800
780000F800
780000F800
F80000F000
F80001F000
F80001F000
F80003E000
F80003E000
FC000FC000
7E001F8000
7F80FF0000
3FFFFE0000
1FFFFC0000
07FFF00000
00FF800000
ENDCHAR
STARTCHAR 01D4
ENCODING 468
SWIDTH 540 0
DWIDTH 27 0
BBX 25 37 4 -1
BITMAP
001C0780
001C0F00
001E1E00
000F3C00
000F7800
0007F000
0007E000
0003C000
00000000
00000000
0F000380
0F000780
0F000780
0F000780
1F000700
1E000700
1E000F00
1E000F00
1E000F00
3E000E00
3C001E00
3C001E00
3C001E00
3C001E00
7C001C00
78003C00
78003C00
78003C00
F8007800
F800F800
F800F800
F801F800
FC07F800
FFFF7000
7FFEF000
3FF8F000
0FE00000
ENDCHAR
STARTCHAR 01D5
ENCODING 469
SWIDTH 720 0
DWIDTH 36 0
BBX 34 49 6 -1
BITMAP
0001FFF800
0001FFF800
0001FFF800
0000000000
0000000000
0001F1F000
0001F1F000
0001F1F000
0003F3F000
0003E3E000
0000000000
0000000000
03C00007C0
07C0000780
07C0000780
07C0000F80
0780000F80
0780000F80
0F80000F00
0F80001F00
0F80001F00
0F00001F00
0F00001F00
1F00001E00
1F00003E00
1F00003E00
1E00003E00
3E00003C00
3E00003C00
3E00007C00
3E00007C00
3C00007C00
7C00007800
7C00007800
7C0000F800
780000F800
780000F800
F80000F000
F80001F000
F80001F000
F80003E000
F80003E000
FC000FC000
7E001F8000
7F80FF0000
3FFFFE0000
1FFFFC0000
07FFF00000
00FF800000
ENDCHAR
STARTCHAR 01D6
ENCODING 470
SWIDTH 540 0
DWIDTH 27 0
BBX 25 41 4 -1
BITMAP
001FFF80
001FFF80
001FFF80
001FFF80
00000000
001F1F00
001F1F00
001F1F00
003F3F00
003E3E00
00000000
00000000
00000000
00000000
0F000380
0F000780
0F000780
0F000780
1F000700
1E000700
1E000F00
1E000F00
1E000F00
3E000E00
3C001E00
3C001E00
3C001E00
3C001E00
7C001C00
78003C00
78003C00
78003C00
F8007800
F800F800
F800F800
F801F800
FC07F800
FFFF7000
7FFEF000
3FF8F000
0FE00000
ENDCHAR
STARTCHAR 01D7
ENCODING 471
SWIDTH 720 0
DWIDTH 36 0
BBX 34 52 6 -1
BITMAP
000000FC00
000001F000
000001E000
000003C000
0000078000
00000F0000
00001C0000
0000000000
0001F1F000
0001F1F000
0001F1F000
0003F3F000
0003E3E000
0000000000
0000000000
03C00007C0
07C0000780
07C0000780
07C0000F80
0780000F80
0780000F80
0F80000F00
0F80001F00
0F80001F00
0F00001F00
0F00001F00
1F00001E00
1F00003E00
1F00003E00
1E00003E00
3E00003C00
3E00003C00
3E00007C00
3E00007C00
3C00007C00
7C00007800
7C00007800
7C0000F800
780000F800
780000F800
F80000F000
F80001F000
F80001F000
F80003E000
F80003E000
FC000FC000
7E001F8000
7F80FF0000
3FFFFE0000
1FFFFC0000
07FFF00000
00FF800000
ENDCHAR
STARTCHAR 01D8
ENCODING 472
SWIDTH 540 0
DWIDTH 27 0
BBX 27 45 4 -1
BITMAP
000007E0
000007C0
00000F80
00001E00
00003C00
00007800
0000F000
0001C000
00000000
003E3E00
003E3E00
003E3E00
007E7E00
007C7C00
00000000
00000000
00000000
00000000
0F000380
0F000780
0F000780
0F000780
1F000700
1E000700
1E000F00
1E000F00
1E000F00
3E000E00
3C001E00
3C001E00
3C001E00
3C001E00
7C001C00
78003C00
78003C00
78003C00
F8007800
F800F800
F800F800
F801F800
FC07F800
FFFF7000
7FFEF000
3FF8F000
0FE00000
ENDCHAR
STARTCHAR 01D9
ENCODING 473
SWIDTH 720 0
DWIDTH 36 0
BBX 34 52 6 -1
BITMAP
0000F03C00
0000707800
000078F000
000039E000
00003FC000
00001F8000
00001F8000
0000000000
0001F1F000
0001F1F000
0001F1F000
0003F3F000
0003E3E000
0000000000
0000000000
03C00007C0
07C0000780
07C0000780
07C0000F80
0780000F80
0780000F80
0F80000F00
0F80001F00
0F80001F00
0F00001F00
0F00001F00
1F00001E00
1F00003E00
1F00003E00
1E00003E00
3E00003C00
3E00003C00
3E00007C00
3E00007C00
3C00007C00
7C00007800
7C00007800
7C0000F800
780000F800
780000F800
F80000F000
F80001F000
F80001F000
F80003E000
F80003E000
FC000FC000
7E001F8000
7F80FF0000
3FFFFE0000
1FFFFC0000
07FFF00000
00FF800000
ENDCHAR
STARTCHAR 01DA
ENCODING 474
SWIDTH 540 0
DWIDTH 27 0
BBX 26 45 4 -1
BITMAP
000E01C0
000703C0
00078780
00038F00
0003DE00
0003FC00
0001F800
0001F000
00000000
003E3E00
003E3E00
003E3E00
007E7E00
007C7C00
00000000
00000000
00000000
00000000
0F000380
0F000780
0F000780
0F000780
1F000700
1E000700
1E000F00
1E000F00
1E000F00
3E000E00
3C001E00
3C001E00
3C001E00
3C001E00
7C001C00
78003C00
78003C00
78003C00
F8007800
F800F800
F800F800
F801F800
FC07F800
FFFF7000
7FFEF000
3FF8F000
0FE00000
ENDCHAR
STARTCHAR 01DB
ENCODING 475
SWIDTH 720 0
DWIDTH 36 0
BBX 34 53 6 -1
BITMAP
0001F80000
0000F80000
00007C0000
00003C0000
00001E0000
00000E0000
00000E0000
0000070000
0000000000
0001F1F000
0001F1F000
0001F1F000
0003F3F000
0003E3E000
0000000000
0000000000
03C00007C0
07C0000780
07C0000780
07C0000F80
0780000F80
0780000F80
0F80000F00
0F80001F00
0F80001F00
0F00001F00
0F00001F00
1F00001E00
1F00003E00
1F00003E00
1E00003E00
3E00003C00
3E00003C00
3E00007C00
3E00007C00
3C00007C00
7C00007800
7C00007800
7C0000F800
780000F800
780000F800
F80000F000
F80001F000
F80001F000
F80003E000
F80003E000
FC000FC000
7E001F8000
7F80FF0000
3FFFFE0000
1FFFFC0000
07FFF00000
00FF800000
ENDCHAR
STARTCHAR 01DC
ENCODING 476
SWIDTH 540 0
DWIDTH 27 0
BBX 25 45 4 -1
BITMAP
003E0000
001F0000
000F0000
00078000
00038000
0003C000
0001C000
0000E000
00000000
003E3E00
003E3E00
003E3E00
007E7E00
007C7C00
00000000
00000000
00000000
00000000
0F000380
0F000780
0F000780
0F000780
1F000700
1E000700
1E000F00
1E000F00
1E000F00
3E000E00
3C001E00
3C001E00
3C001E00
3C001E00
7C001C00
78003C00
78003C00
78003C00
F8007800
F800F800
F800F800
F801F800
FC07F800
FFFF7000
7FFEF000
3FF8F000
0FE00000
ENDCHAR
STARTCHAR 01DD
ENCODING 477
SWIDTH 540 0
DWIDTH 27 0
BBX 24 28 5 -1
BITMAP
000F80
00FFE0
01FFF8
07FFFC
0FE0FE
0F803E
1F003F
3E001F
3E001F
00001F
00000F
00000F
00001F
FFFFFF
FFFFFF
FFFFFE
FFFFFE
F0003E
F0003C
F0007C
F80078
F800F8
FC01F0
FE07F0
7FFFE0
3FFF80
1FFF00
07FC00
ENDCHAR
STARTCHAR 01DE
ENCODING 478
SWIDTH 660 0
DWIDTH 33 0
BBX 33 48 1 0
BITMAP
00001FFF80
00001FFF80
00001FFF80
0000000000
0000000000
00001F1F00
00001F1F00
00001F1F00
00003F3F00
00003E3E00
0000000000
0000000000
00000FE000
00001FE000
00001FE000
00003FE000
00003FE000
00007BE000
00007BE000
0000F3F000
0001F1F000
0001E1F000
0003E1F000
0003C1F000
000781F000
000781F000
000F01F800
001F00F800
001E00F800
003E00F800
003C00F800
007800F800
00F800F800
00FFFFFC00
01FFFFFC00
01FFFFFC00
03FFFFFC00
03C0007C00
07C0007C00
0F80007C00
0F80007E00
1F00003E00
1F00003E00
3E00003E00
3C00003E00
7C00003E00
F800003E00
F800003F00
ENDCHAR
STARTCHAR 01DF
ENCODING 479
SWIDTH 560 0
DWIDTH 28 0
BBX 27 41 3 -1
BITMAP
0007FFE0
0007FFC0
000FFFC0
000FFFC0
00000000
000F8F80
000F8F80
000F8F80
001F9F80
001F1F00
00000000
00000000
00000000
000FF800
003FFE00
00FFFF00
01FFFF80
03F81FC0
03E00FC0
07C007C0
07C00780
00000780
00000780
00000F80
00003F80
003FFF00
03FFFF00
0FFFCF00
1FF01F00
3F001E00
7C001E00
78001E00
F8001E00
F8003E00
F8007C00
F800FC00
FC03FC00
7FFFBF80
7FFF3F80
3FFE3F00
0FF01F00
ENDCHAR
STARTCHAR 01E0
ENCODING 480
SWIDTH 660 0
DWIDTH 33 0
BBX 33 48 1 0
BITMAP
00000FFF80
00001FFF80
00001FFF80
0000000000
000003E000
000003E000
000003E000
000007E000
000007C000
0000000000
0000000000
0000000000
00000FE000
00001FE000
00001FE000
00003FE000
00003FE000
00007BE000
00007BE000
0000F3F000
0001F1F000
0001E1F000
0003E1F000
0003C1F000
000781F000
000781F000
000F01F800
001F00F800
001E00F800
003E00F800
003C00F800
007800F800
00F800F800
00FFFFFC00
01FFFFFC00
01FFFFFC00
03FFFFFC00
03C0007C00
07C0007C00
0F80007C00
0F80007E00
1F00003E00
1F00003E00
3E00003E00
3C00003E00
7C00003E00
F800003E00
F800003F00
ENDCHAR
STARTCHAR 01E1
ENCODING 481
SWIDTH 560 0
DWIDTH 28 0
BBX 27 41 3 -1
BITMAP
0007FFE0
0007FFE0
0007FFC0
000FFFC0
00000000
0000F800
0000F800
0000F800
0001F800
0001F000
0001F000
00000000
00000000
000FF800
003FFE00
00FFFF00
01FFFF80
03F81FC0
03E00FC0
07C007C0
07C00780
00000780
00000780
00000F80
00003F80
003FFF00
03FFFF00
0FFFCF00
1FF01F00
3F001E00
7C001E00
78001E00
F8001E00
F8003E00
F8007C00
F800FC00
FC03FC00
7FFFBF80
7FFF3F80
3FFE3F00
0FF01F00
ENDCHAR
STARTCHAR 01E2
ENCODING 482
SWIDTH 1000 0
DWIDTH 50 0
BBX 53 43 1 0
BITMAP
00000000FFF800
00000001FFF800
00000001FFF800
00000000000000
00000000000000
00000000000000
00000000000000
000003FFFFFFF8
000007FFFFFFF8
000007FFFFFFF8
00000FFFFFFFF8
00001F07C00000
00001E07C00000
00003E07800000
00003C0F800000
00007C0F800000
0000F80F800000
0000F00F800000
0001F00F000000
0003E01F000000
0003C01F000000
0007C01F000000
0007801F000000
000F801FFFFF80
001F003FFFFF80
001E003FFFFF00
003E003FFFFF00
007C003C000000
007FFFFC000000
00FFFFFC000000
01FFFFFC000000
01FFFFFC000000
03E00078000000
03C000F8000000
07C000F8000000
0F8000F8000000
0F8000F8000000
1F0000F0000000
3E0001F0000000
3E0001FFFFFE00
7C0001FFFFFE00
7C0001FFFFFE00
F80001FFFFFE00
ENDCHAR
STARTCHAR 01E3
ENCODING 483
SWIDTH 900 0
DWIDTH 45 0
BBX 44 33 3 -1
BITMAP
00001FFF8000
00001FFF8000
00001FFF0000
000000000000
000000000000
000FF803F800
007FFE1FFE00
01FFFF3FFF80
03FFFFFFFFC0
03F01FFC0FE0
07C007F007E0
078007E003E0
0F8007C001F0
0000078001F0
00000F8001F0
00000F0001E0
00003FFFFFE0
001FFFFFFFE0
03FFFFFFFFE0
0FFFDFFFFFE0
1FF01E000000
3F001E000000
7C001E000000
78003E000000
F8003E000780
F8003E000F80
F8007F001F00
F801FF803F00
FC07EFC0FE00
7FFFC7FFFC00
7FFF03FFF800
3FFC01FFE000
0FE0007F0000
ENDCHAR
STARTCHAR 01E4
ENCODING 484
SWIDTH 780 0
DWIDTH 39 0
BBX 36 37 5 0
BITMAP
0000FFF800
0007FFFE00
001FFFFF00
003FFFFF80
00FF003FC0
01FC000FE0
03F00007E0
03E00003E0
07C00001F0
0F800001F0
0F000001F0
1F00000000
1E00000000
3E00000000
3C00000000
7C00000000
7C00000000
78001FFFE0
78003FFFE0
F8003FFFC0
F8003FFFC0
F8000007C0
F8000007C0
F800000F80
F8007FFFF0
F8007FFFF0
F8007FFFE0
FC00003F80
7C00007F00
7E0000FF00
7F0001FF00
3F8007FE00
1FE03F9E00
0FFFFF1E00
07FFFC1C00
03FFF01C00
007F800000
ENDCHAR
STARTCHAR 01E5
ENCODING 485
SWIDTH 560 0
DWIDTH 28 0
BBX 28 38 2 -11
BITMAP
0007E000
001FF8F0
007FFCF0
00FFFEF0
01FC1FF0
03F00FE0
03E007E0
07C003E0
0F8003E0
0F8003C0
0F0003C0
1F0003C0
1E0003C0
1E0003C0
3E000780
3E000780
3E000780
3E000F80
3E000F80
3E001F00
3E001F00
3E003F00
1F007F00
1F81EE00
0FFFDE00
07FF9E00
03FF1E00
00FC1C00
00003C00
000FFE00
001FFE00
F81FFE00
F801F000
FC03E000
7F9FC000
7FFF8000
3FFE0000
07F80000
ENDCHAR
STARTCHAR 01E6
ENCODING 486
SWIDTH 780 0
DWIDTH 39 0
BBX 36 47 5 -1
BITMAP
0000380F00
00003C1E00
00001C3C00
00001E7800
00000EF000
00000FE000
000007E000
0000000000
0000000000
0000000000
0000FFF800
0003FFFE00
000FFFFF80
003FFFFF80
007F001FC0
00FC0007E0
01F00003E0
03E00003E0
07C00001F0
0F800001F0
0F800001F0
1F00000000
1E00000000
3E00000000
3C00000000
7C00000000
7C00000000
78001FFFE0
F8001FFFE0
F8001FFFC0
F8001FFFC0
F8000003C0
F8000003C0
F8000007C0
F800000780
F800000780
F800000F80
7C00001F80
7C00003F00
7E00007F00
3F0000FF00
3F8003FF00
1FF01FEF00
0FFFFF8E00
07FFFF0E00
01FFFC0E00
003FC00000
ENDCHAR
STARTCHAR 01E7
ENCODING 487
SWIDTH 560 0
DWIDTH 28 0
BBX 28 47 2 -11
BITMAP
000E03C0
000E0780
00070F00
00079E00
0007BC00
0003F800
0003F000
0001F000
00000000
0007F000
001FF8F0
007FFCF0
00FFFEF0
01FC1FF0
03F00FE0
03E007E0
07C003E0
078003E0
0F8003E0
0F0003C0
1F0003C0
1F0003C0
1E0003C0
3E0003C0
3E000780
3E000780
3E000780
3E000F80
3E000F00
3E001F00
3E003F00
1F007F00
1F80FF00
0FFFEE00
07FFDE00
03FF9E00
00FC1C00
00003C00
00003C00
F8007800
F8007800
F800F000
FC03E000
7FFFE000
7FFFC000
1FFF0000
07F80000
ENDCHAR
STARTCHAR 01E8
ENCODING 488
SWIDTH 660 0
DWIDTH 33 0
BBX 36 46 4 0
BITMAP
0000E03800
0000E07800
0000F0F000
000079E000
00007BC000
00003F8000
00003F0000
0000000000
0000000000
0000000000
00F00003F0
01F00007E0
01F0000FC0
01F0003F00
01E0007E00
01E000FC00
03E001F800
03E003E000
03E00FC000
03C01F8000
03C03F0000
07C07E0000
07C0F80000
07C3F00000
0787E00000
0F8FE00000
0F9FE00000
0FBFF00000
0FFCF00000
0FF0F80000
1FE0F80000
1FC07C0000
1F807C0000
1F003E0000
3E003E0000
3E001F0000
3E001F0000
3E000F8000
3C000F8000
7C000FC000
7C0007C000
7C0007E000
780003E000
780003F000
F80001F000
F80001F800
ENDCHAR
STARTCHAR 01E9
ENCODING 489
SWIDTH 500 0
DWIDTH 25 0
BBX 26 45 3 0
BITMAP
000E03C0
00070780
00078F00
00079E00
0003FC00
0003F800
0001F000
00000000
00000000
00F00000
01F00000
01E00000
01E00000
01E00000
01E00000
03E00000
03C00000
03C00000
03C00000
07C00FC0
07801F00
07803E00
07807C00
0781F800
0F83F000
0F07C000
0F0F8000
0F3F0000
0F7E0000
1FFF0000
1FFF0000
1FEF8000
1F8F8000
3F078000
3E07C000
3C03C000
3C03E000
3C03E000
7C01F000
7801F000
7800F000
7800F800
7800F800
F8007C00
F0007C00
ENDCHAR
STARTCHAR 01EA
ENCODING 490
SWIDTH 780 0
DWIDTH 39 0
BBX 37 47 5 -10
BITMAP
0000FFF000
0007FFFE00
001FFFFF00
003FFFFF80
007F003FC0
01FC000FE0
03F00007E0
03E00003F0
07C00001F0
0F800001F0
1F000000F0
1F000000F8
3E000000F8
3E000000F8
7C000000F8
7C000000F8
7C000000F0
78000001F0
F8000001F0
F8000001F0
F8000001F0
F8000003E0
F8000003E0
F8000003E0
F8000007C0
F8000007C0
F800000F80
FC00001F80
7C00003F00
7E00007E00
7F0000FC00
3F8003F800
1FF01FF000
0FFFFFE000
07FFFF8000
03FFFE0000
007FF00000
0070000000
01E0000000
0380000000
0700000000
0F00000000
0F00000000
0F00000000
0FC2000000
07FE000000
01FC000000
ENDCHAR
STARTCHAR 01EB
ENCODING 491
SWIDTH 560 0
DWIDTH 28 0
BBX 25 38 4 -11
BITMAP
001FC000
007FF800
01FFFC00
03FFFE00
07F07E00
0FC03F00
0F801F00
1F000F00
3E000F80
3E000F80
3C000F80
7C000F80
7C000F00
78000F00
F8001F00
F8001F00
F8001F00
F8001E00
F8003E00
F8003C00
F8007C00
F800F800
7C01F800
7E03F000
3FFFE000
1FFFC000
0FFF0000
03FC0000
01C00000
07000000
0E000000
1C000000
3C000000
3C000000
3C000000
3E100000
1FF00000
07F00000
ENDCHAR
STARTCHAR 01EC
ENCODING 492
SWIDTH 780 0
DWIDTH 39 0
BBX 37 54 5 -11
BITMAP
00007FFC00
0000FFFC00
0000FFFC00
0000000000
0000000000
0000000000
0000000000
0000FFF000
0007FFFE00
001FFFFF00
003FFFFF80
007F003FC0
01FC000FE0
03F00007E0
03E00003F0
07C00001F0
0F800001F0
1F000000F0
1F000000F8
3E000000F8
3E000000F8
7C000000F8
7C000000F8
7C000000F0
78000001F0
F8000001F0
F8000001F0
F8000001F0
F8000003E0
F8000003E0
F8000003E0
F8000007C0
F8000007C0
F800000F80
FC00001F80
7C00003F00
7E00007E00
7F0000FC00
3F8003F800
1FF01FF000
0FFFFFE000
07FFFF8000
03FFFE0000
007FF00000
0070000000
01E0000000
0380000000
0700000000
0F00000000
0F00000000
0F00000000
0FC2000000
07FE000000
01FC000000
ENDCHAR
STARTCHAR 01ED
ENCODING 493
SWIDTH 560 0
DWIDTH 28 0
BBX 25 43 4 -11
BITMAP
007FFE00
007FFE00
007FFE00
00000000
00000000
001FC000
007FF800
01FFFC00
03FFFE00
07F07E00
0FC03F00
0F801F00
1F000F00
3E000F80
3E000F80
3C000F80
7C000F80
7C000F00
78000F00
F8001F00
F8001F00
F8001F00
F8001E00
F8003E00
F8003C00
F8007C00
F800F800
7C01F800
7E03F000
3FFFE000
1FFFC000
0FFF0000
03FC0000
01C00000
07000000
0E000000
1C000000
3C000000
3C000000
3C000000
3E100000
1FF00000
07F00000
ENDCHAR
STARTCHAR 01EE
ENCODING 494
SWIDTH 620 0
DWIDTH 31 0
BBX 33 48 3 -1
BITMAP
0000E01C00
0000F03800
0000707800
000078F000
000039E000
00003FC000
00001F8000
00001F0000
0000000000
0000000000
0000000000
01FFFFFF80
01FFFFFF80
01FFFFFF80
03FFFFFF00
0000003F00
0000007E00
000000FC00
000001F800
000003F000
000007E000
00000FC000
00001F8000
00003F0000
00007E0000
0007FC0000
0007FC0000
0007FF0000
0007FFC000
00003FE000
00000FE000
000003E000
000003F000
000001F000
000001F000
000001F000
F80001E000
F80001E000
F80003E000
F80003C000
F80007C000
F8000F8000
7C001F0000
7F00FF0000
3FFFFC0000
3FFFF80000
0FFFE00000
03FF000000
ENDCHAR
STARTCHAR 01EF
ENCODING 495
SWIDTH 560 0
DWIDTH 28 0
BBX 27 44 2 -7
BITMAP
00700E00
00781C00
00383C00
003C7800
001CF000
001FE000
000FC000
000F8000
00000000
00000000
00000000
01FFFFE0
01FFFFE0
01FFFFC0
03FFFFC0
00000F80
00001F00
00003E00
00007C00
0000F800
0001F000
0003E000
0007C000
000FC000
000FF800
000FFE00
001FFE00
00003F00
00001F00
00000F80
00000F80
00000F80
00000F00
F8000F00
F8001F00
F8001F00
F8003E00
F8007E00
FC00FC00
7E03F800
7FFFF000
3FFFE000
1FFF8000
03FC0000
ENDCHAR
STARTCHAR 01F0
ENCODING 496
SWIDTH 220 0
DWIDTH 11 0
BBX 23 46 -3 -11
BITMAP
00780E
00381C
003C38
001CF0
001FF0
000FE0
000FC0
000000
000000
000F00
000F00
000F00
000F00
001F00
001E00
001E00
001E00
003E00
003C00
003C00
003C00
003C00
007C00
007800
007800
007800
007800
00F800
00F000
00F000
00F000
01F000
01F000
01E000
01E000
01E000
03E000
03C000
03C000
03C000
07C000
07C000
7F8000
FF8000
FF0000
F80000
ENDCHAR
STARTCHAR 01F1
ENCODING 497
SWIDTH 1340 0
DWIDTH 67 0
BBX 69 36 4 0
BITMAP
00FFFFC0001FFFFFF8
01FFFFF0003FFFFFF8
01FFFFFC003FFFFFF8
01FFFFFE003FFFFFF0
01F001FE00000003F0
01E0003F00000007E0
03E0001F0000000FC0
03E0000F8000001F80
03E0000F8000003F00
03C000078000007E00
03C00007C00000FC00
07C00007C00001F800
07C00007C00003F000
07C00007C00007E000
07800007C0000FC000
0F80000780001F8000
0F80000780003F0000
0F80000F80007E0000
0F00000F8000FC0000
0F00000F8001F80000
1F00000F0003F00000
1F00001F0007E00000
1F00001F000FC00000
1E00003E001F800000
3E00003E003F000000
3E00007C007E000000
3E00007C00FC000000
3E0000F801F8000000
3C0001F003F0000000
7C0003F007E0000000
7C000FE00FC0000000
7C003FC01F80000000
7FFFFF803FFFFFFC00
7FFFFE003FFFFFFC00
FFFFF8003FFFFFFC00
FFFFC0003FFFFFFC00
ENDCHAR
STARTCHAR 01F2
ENCODING 498
SWIDTH 1220 0
DWIDTH 61 0
BBX 60 36 4 0
BITMAP
00FFFFC000000000
01FFFFF000000000
01FFFFFC00000000
01FFFFFE00000000
01F001FE00000000
01E0003F00000000
03E0001F00000000
03E0000F80000000
03E0000F80000000
03C0000780000000
03C00007C0FFFFF0
07C00007C0FFFFF0
07C00007C0FFFFE0
07C00007C0FFFFE0
07800007C00007C0
0F80000780000F80
0F80000780001F00
0F80000F80003E00
0F00000F80007C00
0F00000F8000F800
1F00000F0001F000
1F00001F0003E000
1F00001F0007C000
1E00003E000F8000
3E00003E001F0000
3E00007C003E0000
3E00007C007C0000
3E0000F800F80000
3C0001F001F00000
7C0003F007C00000
7C000FE00F800000
7C003FC01F000000
7FFFFF803FFFFF00
7FFFFE003FFFFF00
FFFFF8003FFFFE00
FFFFC0003FFFFE00
ENDCHAR
STARTCHAR 01F3
ENCODING 499
SWIDTH 1060 0
DWIDTH 53 0
BBX 52 37 4 -1
BITMAP
00000078000000
000000F0000000
000000F0000000
000000F0000000
000000F0000000
000001E0000000
000001E0000000
000001E0000000
000001E0000000
001F81E0000000
00FFE3C0FFFFF0
01FFF3C0FFFFE0
03FFFBC0FFFFE0
07E07BC1FFFFE0
0FC03FC00007C0
1F001F80000F80
1F000F80001F00
3E000F80003E00
3E000F80007C00
7C000F0000F800
7C000F0001F000
78000F0003E000
F8000F0007C000
F8000F000F8000
F8001E003E0000
F8001E007C0000
F8001E00F80000
F8003E01F00000
F8003C03E00000
F8007C07C00000
FC00FC0F800000
7C01FC1F000000
7F07FC3FFFFE00
3FFFF83FFFFE00
3FFF783FFFFE00
0FFC787FFFFE00
03F00000000000
ENDCHAR
STARTCHAR 01F4
ENCODING 500
SWIDTH 780 0
DWIDTH 39 0
BBX 36 47 5 -1
BITMAP
0000003F00
0000007C00
000000F800
000000F000
000001E000
000003C000
0000070000
0000000000
0000000000
0000000000
0000FFF800
0003FFFE00
000FFFFF80
003FFFFF80
007F001FC0
00FC0007E0
01F00003E0
03E00003E0
07C00001F0
0F800001F0
0F800001F0
1F00000000
1E00000000
3E00000000
3C00000000
7C00000000
7C00000000
78001FFFE0
F8001FFFE0
F8001FFFC0
F8001FFFC0
F8000003C0
F8000003C0
F8000007C0
F800000780
F800000780
F800000F80
7C00001F80
7C00003F00
7E00007F00
3F0000FF00
3F8003FF00
1FF01FEF00
0FFFFF8E00
07FFFF0E00
01FFFC0E00
003FC00000
ENDCHAR
STARTCHAR 01F5
ENCODING 501
SWIDTH 560 0
DWIDTH 28 0
BBX 28 47 2 -11
BITMAP
000007E0
00000F80
00001F00
00001E00
00003C00
00007800
0000E000
0001C000
00000000
0007F000
001FF8F0
007FFCF0
00FFFEF0
01FC1FF0
03F00FE0
03E007E0
07C003E0
078003E0
0F8003E0
0F0003C0
1F0003C0
1F0003C0
1E0003C0
3E0003C0
3E000780
3E000780
3E000780
3E000F80
3E000F00
3E001F00
3E003F00
1F007F00
1F80FF00
0FFFEE00
07FFDE00
03FF9E00
00FC1C00
00003C00
00003C00
F8007800
F8007800
F800F000
FC03E000
7FFFE000
7FFFC000
1FFF0000
07F80000
ENDCHAR
STARTCHAR 01F7
ENCODING 503
SWIDTH 640 0
DWIDTH 32 0
BBX 30 37 5 0
BITMAP
00003FC0
01F0FFF0
01F3FFF8
01E7FFF8
03FFC1F8
03FF00FC
03FC007C
03F0007C
03E00078
07C00078
07C000F8
07C000F0
07C001F0
078003E0
0F8007E0
0F800FC0
0F801F80
0F003F00
1F007E00
1F00FC00
1F01F800
1F07F000
1E0FE000
3E3F8000
3EFF0000
3FFC0000
3FF80000
3FE00000
7F800000
7F000000
7C000000
7C000000
F8000000
F8000000
F8000000
F8000000
F0000000
ENDCHAR
STARTCHAR 01F8
ENCODING 504
SWIDTH 740 0
DWIDTH 37 0
BBX 36 46 4 0
BITMAP
0000F80000
00007C0000
00003C0000
00001E0000
00001E0000
00000F0000
0000070000
0000038000
0000000000
0000000000
00F80000F0
01FC0001F0
01FC0001F0
01FC0001E0
01FE0001E0
01FE0001E0
03FF0003E0
03FF0003E0
03CF8003C0
03CF8003C0
07CF8003C0
07C7C007C0
0787C007C0
0783E00780
0783E00780
0F81F00F80
0F81F00F80
0F01F00F00
0F00F80F00
0F00F80F00
1F007C1F00
1F007C1F00
1E003C1E00
1E003E1E00
3E003E1E00
3E001F3E00
3C001F3E00
3C000FBC00
3C000FBC00
7C000FFC00
7C0007FC00
780007F800
780003F800
780003F800
F80001F800
F80001F800
ENDCHAR
STARTCHAR 01F9
ENCODING 505
SWIDTH 540 0
DWIDTH 27 0
BBX 26 37 3 0
BITMAP
003E0000
001F0000
000F0000
00078000
00078000
0003C000
0001C000
0000E000
00000000
00000000
0001FC00
078FFE00
079FFF00
07FFFF80
07F81F80
07E00FC0
0FC007C0
0F800780
0F000780
0F000780
0E000F80
1E000F00
1E000F00
1E000F00
1C000F00
3C001F00
3C001E00
3C001E00
3C001E00
38001E00
78003E00
78003C00
78003C00
70003C00
70003C00
F0007C00
F0007800
ENDCHAR
STARTCHAR 01FA
ENCODING 506
SWIDTH 660 0
DWIDTH 33 0
BBX 36 47 1 0
BITMAP
00000001F0
00000003E0
00000007C0
0000000F80
0000001F00
0000001C00
0000003800
0000007000
000001F000
000007F800
00000FFC00
00000F3C00
00001E1C00
00001C1C00
00001C3C00
00001F7800
00001FF000
00000FE000
000007C000
0000000000
00000FE000
00001FE000
00003FE000
00003FE000
00007BE000
0000F3F000
0001F1F000
0001E1F000
0003C1F000
000781F000
000F81F800
001F00F800
001E00F800
003C00F800
007800F800
00F800F800
00FFFFFC00
01FFFFFC00
03FFFFFC00
07C0007C00
0780007C00
0F80007E00
1F00003E00
3E00003E00
7C00003E00
7C00003E00
F800003E00
ENDCHAR
STARTCHAR 01FB
ENCODING 507
SWIDTH 560 0
DWIDTH 28 0
BBX 30 48 3 -1
BITMAP
000000FC
000000F8
000001F0
000003C0
00000780
00000F00
00001E00
00003800
00007C00
0001FE00
0003FF00
0003CF00
00078700
00070700
00070F00
0007DE00
0007FC00
0003F800
0001F000
00000000
000FF800
003FFE00
00FFFF00
01FFFF80
03F81FC0
03E00FC0
07C007C0
07C00780
00000780
00000780
00000F80
00003F80
003FFF00
03FFFF00
0FFFCF00
1FF01F00
3F001E00
7C001E00
78001E00
F8001E00
F8003E00
F8007C00
F800FC00
FC03FC00
7FFFBF80
7FFF3F80
3FFE3F00
0FF01F00
ENDCHAR
STARTCHAR 01FC
ENCODING 508
SWIDTH 1000 0
DWIDTH 50 0
BBX 53 46 1 0
BITMAP
0000000000FC00
0000000000F800
0000000001F000
0000000003C000
00000000078000
000000000F0000
000000001E0000
000000003C0000
00000000000000
00000000000000
000003FFFFFFF8
000007FFFFFFF8
000007FFFFFFF8
00000FFFFFFFF8
00001F07C00000
00001E07C00000
00003E07800000
00003C0F800000
00007C0F800000
0000F80F800000
0000F00F800000
0001F00F000000
0003E01F000000
0003C01F000000
0007C01F000000
0007801F000000
000F801FFFFF80
001F003FFFFF80
001E003FFFFF00
003E003FFFFF00
007C003C000000
007FFFFC000000
00FFFFFC000000
01FFFFFC000000
01FFFFFC000000
03E00078000000
03C000F8000000
07C000F8000000
0F8000F8000000
0F8000F8000000
1F0000F0000000
3E0001F0000000
3E0001FFFFFE00
7C0001FFFFFE00
7C0001FFFFFE00
F80001FFFFFE00
ENDCHAR
STARTCHAR 01FD
ENCODING 509
SWIDTH 900 0
DWIDTH 45 0
BBX 44 38 3 -1
BITMAP
00000007E000
00000007C000
0000000F8000
0000001E0000
0000003C0000
000000780000
000000F00000
000001E00000
000000000000
000000000000
000FF803F800
007FFE1FFE00
01FFFF3FFF80
03FFFFFFFFC0
03F01FFC0FE0
07C007F007E0
078007E003E0
0F8007C001F0
0000078001F0
00000F8001F0
00000F0001E0
00003FFFFFE0
001FFFFFFFE0
03FFFFFFFFE0
0FFFDFFFFFE0
1FF01E000000
3F001E000000
7C001E000000
78003E000000
F8003E000780
F8003E000F80
F8007F001F00
F801FF803F00
FC07EFC0FE00
7FFFC7FFFC00
7FFF03FFF800
3FFC01FFE000
0FE0007F0000
ENDCHAR
STARTCHAR 01FE
ENCODING 510
SWIDTH 780 0
DWIDTH 39 0
BBX 40 47 3 -1
BITMAP
0000003F00
0000003E00
0000007C00
000000F000
000001E000
000003C000
0000078000
00000F0000
0000000000
0000000000
00007FF802
0001FFFF07
0007FFFF8F
001FFFFFDE
003FC00FF8
007F0007F0
00FC0003F0
01F80003F8
01F00007F8
03E0000FF8
07C0001E78
07C0003C7C
0F8000F07C
0F8001E07C
1F0003C07C
1F00078078
1E000F0078
1E001E0078
3E003C0078
3E007800F8
3E01E000F0
3E03C000F0
3E078001F0
3E0F0001E0
3E1E0003E0
3E3C0003C0
3E780007C0
3FE0000F80
1FC0001F80
1F80003F00
0FC0007E00
1FE001FC00
3FFC0FF800
7BFFFFF000
F1FFFFC000
E07FFF0000
C00FF80000
ENDCHAR
STARTCHAR 01FF
ENCODING 511
SWIDTH 560 0
DWIDTH 28 0
BBX 31 38 1 -1
BITMAP
000001F8
000001F0
000003E0
00000780
00000F00
00001E00
00003C00
00007800
00000000
00000000
0003F804
000FFF0E
003FFF9C
007FFFF0
00FC0FE0
01F807E0
03E003E0
03E007E0
07C00FF0
07C01DF0
078039F0
0F8071F0
0F00C1E0
0F0181E0
1F0303E0
1F0E03E0
1F1C03E0
1F3807C0
1F7007C0
1FE00780
1FC00F80
1F801F00
0F803E00
0FE0FE00
1FFFFC00
33FFF000
E1FFE000
C07F0000
ENDCHAR
STARTCHAR 0200
ENCODING 512
SWIDTH 660 0
DWIDTH 33 0
BBX 32 46 1 0
BITMAP
000F87C0
0007C3C0
0003C1E0
0001E1E0
0000E0F0
0000F070
00007038
00000000
00000000
00000000
00000FE0
00001FE0
00001FE0
00003FE0
00003FE0
00007BE0
00007BE0
0000F3F0
0001F1F0
0001E1F0
0003E1F0
0003C1F0
000781F0
000781F0
000F01F8
001F00F8
001E00F8
003E00F8
003C00F8
007800F8
00F800F8
00FFFFFC
01FFFFFC
01FFFFFC
03FFFFFC
03C0007C
07C0007C
0F80007C
0F80007E
1F00003E
1F00003E
3E00003E
3C00003E
7C00003E
F800003E
F800003F
ENDCHAR
STARTCHAR 0201
ENCODING 513
SWIDTH 560 0
DWIDTH 28 0
BBX 26 37 3 -1
BITMAP
03E1F000
01F0F800
00F07800
00783C00
00383C00
001C1E00
001C0E00
00000000
00000000
000FF800
003FFE00
00FFFF00
01FFFF80
03F81FC0
03E00FC0
07C007C0
07C00780
00000780
00000780
00000F80
00003F80
003FFF00
03FFFF00
0FFFCF00
1FF01F00
3F001E00
7C001E00
78001E00
F8001E00
F8003E00
F8007C00
F800FC00
FC03FC00
7FFFBF80
7FFF3F80
3FFE3F00
0FF01F00
ENDCHAR
STARTCHAR 0202
ENCODING 514
SWIDTH 660 0
DWIDTH 33 0
BBX 32 45 1 0
BITMAP
00000FF8
00003FFC
00007FFE
0000FC3E
0000E00E
0001C00E
00000000
00000000
00000000
00000FE0
00001FE0
00001FE0
00003FE0
00003FE0
00007BE0
00007BE0
0000F3F0
0001F1F0
0001E1F0
0003E1F0
0003C1F0
000781F0
000781F0
000F01F8
001F00F8
001E00F8
003E00F8
003C00F8
007800F8
00F800F8
00FFFFFC
01FFFFFC
01FFFFFC
03FFFFFC
03C0007C
07C0007C
0F80007C
0F80007E
1F00003E
1F00003E
3E00003E
3C00003E
7C00003E
F800003E
F800003F
ENDCHAR
STARTCHAR 0203
ENCODING 515
SWIDTH 560 0
DWIDTH 28 0
BBX 26 36 3 -1
BITMAP
0003FC00
0007FF00
001FFF80
001F9F80
00380380
00300380
00000000
00000000
000FF800
003FFE00
00FFFF00
01FFFF80
03F81FC0
03E00FC0
07C007C0
07C00780
00000780
00000780
00000F80
00003F80
003FFF00
03FFFF00
0FFFCF00
1FF01F00
3F001E00
7C001E00
78001E00
F8001E00
F8003E00
F8007C00
F800FC00
FC03FC00
7FFFBF80
7FFF3F80
3FFE3F00
0FF01F00
ENDCHAR
STARTCHAR 0204
ENCODING 516
SWIDTH 660 0
DWIDTH 33 0
BBX 33 46 4 0
BITMAP
001F0F8000
000F878000
000787C000
0007C3C000
0003C1E000
0001C0E000
0000E07000
0000000000
0000000000
0000000000
00FFFFFF80
01FFFFFF80
01FFFFFF80
01FFFFFF00
01F0000000
01E0000000
03E0000000
03E0000000
03E0000000
03C0000000
03C0000000
07C0000000
07C0000000
07C0000000
0780000000
0F80000000
0FFFFFF800
0FFFFFF000
0FFFFFF000
0FFFFFF000
1F00000000
1F00000000
1F00000000
1E00000000
3E00000000
3E00000000
3E00000000
3E00000000
3C00000000
7C00000000
7C00000000
7C00000000
7FFFFFE000
7FFFFFE000
FFFFFFC000
FFFFFFC000
ENDCHAR
STARTCHAR 0205
ENCODING 517
SWIDTH 540 0
DWIDTH 27 0
BBX 25 37 4 -1
BITMAP
07C7E000
03C3E000
03E1F000
01E0F000
00F07800
00703800
00381C00
00000000
00000000
001FC000
007FF800
01FFFC00
03FFFE00
07F07F00
0FC03F00
1F801F00
1F000F80
3E000F80
3C000F80
3C000F00
7FFFFF00
7FFFFF00
7FFFFF00
FFFFFF00
F8000000
F8000000
F8000000
F8000000
F8003C00
F8007C00
7C00F800
7C01F800
7F03F000
3FFFE000
1FFFC000
0FFF0000
01FC0000
ENDCHAR
STARTCHAR 0206
ENCODING 518
SWIDTH 660 0
DWIDTH 33 0
BBX 33 45 4 0
BITMAP
00007FC000
0000FFE000
0003FFF000
0003E1F000
0007007800
0007003000
0000000000
0000000000
0000000000
00FFFFFF80
01FFFFFF80
01FFFFFF80
01FFFFFF00
01F0000000
01E0000000
03E0000000
03E0000000
03E0000000
03C0000000
03C0000000
07C0000000
07C0000000
07C0000000
0780000000
0F80000000
0FFFFFF800
0FFFFFF000
0FFFFFF000
0FFFFFF000
1F00000000
1F00000000
1F00000000
1E00000000
3E00000000
3E00000000
3E00000000
3E00000000
3C00000000
7C00000000
7C00000000
7C00000000
7FFFFFE000
7FFFFFE000
FFFFFFC000
FFFFFFC000
ENDCHAR
STARTCHAR 0207
ENCODING 519
SWIDTH 540 0
DWIDTH 27 0
BBX 25 36 4 -1
BITMAP
0007F800
000FFE00
003FFF00
003F3F00
00700700
00600700
00000000
00000000
001FC000
007FF800
01FFFC00
03FFFE00
07F07F00
0FC03F00
1F801F00
1F000F80
3E000F80
3C000F80
3C000F00
7FFFFF00
7FFFFF00
7FFFFF00
FFFFFF00
F8000000
F8000000
F8000000
F8000000
F8003C00
F8007C00
7C00F800
7C01F800
7F03F000
3FFFE000
1FFFC000
0FFF0000
01FC0000
ENDCHAR
STARTCHAR 0208
ENCODING 520
SWIDTH 300 0
DWIDTH 15 0
BBX 17 46 5 0
BITMAP
F87C00
7C3E00
3C1E00
1E0F00
0E0F00
070780
070380
000000
000000
000000
00F000
01F000
01F000
01F000
01E000
01E000
03E000
03E000
03E000
03C000
03C000
07C000
07C000
07C000
078000
0F8000
0F8000
0F8000
0F0000
0F0000
1F0000
1F0000
1F0000
1E0000
3E0000
3E0000
3E0000
3E0000
3C0000
7C0000
7C0000
7C0000
780000
780000
F80000
F80000
ENDCHAR
STARTCHAR 0209
ENCODING 521
SWIDTH 260 0
DWIDTH 13 0
BBX 16 36 3 0
BITMAP
F8F8
F87C
7C3C
3C1E
1E0E
0E07
0707
0000
0000
0000
03E0
03C0
03C0
03C0
03C0
07C0
0780
0780
0780
0780
0F80
0F00
0F00
0F00
1F00
1E00
1E00
1E00
1E00
3E00
3C00
3C00
3C00
3C00
7C00
7800
ENDCHAR
STARTCHAR 020A
ENCODING 522
SWIDTH 300 0
DWIDTH 15 0
BBX 18 45 5 0
BITMAP
01FF00
03FF80
0FFFC0
0F87C0
1C01C0
1801C0
000000
000000
000000
00F800
00F000
01F000
01F000
01F000
01E000
01E000
03E000
03E000
03E000
03C000
07C000
07C000
07C000
078000
078000
0F8000
0F8000
0F8000
0F0000
1F0000
1F0000
1F0000
1F0000
1E0000
3E0000
3E0000
3E0000
3C0000
3C0000
7C0000
7C0000
7C0000
780000
F80000
F80000
ENDCHAR
STARTCHAR 020B
ENCODING 523
SWIDTH 260 0
DWIDTH 13 0
BBX 17 35 4 0
BITMAP
03FC00
0FFF00
1FFF00
3F1F80
780380
700380
000000
000000
000000
07C000
078000
078000
078000
078000
0F8000
0F0000
0F0000
0F0000
0F0000
1F0000
1E0000
1E0000
1E0000
3E0000
3C0000
3C0000
3C0000
3C0000
7C0000
780000
780000
780000
780000
F80000
F00000
ENDCHAR
ENDFONT
